<svg xmlns="http://www.w3.org/2000/svg" viewBox="0 0 750 500"><g id="freepik--background-complete--inject-40"><rect x="69.91" y="67.58" width="312.1" height="390.97" transform="translate(451.91 526.12) rotate(180)" style="fill:#dbdbdb"></rect><rect x="78.85" y="77.13" width="92.1" height="181.13" transform="translate(249.81 335.38) rotate(180)" style="fill:#ebebeb"></rect><path d="M165,252.32H84.83V83.07H165Zm-79.15-1H164V84.07H85.83Z" style="fill:#dbdbdb"></path><rect x="111.84" y="93.65" width="26.12" height="2.14" transform="translate(249.81 189.45) rotate(180)" style="fill:#dbdbdb"></rect><rect x="111.84" y="98.5" width="26.12" height="2.14" transform="translate(249.81 199.14) rotate(180)" style="fill:#dbdbdb"></rect><rect x="111.84" y="103.35" width="26.12" height="2.14" transform="translate(249.81 208.84) rotate(180)" style="fill:#dbdbdb"></rect><rect x="111.84" y="229.9" width="26.12" height="2.14" transform="translate(249.81 461.93) rotate(180)" style="fill:#dbdbdb"></rect><rect x="111.84" y="234.74" width="26.12" height="2.14" transform="translate(249.81 471.62) rotate(180)" style="fill:#dbdbdb"></rect><rect x="111.84" y="239.59" width="26.12" height="2.14" transform="translate(249.81 481.32) rotate(180)" style="fill:#dbdbdb"></rect><rect x="90.82" y="149.98" width="7.03" height="35.42" transform="translate(188.68 335.38) rotate(180)" style="fill:#dbdbdb"></rect><rect x="179.9" y="77.13" width="92.1" height="181.13" transform="translate(451.91 335.38) rotate(180)" style="fill:#ebebeb"></rect><path d="M266,252.32H185.88V83.07H266Zm-79.15-1H265V84.07H186.88Z" style="fill:#dbdbdb"></path><rect x="212.89" y="93.65" width="26.12" height="2.14" transform="translate(451.91 189.45) rotate(180)" style="fill:#dbdbdb"></rect><rect x="212.89" y="98.5" width="26.12" height="2.14" transform="translate(451.91 199.14) rotate(180)" style="fill:#dbdbdb"></rect><rect x="212.89" y="103.35" width="26.12" height="2.14" transform="translate(451.91 208.84) rotate(180)" style="fill:#dbdbdb"></rect><rect x="212.89" y="229.9" width="26.12" height="2.14" transform="translate(451.91 461.93) rotate(180)" style="fill:#dbdbdb"></rect><rect x="212.89" y="234.74" width="26.12" height="2.14" transform="translate(451.91 471.62) rotate(180)" style="fill:#dbdbdb"></rect><rect x="212.89" y="239.59" width="26.12" height="2.14" transform="translate(451.91 481.32) rotate(180)" style="fill:#dbdbdb"></rect><rect x="191.87" y="149.98" width="7.03" height="35.42" transform="translate(390.78 335.38) rotate(180)" style="fill:#dbdbdb"></rect><rect x="78.85" y="267.12" width="92.1" height="181.13" transform="translate(249.81 715.37) rotate(180)" style="fill:#ebebeb"></rect><path d="M165,442.31H84.83V273.06H165Zm-79.15-1H164V274.06H85.83Z" style="fill:#dbdbdb"></path><rect x="111.84" y="283.65" width="26.12" height="2.14" transform="translate(249.81 569.44) rotate(180)" style="fill:#dbdbdb"></rect><rect x="111.84" y="288.5" width="26.12" height="2.14" transform="translate(249.81 579.13) rotate(180)" style="fill:#dbdbdb"></rect><rect x="111.84" y="293.35" width="26.12" height="2.14" transform="translate(249.81 588.83) rotate(180)" style="fill:#dbdbdb"></rect><rect x="111.84" y="419.89" width="26.12" height="2.14" transform="translate(249.81 841.92) rotate(180)" style="fill:#dbdbdb"></rect><rect x="111.84" y="424.74" width="26.12" height="2.14" transform="translate(249.81 851.61) rotate(180)" style="fill:#dbdbdb"></rect><rect x="111.84" y="429.59" width="26.12" height="2.14" transform="translate(249.81 861.31) rotate(180)" style="fill:#dbdbdb"></rect><rect x="90.82" y="339.98" width="7.03" height="35.42" transform="translate(188.68 715.37) rotate(180)" style="fill:#dbdbdb"></rect><rect x="179.9" y="267.12" width="92.1" height="181.13" transform="translate(451.91 715.37) rotate(180)" style="fill:#ebebeb"></rect><path d="M266,442.31H185.88V273.06H266Zm-79.15-1H265V274.06H186.88Z" style="fill:#dbdbdb"></path><rect x="212.89" y="283.65" width="26.12" height="2.14" transform="translate(451.91 569.44) rotate(180)" style="fill:#dbdbdb"></rect><rect x="212.89" y="288.5" width="26.12" height="2.14" transform="translate(451.91 579.13) rotate(180)" style="fill:#dbdbdb"></rect><rect x="212.89" y="293.35" width="26.12" height="2.14" transform="translate(451.91 588.83) rotate(180)" style="fill:#dbdbdb"></rect><rect x="212.89" y="419.89" width="26.12" height="2.14" transform="translate(451.91 841.92) rotate(180)" style="fill:#dbdbdb"></rect><rect x="212.89" y="424.74" width="26.12" height="2.14" transform="translate(451.91 851.61) rotate(180)" style="fill:#dbdbdb"></rect><rect x="212.89" y="429.59" width="26.12" height="2.14" transform="translate(451.91 861.31) rotate(180)" style="fill:#dbdbdb"></rect><rect x="191.87" y="339.98" width="7.03" height="35.42" transform="translate(390.78 715.37) rotate(180)" style="fill:#dbdbdb"></rect><rect x="280.95" y="77.13" width="92.1" height="181.13" transform="translate(654.01 335.38) rotate(180)" style="fill:#ebebeb"></rect><path d="M367.08,252.32H286.93V83.07h80.15Zm-79.15-1h78.15V84.07H287.93Z" style="fill:#dbdbdb"></path><rect x="313.94" y="93.65" width="26.12" height="2.14" transform="translate(654.01 189.45) rotate(180)" style="fill:#dbdbdb"></rect><rect x="313.94" y="98.5" width="26.12" height="2.14" transform="translate(654.01 199.14) rotate(180)" style="fill:#dbdbdb"></rect><rect x="313.94" y="103.35" width="26.12" height="2.14" transform="translate(654.01 208.84) rotate(180)" style="fill:#dbdbdb"></rect><rect x="313.94" y="229.9" width="26.12" height="2.14" transform="translate(654.01 461.93) rotate(180)" style="fill:#dbdbdb"></rect><rect x="313.94" y="234.74" width="26.12" height="2.14" transform="translate(654.01 471.62) rotate(180)" style="fill:#dbdbdb"></rect><rect x="313.94" y="239.59" width="26.12" height="2.14" transform="translate(654.01 481.32) rotate(180)" style="fill:#dbdbdb"></rect><rect x="292.92" y="149.98" width="7.03" height="35.42" transform="translate(592.88 335.38) rotate(180)" style="fill:#dbdbdb"></rect><rect x="280.95" y="267.12" width="92.1" height="181.13" transform="translate(654.01 715.37) rotate(180)" style="fill:#ebebeb"></rect><path d="M367.08,442.31H286.93V273.06h80.15Zm-79.15-1h78.15V274.06H287.93Z" style="fill:#dbdbdb"></path><rect x="313.94" y="283.65" width="26.12" height="2.14" transform="translate(654.01 569.44) rotate(180)" style="fill:#dbdbdb"></rect><rect x="313.94" y="288.5" width="26.12" height="2.14" transform="translate(654.01 579.13) rotate(180)" style="fill:#dbdbdb"></rect><rect x="313.94" y="293.35" width="26.12" height="2.14" transform="translate(654.01 588.83) rotate(180)" style="fill:#dbdbdb"></rect><rect x="313.94" y="419.89" width="26.12" height="2.14" transform="translate(654.01 841.92) rotate(180)" style="fill:#dbdbdb"></rect><rect x="313.94" y="424.74" width="26.12" height="2.14" transform="translate(654.01 851.61) rotate(180)" style="fill:#dbdbdb"></rect><rect x="313.94" y="429.59" width="26.12" height="2.14" transform="translate(654.01 861.31) rotate(180)" style="fill:#dbdbdb"></rect><rect x="292.92" y="339.98" width="7.03" height="35.42" transform="translate(592.88 715.37) rotate(180)" style="fill:#dbdbdb"></rect><rect x="473.74" y="62.89" width="196.94" height="395.22" transform="translate(1144.42 521) rotate(180)" style="fill:#ebebeb"></rect><polygon points="670.68 458.11 680.09 458.11 680.09 51.52 670.68 62.89 670.68 458.11" style="fill:#dbdbdb"></polygon><rect x="496.55" y="85.66" width="151.33" height="223.22" transform="translate(1144.42 394.54) rotate(180)" style="fill:#fff"></rect><path d="M646.67,399.34a410.45,410.45,0,0,1,0,58.26,411.94,411.94,0,0,1,0-58.26Z" style="fill:#c7c7c7"></path><path d="M497.75,458.17c-.8-41.29-.91-86.46-1-127.84v-1h1c40.64.1,85,.21,125.53,1-30.16.56-64,.84-94.15.91l-31.38.09,1-1-.09,32c-.07,30.72-.34,65.16-.91,95.88Z" style="fill:#c7c7c7"></path><polygon points="473.74 62.89 670.68 62.89 680.09 51.52 473.74 51.52 473.74 62.89" style="fill:#c7c7c7"></polygon><rect x="625.83" y="325.02" width="22.04" height="50.13" style="fill:#dbdbdb"></rect><polygon points="631.07 336.01 631.07 347.38 647.87 345.74 647.87 336.01 631.07 336.01" style="fill:#c7c7c7"></polygon><rect x="631.08" y="330.33" width="29.22" height="11.37" style="fill:#dbdbdb"></rect></g><g id="freepik--speech-bubble--inject-40"><path d="M426,68.38a43,43,0,0,1-71.9,27.22l-21.52,3.15,10.77-18.61a42.5,42.5,0,0,1-2.95-20.72,43,43,0,0,1,85.6,9Z" style="fill:#fff"></path><path d="M426,68.38a43.31,43.31,0,0,1-8.69,21.81,47.52,47.52,0,0,1-3.9,4.49,49.1,49.1,0,0,1-4.54,3.85,42.37,42.37,0,0,1-10.38,5.77A43.12,43.12,0,0,1,387,107.07a42.65,42.65,0,0,1-6,.11,37.3,37.3,0,0,1-6-.62,43.4,43.4,0,0,1-21.29-10.51l.51.16-21.5,3.3-1.56.24.79-1.38,10.7-18.64-.05.73a43.53,43.53,0,0,1,2.65-38.35,44.05,44.05,0,0,1,13.48-14.35,43.77,43.77,0,0,1,37.82-5.09,44,44,0,0,1,16.6,10.17A43.31,43.31,0,0,1,426,68.38Zm0,0a42.58,42.58,0,0,0-48.8-46.57,42.29,42.29,0,0,0-17.77,7,44.45,44.45,0,0,0-12.88,14,42.52,42.52,0,0,0-5.46,18.21,43.06,43.06,0,0,0,3,18.75l.16.38-.21.35L333.28,99.14,332.51,98l21.54-3,.3,0,.21.2a42.35,42.35,0,0,0,20.61,10.61,35.7,35.7,0,0,0,5.84.71,39.8,39.8,0,0,0,5.88,0,42.43,42.43,0,0,0,11.5-2.53,40.06,40.06,0,0,0,10.38-5.59,49.8,49.8,0,0,0,4.54-3.79,47.15,47.15,0,0,0,3.91-4.45A43.29,43.29,0,0,0,426,68.38Z" style="fill:#263238"></path><path d="M361.08,63.87a4,4,0,1,0,4-4A4,4,0,0,0,361.08,63.87Z" style="fill:#263238"></path><path d="M380.07,63.87a4,4,0,1,0,4-4A4,4,0,0,0,380.07,63.87Z" style="fill:#263238"></path><path d="M399.07,63.87a4,4,0,1,0,4-4A4,4,0,0,0,399.07,63.87Z" style="fill:#263238"></path></g><g id="freepik--character-2--inject-40"><path d="M264.86,280.08s.1.4.3,1.15l.11.45,0,.13a3.26,3.26,0,0,1,.11.4c.11.41.23.89.38,1.43.07.26.14.55.21.86.67,2.55,1.61,6.13,2.76,10.57.14.52.27,1.06.42,1.6a3.58,3.58,0,0,1,.09.35c.91,3.5,1.94,7.46,3.08,11.8.24.9.48,1.82.71,2.75q1.45,5.61,3.1,11.92c.07.25.14.51.2.77,2,7.66,4.15,16,6.44,24.82,6.72,25.92,14.43,55.7,21.42,83,.24.92.47,1.84.72,2.76.09.32.18.66.25,1,.21.8.41,1.6.6,2.39.13.44.23.89.36,1.34l.54,2.1v0c.73,2.8,1.43,5.59,2.13,8.32h0c.16.61.3,1.2.46,1.8h0c.54,2.11,1.08,4.2,1.61,6.25H398c-9.52-33.88-22.11-75.76-32.71-110.37-11.68-38.22-20.94-67.59-20.94-67.59Z" style="fill:#455a64"></path><path d="M276.62,280.08c17.18,58.79,33.26,118.6,47.85,178.08-17.19-58.78-33.25-118.59-47.85-178.08Z" style="fill:#263238"></path><path d="M342.44,280.08c-5.52,42.7-25.49,113.63-33.16,171.71-17.93-70.37-44.43-171.71-44.43-171.71Z" style="opacity:0.1"></path><path d="M219.51,458h88.56L317,359.63c4.77-2.21,12.56-5.86,12.56-5.86s5.44-28.69,8.75-48.68v0c2.06-12.41,3.75-22.72,4.08-24.65,0-.14,0-.22,0-.28v-.05H239.58s-10,43.52-10.88,58.32c-.28,4.75,1.28,19,1.28,19Z" style="fill:#455a64"></path><path d="M336.56,350.54c-11.47,3.7-22.57,9-33.2,14.68a.37.37,0,0,0,.29.68c11.18-4.54,22.57-8.87,33.48-14A.73.73,0,0,0,336.56,350.54Z" style="fill:#263238"></path><path d="M249.73,329.21c1-.42,18.76-.38,26.65-8.32,7.21-7.27,9.44-27.74,9.59-27.77a.27.27,0,0,1,.31.12c.28.43,1,16.42-7.37,28.22-5.93,8.32-26.89,8.8-29.17,8.44C249.34,329.83,249.44,329.33,249.73,329.21Z" style="fill:#263238"></path><path d="M354.37,320.17c-.84-.68-4.86-1.29-8.76-8.92a41.18,41.18,0,0,1-3.3-9.49c-.45-2-1.91-11.51-2-11.56s-.09,0-.11.13c-.14.66.76,9.4,1.16,11.64.75,4.21,1.75,8.07,3.37,10.94,3.76,6.64,8.83,8.34,9.7,7.9C354.56,320.73,354.49,320.27,354.37,320.17Z" style="fill:#263238"></path><path d="M331.18,291.16c-.05-.29-.56-.31-.53,0,1,9.93,1.19,18.72,1.23,28.08,0,4.35-1.22,28.48-8.85,27.45-1.28-.17-2-1.35-2.41-3.21-.44-2.25.15-5.11.31-7.4.36-5.06.56-10.12.51-15.2a137.19,137.19,0,0,0-2.95-28.14.24.24,0,0,0-.48.08c1.23,13,2.11,26,1.38,39.09-.35,6.28-2.59,15.9,4,16.24s9.49-15.66,9.89-20C334.38,316,333.26,303.13,331.18,291.16Z" style="fill:#263238"></path><path d="M323.29,347.31a40.52,40.52,0,0,0-1.22,5.09,11.34,11.34,0,0,0-.31,4.13c.05.26.4.25.52.06a14.32,14.32,0,0,0,1.37-4.11c.42-1.58.88-3.15,1.26-4.74A.84.84,0,0,0,323.29,347.31Z" style="fill:#263238"></path><path d="M247.17,283.87c-1.46,10.59-6,41.83-7.19,51.87a25.65,25.65,0,0,0-.21,4.63c.12,6.39.07,12.73,0,19.08-3,31.73-6.61,66.92-10.53,98.52,2.24-31.73,5.47-67,8.64-98.62C238,352.63,238,345,238,338c2.25-18.16,5.77-36.12,9.13-54.1Z" style="fill:#263238"></path><path d="M304.74,197c18.3,37,38.91,75.64,54.4,78.83,13,2.68,41.61,4.07,77.77,1.71,6.69-.44-11.56-51.85-16.19-50.94-12.32,2.42-49.4,2.9-51.11,1.33-2.24-2.07-28.42-28.88-46.58-46C298.59,159,295.27,177.87,304.74,197Z" style="fill:#eb9481"></path><path d="M429.1,277.24c5.65.75,31.84,1.89,39.2.57s28.26-6.62,27.82-12.36-6.67-4.67-6.67-4.67,8.47-3.64,7.51-9.38-10.63-3.76-10.63-3.76,8.43-4.37,7.06-10-10.75-2-10.75-2,7.9-3.64,4.81-7.82c-3.72-5-17.51,3.32-25.74,4.16-1.87.19-38.17,1.17-38.17,1.17Z" style="fill:#eb9481"></path><path d="M483.45,235.29c-10.15,6.12-15.65,7-27.32,6.79-.23,0-.29.34-.05.36,11.4,1.28,18.47,1.12,27.7-6.68C484.23,235.38,483.94,235,483.45,235.29Z" style="fill:#263238"></path><path d="M487.13,247.14c-11.1,5.44-17.06,6.49-29.3,7.13-.17,0-.18.31,0,.31,12.06.37,19.11,0,29.49-6.83C487.79,247.44,487.64,246.9,487.13,247.14Z" style="fill:#263238"></path><path d="M488.82,260.79c-11.13,4.49-17.61,5.92-29.57,5a.22.22,0,0,0-.06.44c12.11,2.1,20.21.37,29.73-5.11C489.57,260.77,489.52,260.51,488.82,260.79Z" style="fill:#263238"></path><path d="M416.42,229.18s12-8.76,18.11-11.45,32.61-4.31,33.29,1.39c.87,7.36-14.24,11.31-21.89,12.28,0,0,2,17-8.2,22.21S416.42,229.18,416.42,229.18Z" style="fill:#eb9481"></path><path d="M467.39,221.22c-4,7.29-14.17,7.91-21.52,9.4a.7.7,0,0,0-.5,1c.38,7.19-1.19,17.45-7.19,22.11a.18.18,0,0,0,.19.3c7.12-4.13,9.48-14.09,8.56-21.94,7.57-1.41,17.7-2.48,20.54-10.85C467.48,221.21,467.42,221.17,467.39,221.22Z" style="fill:#263238"></path><path d="M415.91,226.38l12.28,55.14s-56.33,1.28-73.2-6c-12.64-5.43-41.13-51.74-52.45-81.87-11.58-30.81,7.57-25.88,20.1-13s46.48,45.57,47.63,45.91S415.91,226.38,415.91,226.38Z" style="fill:#203960"></path><path d="M408.48,252.83q-1.34-5.93-2.75-11.86c-.94-3.92-1.74-7.94-3-11.8-.06-.17-.35-.15-.32,0,.48,3.87,1.4,7.74,2.16,11.57q1.22,6.1,2.49,12.18c1.68,8,3.67,16,5.78,23.9.05.2.32.11.29-.08C411.79,268.76,410.29,260.78,408.48,252.83Z" style="fill:#263238"></path><path d="M302.54,193.7c11.32,30.12,39.81,76.43,52.46,81.86,10.28,4.41,35.18,5.65,53.07,6L306.51,170.78C299.58,169.74,295.69,175.47,302.54,193.7Z" style="opacity:0.1"></path><path d="M181.43,276.34c-4.1,14.54-12.44,23.4-16.06,26.14s-14.49,6.28-14.68,6.95,7.3,7.67,7.81,7.88,9.71-5.3,15.9-10.46,12.31-26.91,12.31-26.91Z" style="fill:#263238"></path><path d="M234.16,299.44c5.74-4.35,11-32.58,22.34-61.29s26.77-63,25.2-65.39c-2.35-3.58-23.07-2.95-31.6,2.68-10.81,7.14-31,30.45-31,30.45s-11,5.11-14.14,10.29c-.83,1.36-2.87,6-5.42,12.14-.71,1.71-7.62,5.72-8.4,7.63-4.46,11-8.9,21.12-12.09,30-1.84,5.1,2.33,9.9,2.43,10.43.44,2.18,3.32,22.93,6.15,25.58S210.88,317.08,234.16,299.44Z" style="fill:#37474f"></path><g style="opacity:0.8"><path d="M227.62,287.34c1.12-4.35.76-3,1.87-7.34s2.35-8.53,3.28-12.83c.1-.49.19-.9-.38-1.23a13.68,13.68,0,0,0-3.54-.85q-4.44-.94-8.91-1.73c-6.17-1.09-13.13-2.22-19.4-2.78-.59-.05-.76.66-.16.73a282,282,0,0,1,29.48,4.79c.52.11,1.73.25,2,.69a4.25,4.25,0,0,1-.25.95l-.75,2.85q-.75,2.84-1.49,5.69c-1,3.8-.54,1.87-1.53,5.66q-.69,2.61-1.37,5.23c-.24.95-.49,1.9-.73,2.85-.13.47-.21,1-.37,1.42a2.21,2.21,0,0,1-1.86,1.67c-2,.56-4.2.84-6.25,1.25l-7,1.38a17.51,17.51,0,0,1-3.72.67c-1.3-.05-2.43-1.45-3.25-2.14l-7.53-6.4a9,9,0,0,1-1.88-2.29c-.48-.93,4.78-20.74,6.64-24.74.08-.19-.48-.35-.56-.16-1.72,3.78-7.65,22.5-7.76,24.46-.09,1.66,1.44,2.69,2.78,3.82l5.66,4.78c1,.82,1.95,1.66,2.94,2.47a4.43,4.43,0,0,0,2.42,1.26,9.57,9.57,0,0,0,2.67-.38l4-.82,7.82-1.59c1.73-.35,4.46-.48,5.45-1.85a6.13,6.13,0,0,0,.73-2.17C227,289.56,227.33,288.45,227.62,287.34Z" style="fill:#263238"></path><path d="M231.26,268.27c-5.61,1.7-11.25,3.35-17,4.77-.75.19-1.49.38-2.23.54a2.76,2.76,0,0,1-3-.82c-.94-.85-1.85-1.73-2.79-2.58-2.17-2-4.36-3.89-6.54-5.84-.16-.15-.47,0-.31.17,2.22,2.31,4.45,4.62,6.75,6.89,1.57,1.55,3,3.72,5.81,3.11,3.22-.7,6.38-1.74,9.49-2.69,3.35-1,6.66-2.16,9.88-3.4C231.45,268.38,231.39,268.23,231.26,268.27Z" style="fill:#263238"></path><path d="M212.63,271.13a1.18,1.18,0,0,0-.55-1,1.93,1.93,0,0,0-1.56,0c-.23.08-.1.37.13.29a1.26,1.26,0,0,1,.64-.1.74.74,0,0,1,.26.1.44.44,0,0,1,.12.11,1.67,1.67,0,0,1,.12.23.56.56,0,0,1,0,.12s0,.05,0,.05a2,2,0,0,1,0,.55.84.84,0,0,1-.67.68.56.56,0,0,1-.57-.14.94.94,0,0,1-.2-.57c0-.05-.11-.06-.12,0a.85.85,0,0,0,.41.93,1.38,1.38,0,0,0,1.28-.14A1.23,1.23,0,0,0,212.63,271.13Z" style="fill:#263238"></path></g><path d="M199.16,229.29s-6.07,18.13-6.33,20-6.78,22-8.36,23.07a9.64,9.64,0,0,0-2.28,2.18" style="fill:#263238"></path><path d="M219.05,205.89s-10.55,22.91-11.4,24.5-9.76,22.93-11,24.75-4.35,5.67-5.18,6.15" style="fill:#263238"></path><path d="M358,317.83l-129.43.82c-.05,0,.68-3.48,2-9.27,0,0-4.87-9.64-3.54-15.15,8.87-36.56,33.75-103.82,46.63-120.92,8.92-11.85,32.95-11,41.95,4.3s35.44,79.58,44.92,115.74c.85,3.28-5.49,15.25-5.49,15.25C357.27,317.06,358,317.83,358,317.83Z" style="fill:#fff"></path><path d="M358,317.83c-.25-.11-129.54,1.37-129.68,1.06a.48.48,0,0,1-.07-.44l0-.15.06-.3.12-.59.24-1.16c.26-1.36,1.24-5.52,1.55-6.95a37.45,37.45,0,0,1-3.45-9.72,13.79,13.79,0,0,1-.12-5.36l1.29-5.08c5.33-20.28,12.06-40.17,19.34-59.82,6.82-17.93,13.8-36,23.54-52.6l1.48-2.19a20,20,0,0,1,10.3-8.11c10-3.53,22.05-1.3,29.64,6.25,4.91,5.08,7.29,12,10.44,18.2a811.31,811.31,0,0,1,33.81,88c1.39,4.57,2.74,9.23,4,13.85l.17.63.07.68c-.59,5.24-3.37,9.94-5.63,14.61.85,2.94,1.51,6.35,2.91,9.21Zm0,0a54.12,54.12,0,0,1-3-9.24c2.21-4.65,4.94-9.4,5.5-14.58l-.08-.63-.17-.63c-1.27-4.6-2.65-9.25-4.08-13.8a851.34,851.34,0,0,0-34.13-87.79c-3.13-6.12-5.49-12.93-10.34-17.95-7.35-7.29-19.15-9.45-28.81-6a19.07,19.07,0,0,0-9.86,7.82l-1.45,2.15c-2.57,4.42-5.21,9.22-7.32,13.84a646.92,646.92,0,0,0-35.58,98.3l-1.29,5.07a13,13,0,0,0,.11,5,40.58,40.58,0,0,0,3.39,9.77l0,.12,0,.13c-.25,1.25-1.31,5.65-1.56,6.93l-.25,1.16-.12.58-.05.28,0,.14v.06c-2.26-.77,129.53-.56,129.08-.78Z" style="fill:#263238"></path><polygon points="230.61 309.38 228.59 318.65 358.02 317.82 355.08 308.6 230.61 309.38" style="fill:#203960"></polygon><path d="M305,181.14q14,47.24,25.16,95.21c.83,4,2,8,2.38,12.18,0,4.19-1.07,8.24-2.1,12.24-.73,2.64-1.55,5.26-2.47,7.83,1.64-6.56,3.56-13.23,3.43-20-.55-4-1.84-7.92-2.76-11.87-8-30.8-16.76-64.68-23.64-95.58Z" style="fill:#c7c7c7"></path><path d="M306.72,201.87a2.65,2.65,0,0,1-5.29,0,2.65,2.65,0,0,1,5.29,0Zm0,0a2.15,2.15,0,0,0-4.29,0,2.15,2.15,0,0,0,4.29,0Z" style="fill:#c7c7c7"></path><path d="M312.14,226.7a2.64,2.64,0,0,1-5.28,0,2.64,2.64,0,0,1,5.28,0Zm0,0a2.14,2.14,0,0,0-4.28,0,2.14,2.14,0,0,0,4.28,0Z" style="fill:#c7c7c7"></path><path d="M317.57,251.53a2.65,2.65,0,0,1-5.29,0,2.65,2.65,0,0,1,5.29,0Zm0,0a2.15,2.15,0,0,0-4.29,0,2.15,2.15,0,0,0,4.29,0Z" style="fill:#c7c7c7"></path><path d="M323,276.36a2.65,2.65,0,0,1-5.29,0,2.65,2.65,0,0,1,5.29,0Zm0,0a2.15,2.15,0,0,0-4.29,0,2.15,2.15,0,0,0,4.29,0Z" style="fill:#c7c7c7"></path><path d="M324.82,299.75a2.65,2.65,0,0,1-5.29,0,2.65,2.65,0,0,1,5.29,0Zm0,0a2.15,2.15,0,0,0-4.29,0,2.15,2.15,0,0,0,4.29,0Z" style="fill:#c7c7c7"></path><path d="M307.53,183.68c-6.72,3.89-20.32-5.08-25.81-13.85-.38-.61-.91-25.29-1.2-30.27-.06-1,31.66,5.76,31.66,5.76s-2.46,10.61-1.89,19.28a10.5,10.5,0,0,0,.33,2c0,.1.05.21.07.34C311.54,170.81,311,181.69,307.53,183.68Z" style="fill:#eb9481"></path><path d="M310.69,167a19.34,19.34,0,0,1-3.2.35c-16.4.6-23.45-19.09-25.77-27.8,5.77.52,30.47,5.79,30.47,5.79s-2.47,10.61-1.9,19.3a10.39,10.39,0,0,0,.33,2C310.63,166.72,310.68,166.84,310.69,167Z" style="fill:#263238"></path><path d="M273.08,104.17c-2.42,11.34,6.16,42.75,14.63,49.19,12.27,9.34,31,8.72,38.59-5.73,7.36-14-4.55-54.74-13.88-60.45C298.67,78.77,276.65,87.43,273.08,104.17Z" style="fill:#eb9481"></path><path d="M304,121.7c0-.08-.14.14-.12.23.6,2.11.93,4.63-.82,5.81,0,0,0,.15.05.12C305.35,126.94,304.87,123.6,304,121.7Z" style="fill:#263238"></path><path d="M301.51,120c-3.48.59-2,7.53,1.19,7S304.44,119.45,301.51,120Z" style="fill:#263238"></path><path d="M316.12,119.37c0-.08.19.07.2.16.39,2.16,1.18,4.57,3.27,4.88.07,0,.09.12,0,.12C317.16,124.69,316.13,121.48,316.12,119.37Z" style="fill:#263238"></path><path d="M317.57,116.73c3.4-1,5.11,5.89,2,6.8S314.72,117.55,317.57,116.73Z" style="fill:#263238"></path><path d="M297.82,117.24c1-.24,1.82-.61,2.75-.94a4.68,4.68,0,0,0,2.63-1.49A1.5,1.5,0,0,0,303,113a3.73,3.73,0,0,0-3.74-.43,5.44,5.44,0,0,0-3.17,2.32A1.6,1.6,0,0,0,297.82,117.24Z" style="fill:#263238"></path><path d="M319.37,113.05a25.48,25.48,0,0,1-2.9-.13,4.69,4.69,0,0,1-2.94-.69,1.49,1.49,0,0,1-.3-1.8A3.71,3.71,0,0,1,316.7,109a5.45,5.45,0,0,1,3.69,1.34A1.6,1.6,0,0,1,319.37,113.05Z" style="fill:#263238"></path><path d="M306,142.36c.62.39,1.28,1,2.07.88a5.75,5.75,0,0,0,2.2-1,.07.07,0,0,1,.11.09,3,3,0,0,1-2.48,1.74,2.33,2.33,0,0,1-2.08-1.55C305.73,142.38,305.88,142.3,306,142.36Z" style="fill:#263238"></path><path d="M307.28,135.16a7.47,7.47,0,0,0,5.56,2.23,9.24,9.24,0,0,0,2.65-.43,2.56,2.56,0,0,0,.49-.16l.46-.17a.55.55,0,0,0,.33-.57v0a1.72,1.72,0,0,0-.07-.21v0l-.05-.19c-.3-1.66-1-4.14-1-4.14.67.18,4,.92,3.8.07-1.91-7.06-4.05-14.91-7.45-21.53a.2.2,0,0,0-.38.13c1.58,6.86,4.35,13.4,6,20.26a13,13,0,0,0-3.67-.33c-.22.12,1.41,4.77,1.48,5.53a.28.28,0,0,1,0,.08c-2.71.94-5,.53-8.06-.77C307.26,134.83,307.12,135,307.28,135.16Z" style="fill:#263238"></path><path d="M314.18,137a9,9,0,0,1-3.26,3.15,4,4,0,0,1-2.41.41c-1.81-.27-2-1.88-1.86-3.29a9.6,9.6,0,0,1,.56-2.2A11.61,11.61,0,0,0,314.18,137Z" style="fill:#263238"></path><path d="M310.92,140.1a4,4,0,0,1-2.41.41c-1.81-.27-2-1.88-1.86-3.29C308.56,137.21,310.56,138.28,310.92,140.1Z" style="fill:#ff98b9"></path><path d="M320.88,97.69c-9.23,10.53-27.51,2.84-27.51,2.84A12.55,12.55,0,0,1,283,111.39s2.64,19.51-2.36,20.75c-7.62,1.9-16.58-23.34-15.47-29s7.22-8.64,7.22-8.64-.53-4.06,3.26-8.86c4.18-5.3,23.48-4.53,23.48-4.53a17.23,17.23,0,0,1,3-7.37,4.86,4.86,0,0,1,6.94-1.11,11.56,11.56,0,0,0-.64,5.14c.52,5.77,5.05,4.61,3.73-.41a8.15,8.15,0,0,0-3.09-4.73c1.39-3.86,4.77-5.87,7.44-4.67C321.34,70.1,328.56,88.94,320.88,97.69Z" style="fill:#263238"></path><path d="M280.39,105.67a.25.25,0,1,0-.44.24A50.51,50.51,0,0,1,284,117.15c.74,3.89,1.17,14-4.61,14.3a.22.22,0,0,0,0,.44c4.06.81,5.37-4.47,5.74-8C285.77,117.5,283.37,111.17,280.39,105.67Z" style="fill:#263238"></path><path d="M316.15,67.76s-.08,0,0,.06c7.68,5.89,11.77,16,8.5,25.5-4.1,11.92-19.36,8.81-28.57,6.53-.45-.11-.68.57-.23.69,9,2.48,24.42,5.23,29.06-5.84C329,84.83,324.6,73.62,316.15,67.76Z" style="fill:#263238"></path><path d="M274,94c-7.28,2.71-11.72,7.61-10.43,15.72A29.85,29.85,0,0,0,277,129.69a.3.3,0,0,0,.33-.51c-5-3.88-9.24-8.49-11.55-14.51-1.71-4.45-2.47-9.71-.16-14.12,1.66-3.16,5.47-4.8,8.52-6.24C274.3,94.22,274.16,94,274,94Z" style="fill:#263238"></path><path d="M301.77,82.12c-10.79-3.34-30.65-4-29.33,12.23,0,.13.24.11.23,0-.43-16.51,18.28-13.83,29-11.77C301.94,82.61,302,82.19,301.77,82.12Z" style="fill:#263238"></path><path d="M284.4,128.14s-8.11-9.69-12.57-6.72,2.26,17.47,7.93,19a5.61,5.61,0,0,0,7.23-3.65Z" style="fill:#eb9481"></path><path d="M273.86,125.53a.08.08,0,0,0,0,.15c4,1.23,6.33,4.63,8.07,8.21-1.27-1.33-2.9-2-4.69-.45-.09.08,0,.23.12.2a3.47,3.47,0,0,1,3.89.87,16.72,16.72,0,0,1,2.08,2.91c.21.33.82.09.65-.3l0-.08C283.59,132.11,279.18,125.57,273.86,125.53Z" style="fill:#263238"></path><path d="M280.52,169.8c-.46-.7-1.71-10.29-1.07-11,.8-.92,18.64,12,21.18,13.78s5.14,10.75,5.14,10.75.49-9.46,1.19-10.69,4.14-6.13,4.44-6.13.41,10.09.23,11.26-1.87,6.54-5.6,7.29C301.58,185.92,289.06,182.65,280.52,169.8Z" style="fill:#203960"></path><path d="M232.66,286c1.5-1.52,45.65-60.87,52.23-92.07C289.2,173.43,272.77,177,272.77,177l2.61-6.06s5.86-2.92,17.21,6.62C313.35,195,261.23,280.15,229.2,298.11Z" style="fill:#263238"></path><path d="M260.65,184.45c-31.85,42.18-66.93,101.41-56.21,116.19,11.94,16.45,52.66-22.92,53.85-25.76C259.63,271.69,274.51,232,281,195,288,154.34,268.52,174,260.65,184.45Z" style="fill:#eb9481"></path><path d="M260.65,184.45c-31.85,42.18-66.93,101.41-56.21,116.19,11.94,16.45,52.66-22.92,53.85-25.76C259.63,271.69,274.51,232,281,195,288,154.34,268.52,174,260.65,184.45Z" style="fill:#203960"></path><path d="M258.29,274.88c7.09-25,15.89-50.74,22-76-1.47,13.15-5,26-8.7,38.65a388.51,388.51,0,0,1-13.26,37.33Z" style="fill:#263238"></path><path d="M281.22,204.23a23.46,23.46,0,0,1-4,11.08,63.24,63.24,0,0,1,4-11.08Z" style="fill:#263238"></path><path d="M212.68,304c14.23,3.17,46.51-5.83,95.79-35.95,6.82-4.17-28-49.42-35.55-45.34-9.46,5.13-45.06,27.11-47.46,29.05C205.21,268.05,203,301.81,212.68,304Z" style="fill:#eb9481"></path><path d="M255.26,246.85s2-2.8,10.33-19.32c5.75-11.42,27-35.58,62.82-32.24,13.71,1.27,18.8,11.45,4.33,12.65-10.2.85-17.34.56-20.59,1.77,0,0,13,8.71,13.28,17.78a167.71,167.71,0,0,1-1,23.75,34.65,34.65,0,0,1-4.46.21A19.09,19.09,0,0,1,308.09,268Z" style="fill:#eb9481"></path><path d="M272.82,217.5c6.2-2.53,19.45-7.67,31.74-8.11,13.66-.49,40.1,2.26,40.35,12.34.19,7.4-10,7.24-10,7.24s10.68,3.43,9.39,10.15c-1.17,6.12-9.05,5.53-9.05,5.53s6.13,3.2,3.86,8.87c-2.73,6.83-15.12-1-23.86,3.54C313.3,258.07,272.82,217.5,272.82,217.5Z" style="fill:#eb9481"></path><path d="M302.67,223.91c6.23-1.43,21.2-1,32.1,4.81.25.14.28.39,0,.32a134.15,134.15,0,0,0-32.13-5C302.6,224,302.6,223.92,302.67,223.91Z" style="fill:#263238"></path><path d="M303.56,237.68c5.5-.68,20.91.42,31.76,6.72.24.14.26.4,0,.32a143.64,143.64,0,0,0-31.77-6.91A.07.07,0,0,1,303.56,237.68Z" style="fill:#263238"></path><path d="M261.78,227.78l35.42,52.48s-75.95,33.67-86.91,23.62,1.21-42.77,12.92-51.51S261.78,227.78,261.78,227.78Z" style="fill:#203960"></path><path d="M218.42,261.65c1.49-2.17,4.63-9,12.18-14.73,6.59-5,26.2-17,31.33-19,.13-.05.2.07.07.14-4.3,2.59-23.06,14.4-30.14,19.66-7.4,5.5-11.74,12.05-13.28,14C218.5,261.81,218.35,261.75,218.42,261.65Z" style="fill:#263238"></path><path d="M280.12,280.55a120.08,120.08,0,0,0-6.26-10.29c-2.22-3.51-4.55-6.94-6.86-10.39S255,243,252.55,239.59a.14.14,0,0,0-.24.16c2.21,3.52,11,17.45,13.29,20.82s4.54,6.76,6.92,10.07,4.71,6.9,7.44,10C280,280.69,280.17,280.64,280.12,280.55Z" style="fill:#37474f"></path><path d="M294.52,276.24c1,1.36,2.09,2.73,3.1,4.12l-.31.15a293.72,293.72,0,0,1-54.75,21.21,117.2,117.2,0,0,1-19.27,3.59c25.37-6.05,49.41-16.18,73.79-25.31l-.12.41c-.83-1.37-1.64-2.77-2.44-4.17Z" style="fill:#263238"></path></g><g id="freepik--character-3--inject-40"><path d="M335.45,458H414c1.8-7.14,3.79-15,5.89-23.27.68-2.65,1.35-5.34,2-8.06v0c.09-.32.17-.66.26-1q.62-2.4,1.23-4.83c.41-1.62.82-3.26,1.24-4.9s.84-3.3,1.26-4.95.82-3.25,1.24-4.88l4.53-17.84c.45-1.79.91-3.59,1.37-5.38q1.69-6.66,3.37-13.25c.28-1.09.55-2.19.84-3.28q1.25-4.92,2.47-9.74c.28-1.06.54-2.13.81-3.19.43-1.7.87-3.38,1.29-5.05q.9-3.58,1.8-7.08c.2-.78.4-1.55.59-2.32.35-1.36.68-2.71,1-4,0-.17.09-.35.13-.52.21-.81.41-1.62.62-2.42.55-2.16,1.1-4.29,1.62-6.38l.54-2.13c1.1-4.25,2.13-8.31,3.1-12.13.15-.59.29-1.18.44-1.76.06-.22.12-.45.17-.67.42-1.61.82-3.19,1.2-4.71.15-.58.3-1.13.43-1.69,0-.09,0-.16.07-.24.18-.73.36-1.45.54-2.15s.32-1.24.47-1.84c.38-1.45.72-2.84,1.06-4.16.15-.6.3-1.17.44-1.74.09-.29.16-.6.24-.89.14-.57.28-1.13.42-1.67s.27-1.06.4-1.58c.45-1.77.86-3.34,1.2-4.7l.41-1.6c.22-.88.42-1.63.57-2.24,0-.17.08-.34.12-.49s.11-.41.15-.58.07-.25.1-.36c.07-.27.1-.42.1-.42H386.19S352.41,394.21,335.45,458Z" style="fill:#263238"></path><path d="M402,458h2.12q1.62-6.45,3.23-12.89,4.06-16.21,8.12-32.43L420.65,392q2.18-8.73,4.35-17.46c5.91-23.85,11.82-47.74,17.16-71.74.33-1.45.66-2.91,1-4.36.25-1.06.48-2.13.71-3.19a.11.11,0,0,0-.22-.06c-.24.87-.49,1.73-.73,2.6-.37,1.31-.74,2.63-1.09,3.95-5.89,21.18-11.34,42.51-16.69,63.83q-2.37,9.44-4.74,18.89-2.92,11.67-5.84,23.37Q411,422,407.46,436.11,404.75,447,402,458Z" style="fill:#37474f"></path><path d="M459.81,277.83S436.32,369.89,419.9,434.7L388.57,277.83Z" style="fill:#37474f"></path><path d="M388.57,277.79v0c0,.49.07,4.32.31,10q.06,1.5.15,3.18c.77,15.55,2.8,40.57,8,50.55.21.41.43.79.66,1.15a1.94,1.94,0,0,0,.15.24s.64.23,1.84.72l.07,0c.59.24,1.3.54,2.14.91,2.91,1.26,7.3,3.33,12.76,6.37q2.18,1.2,4.55,2.63s.48,12.79,1.15,30.86c.1,2.42.19,4.94.29,7.54.4,10.67.84,22.64,1.28,34.64v0c.39,10.71.78,21.46,1.13,31.33h76.15c-2-27.89-4.8-65.06-7.45-99.27,0,0,6.92-19.37,6.15-29.15-1.85-23.7-12.48-51.73-12.48-51.73Z" style="fill:#263238"></path><path d="M412.48,327.3c-.29-1.95-.59-3.9-.88-5.85-.55-3.57-1.28-7.11-1.9-10.67-1.42-8.06-2.9-16.16-4.69-24.15a.18.18,0,0,0-.35.05c.32,3.23.69,6.46,1.14,9.67s.78,6.45,1.23,9.66c.9,6.37,1.79,12.75,2.87,19.1.42,2.44,2,6.82-1.57,7.58-2.79.6-4.83-2.14-5.65-4.43a55.78,55.78,0,0,1-1.88-8.8c-.57-3.22-1.07-6.45-1.53-9.68-1-7-2.09-14.07-3.23-21.09,0-.2-.36-.14-.35.06a213.4,213.4,0,0,0,1.56,21.58q.67,5.15,1.54,10.26c.55,3.19.95,6.61,2.36,9.56,1.11,2.31,3.17,4.39,5.82,4.67h.17a.24.24,0,0,0-.11.2c0,1.14,0,2.3.14,3.43s.35,2.26.56,3.37a24.24,24.24,0,0,0,.87,3.35c.19.52.38,1,.62,1.54a14.23,14.23,0,0,0,.91,1.42c.12.2.36.07.37-.12h0a5.24,5.24,0,0,1,0-.56.33.33,0,0,1,0-.1h0a8.55,8.55,0,0,0-.07-1c-.08-.55-.2-1.09-.32-1.63-.24-1.09-.54-2.17-.83-3.24s-.52-2.16-.8-3.24-.65-2.19-.91-3.31a.18.18,0,0,0-.07-.1,5.09,5.09,0,0,0,4.91-3.08A8.86,8.86,0,0,0,412.48,327.3Z" style="fill:#37474f"></path><path d="M425.49,355.26a60.31,60.31,0,0,0-7.31-4.82,70.06,70.06,0,0,0-8.34-4.32c-5.63-2.45-11.43-4.12-17.24-6-.17-.05-.29.24-.12.3,5.63,2.24,11,5.21,16.45,7.87,2.68,1.31,5.38,2.55,8.11,3.76s5.44,2.61,8.24,3.63A.22.22,0,0,0,425.49,355.26Z" style="fill:#37474f"></path><path d="M469.41,311.8c-4,0-17.65-1-21.7-5.54a27.75,27.75,0,0,1-5.07-9.13A88.85,88.85,0,0,1,439.57,286c0-.19-.31-.13-.32,0a43.22,43.22,0,0,0,1.6,12.59c.95,3.47,2.24,7.35,5,9.79s7,3.46,10.74,3.92a49.26,49.26,0,0,0,12.78-.17A.21.21,0,0,0,469.41,311.8Z" style="fill:#37474f"></path><path d="M379.77,312c1.22,0,4.81-2.52,5.24-3.17,3-4.51,3.71-18.83,4-22.59,0-.19.09-.13.09.05,0,4.22-.14,8.52-.49,12.59-.29,3.47-.69,7.35-1.56,9.79s-5.94,4.33-7.25,3.75C379.68,312.38,379.68,312,379.77,312Z" style="fill:#37474f"></path><path d="M474.74,284.05c.11.37,9.74,36.65,9.28,45.46s-5.58,26.5-5.6,26.65S481.07,402,484.33,458h1.89l-5.91-101.6c.22-1.32,5.17-18.16,5.6-26.76.47-9.1-8.93-44.54-9.33-46.05a1,1,0,0,0-1.84.49Z" style="fill:#37474f"></path><path d="M490,286.93H382.31l9.77-32.55s-5.41-10.49-4.84-18.28c1.2-16.25,29.23-54.25,31.46-56.24,9-8,20.72-8.16,27.49-2,20.91,19,31.42,79,31.42,79C485.09,266.89,490,286.93,490,286.93Z" style="fill:#ebebeb"></path><path d="M424.14,248.5a71.67,71.67,0,0,0-14.16.61c-2.36.37-4.7.89-7.06,1.48-1.17.29-2.34.53-3.51.76a11.43,11.43,0,0,1-3.67.27c-.11,0-.14.2,0,.23a19.43,19.43,0,0,0,3.39.52,20.2,20.2,0,0,0,3.37-.25c2.39-.36,4.78-.85,7.18-1.24,4.82-.77,9.64-1.55,14.46-1.86C424.32,249,424.36,248.51,424.14,248.5Z" style="fill:#263238"></path><path d="M434.43,256.06a74.76,74.76,0,0,0-11.22-2.78,50.14,50.14,0,0,0-5.76-.56c-.92,0-1.85-.06-2.77-.07s-2.06.18-3.08.15c-.11,0-.15.22,0,.22,1,.07,1.89.34,2.84.48l2.85.41c1.9.28,3.8.58,5.71.83,3.82.51,7.61,1.06,11.4,1.75C434.57,256.53,434.62,256.12,434.43,256.06Z" style="fill:#263238"></path><path d="M441.81,178.48c-.54,2.06-10.75,15.27-20.21,14.59C418.52,192.85,419,176,419,176l-.25-1.26-3.47-17.54,20.81-12.65,3-1.66s.64,4.86,1.37,10.92c0,.28.07.56.1.86s.1.67.13,1c.12.9.24,1.82.34,2.75.08.7.16,1.38.22,2.12s.13,1.46.2,2.2A115.08,115.08,0,0,1,441.81,178.48Z" style="fill:#d3766a"></path><path d="M440.46,153.8a35.87,35.87,0,0,1-21.71,20.93l-3.47-17.54,20.81-12.65,3-1.66S439.73,147.74,440.46,153.8Z" style="fill:#263238"></path><path d="M392.4,129.34c-4.53,31,13.56,37.27,20.26,38.24,6.08.88,26.89,3.1,34.6-27.32s-5.3-42.34-19.1-45.09S396.92,98.28,392.4,129.34Z" style="fill:#d3766a"></path><path d="M399.21,121.4c.76,0,1.46-.18,2.2-.28a3.61,3.61,0,0,0,2.19-.71,1.14,1.14,0,0,0,.11-1.39,2.84,2.84,0,0,0-2.73-.89,4.2,4.2,0,0,0-2.72,1.26A1.22,1.22,0,0,0,399.21,121.4Z" style="fill:#263238"></path><path d="M420.29,127.31c-.74-.15-1.4-.41-2.12-.63a3.57,3.57,0,0,1-2.05-1.06,1.13,1.13,0,0,1,.12-1.39,2.79,2.79,0,0,1,2.83-.43,4.13,4.13,0,0,1,2.48,1.67A1.22,1.22,0,0,1,420.29,127.31Z" style="fill:#263238"></path><path d="M412.18,151.21c-.54.5-1.09,1.18-1.88,1.22a6,6,0,0,1-2.33-.64.08.08,0,0,0-.1.11,3,3,0,0,0,2.73,1.29,2.32,2.32,0,0,0,1.79-1.87C412.43,151.2,412.26,151.14,412.18,151.21Z" style="fill:#263238"></path><path d="M403.87,141.7s-.84,3.71-1,5.24c0,.14,5.29.91,8.34-2.21.12-.13-.06-.32-.21-.24a11,11,0,0,1-6.81,1.43c-.07-.43,1.46-5.6,1.22-5.64a13.67,13.67,0,0,0-3.56.45c1.39-6.72,3.84-13.17,5.12-19.88,0-.24-.3-.35-.39-.14-3.05,6.58-4.81,14.28-6.43,21.18C400,142.75,403.23,141.9,403.87,141.7Z" style="fill:#263238"></path><path d="M402.53,130.92c0-.08-.18.09-.18.18-.16,2.18-.71,4.65-2.75,5.16-.06,0-.07.13,0,.13C402,136.3,402.73,133,402.53,130.92Z" style="fill:#263238"></path><path d="M400.83,128.45c-3.47-.63-4.47,6.35-1.26,6.93S403.74,129,400.83,128.45Z" style="fill:#263238"></path><path d="M399.41,128.62c-.67.31-1.37.92-2.11.89s-1.4-.87-1.86-1.65c-.05-.08-.11,0-.13.06-.21,1.34.11,2.79,1.51,3.19s2.39-.68,2.92-2C399.84,128.9,399.67,128.5,399.41,128.62Z" style="fill:#263238"></path><path d="M414.75,133.12c0-.08.15.13.14.22-.4,2.15-.49,4.68,1.35,5.69.06,0,0,.14,0,.12C413.87,138.45,414,135.1,414.75,133.12Z" style="fill:#263238"></path><path d="M417,131.16c3.52.26,2.73,7.27-.53,7S414.08,130.94,417,131.16Z" style="fill:#263238"></path><path d="M418.43,131.78c.51.44,1,1.17,1.64,1.29s1.42-.56,2-1.23c.06-.07.11,0,.1.09-.12,1.34-.72,2.69-2,2.8s-1.94-1.14-2.1-2.51C418,132,418.23,131.61,418.43,131.78Z" style="fill:#263238"></path><path d="M444.51,147.41a13.17,13.17,0,0,1-5-12,34.48,34.48,0,0,1-11.34-14c.07.69.59,5.66.93,8.19-19-7.95-21.92-24.44-21.92-24.44-7.81,5-10.33,9.22-11.7,11.06,0,0,2.82-12.53,10.82-19.34,9.79-8.34,19.83-4.21,19.83-4.21A28.68,28.68,0,0,1,451.74,107C461.61,123.75,444.51,147.41,444.51,147.41Z" style="fill:#263238"></path><path d="M414.77,123.09a37.5,37.5,0,0,0,9.37,5.91s.05,0,0,0A31.8,31.8,0,0,1,411.49,117a30.36,30.36,0,0,1-3-6.89,20.82,20.82,0,0,1-1-8.13.16.16,0,0,0-.32,0,24.78,24.78,0,0,0-.1,8.15,22.38,22.38,0,0,0,3,7.51,25.8,25.8,0,0,0,4.71,5.45" style="fill:#263238"></path><path d="M437.14,140.17s7.41-9.38,11.7-6.69-1.67,16.58-7,18.21a5.3,5.3,0,0,1-6.93-3.26Z" style="fill:#d3766a"></path><path d="M447,137.42a.07.07,0,0,1,0,.14c-3.74,1.27-5.86,4.54-7.41,8,1.17-1.28,2.69-1.94,4.43-.54.09.07,0,.22-.12.19a3.26,3.26,0,0,0-3.65.93,15.75,15.75,0,0,0-1.88,2.8c-.19.31-.77.11-.63-.26l0-.09C438,143.9,442,137.6,447,137.42Z" style="fill:#263238"></path><path d="M440.8,99.68c3.59,5.23,30.59,17.75,44.48-5.32,13.68-22.72-15.39-51.76-38-35.44C432.17,69.88,433.18,88.59,440.8,99.68Z" style="fill:#263238"></path><path d="M441.73,174.81c4.38,9.63,5.92,39.59,3.92,63.67s-10.86,97.7-11.1,112.94,61.84,68.46,74.78,64.71,18.25-42-7.68-127.89c-6.82-22.58-27.64-78.81-44.92-101.42C445.73,172.43,441.73,174.81,441.73,174.81Z" style="fill:#203960"></path><path d="M441.73,174.81c4.38,9.63,5.92,39.59,3.92,63.67s-10.86,97.7-11.1,112.94,61.84,68.46,74.78,64.71,18.25-42-7.68-127.89c-6.82-22.58-27.64-78.81-44.92-101.42C445.73,172.43,441.73,174.81,441.73,174.81Z" style="fill:#fff;opacity:0.6000000000000001"></path><g style="opacity:0.1"><path d="M447.06,300.47c3.21,2.16,6.42,4.4,9.46,6.79,2.84,2.22,5.67,4.45,8.62,6.53a74.31,74.31,0,0,0,9,5.54A45,45,0,0,0,484.22,323c.12,0,.14.23,0,.24-11.36.16-21.43-7.66-29.56-14.74-2.75-2.39-5.42-4.92-8-7.49A.32.32,0,0,1,447.06,300.47Z"></path><path d="M447.35,305.24a84.48,84.48,0,0,0,12.2,11.18,69,69,0,0,0,14.22,7.86,93.67,93.67,0,0,0,8.94,3.13.15.15,0,0,1,0,.3c-11.2-.89-22-6.66-29.67-14.73a39.2,39.2,0,0,1-5.84-7.6C447.07,305.24,447.24,305.13,447.35,305.24Z"></path><path d="M447.7,311.32A212.73,212.73,0,0,0,450,335.27a20.4,20.4,0,0,0,2.87,7.5c2.93,4.16,8.05,7.07,12.79,8.68,4.44,1.5,10,2,14-1.07,2.37-1.85,2.7-5,3.11-7.76a66.92,66.92,0,0,0,.77-10.39c0-.15.23-.18.24,0,.17,3.15.27,6.31.16,9.47-.1,2.83-.07,6-1.63,8.48-2.79,4.44-8.66,5.33-13.46,4.58a26.76,26.76,0,0,1-8.47-3,29.46,29.46,0,0,1-6.88-4.94,21.82,21.82,0,0,1-4.31-7c-1.7-3.93-2.69-21.09-1.66-28.43C447.53,311.22,447.69,311.2,447.7,311.32Z"></path></g><path d="M454,178.56c9.83,9.79,31.47,30.74,40.63,92.55l-5.7,2.11s-8.64-56.84-42.17-97.55C446.8,175.67,452.67,177.2,454,178.56Z" style="fill:#203960"></path><g style="opacity:0.5"><path d="M454,178.56c9.83,9.79,31.47,30.74,40.63,92.55l-5.7,2.11s-8.64-56.84-42.17-97.55C446.8,175.67,452.67,177.2,454,178.56Z"></path></g><path d="M440.39,176.53s-18.6,37.58-18.55,100.06l6,1.25s4.29-70.51,19-102.17a15.05,15.05,0,0,0-2.57-.82C440.93,174.53,440.39,176.53,440.39,176.53Z" style="fill:#203960"></path><g style="opacity:0.5"><path d="M440.39,176.53s-18.6,37.58-18.55,100.06l6,1.25s4.29-70.51,19-102.17a15.05,15.05,0,0,0-2.57-.82C440.93,174.53,440.39,176.53,440.39,176.53Z"></path></g><path d="M421.07,274.66c-5.7-.93-19.14,100.87-10.44,112.55,6.78,9.12,71.78,16.81,104-5.65,12.06-8.41-15.66-107.33-18.61-111.06S472,283.05,421.07,274.66Z" style="fill:#203960"></path><path d="M421.07,274.66c-5.7-.93-19.14,100.87-10.44,112.55,6.78,9.12,71.78,16.81,104-5.65,12.06-8.41-15.66-107.33-18.61-111.06S472,283.05,421.07,274.66Z" style="opacity:0.5"></path><g style="opacity:0.1"><path d="M442.44,367.68a146.6,146.6,0,0,1-14.38-3.37,93.55,93.55,0,0,1-.14-12.54c0-.06-.1-.07-.1,0a109.85,109.85,0,0,0-.57,12.3c-1.65-.5-3.29-1-4.93-1.65a112.21,112.21,0,0,1,.32-18.32c0-.17-.25-.23-.27-.06A176.67,176.67,0,0,0,421.12,362c-2-.76-3.91-1.59-5.87-2.53a.11.11,0,1,0-.11.19,60,60,0,0,0,6,3.37c0,2.59.12,5.18.35,7.76-2.11-.81-4.21-1.72-6.31-2.75a.16.16,0,0,0-.15.29,59.27,59.27,0,0,0,6.55,3.34,66.39,66.39,0,0,0,1.18,7.61c.1.47.86.32.83-.15l-.57-6.86q2.44,1,5,1.74a66.28,66.28,0,0,0,2.75,12.42c.16.5.86.24.75-.25-.86-3.94-1.61-7.87-2.22-11.8a49.69,49.69,0,0,0,10.83,1.71c.31,0,.35-.5,0-.55a99.41,99.41,0,0,1-11-2.29c-.36-2.44-.68-4.89-.9-7.34a44.65,44.65,0,0,0,14.21,2.35A.27.27,0,0,0,442.44,367.68Zm-19.51,3.6c-.2-2.58-.4-5.15-.55-7.72q2.4,1.1,4.9,2c.07,2.46.28,4.9.56,7.34C426.19,372.4,424.56,371.86,422.93,371.28Z"></path><path d="M506.23,317c-1.28.37-2.55.72-3.82,1q-.56-2.75-1.16-5.49a19.35,19.35,0,0,0,3.41-1.24c.26-.13,0-.53-.21-.45-1.13.37-2.25.67-3.37.93-.82-3.7-1.69-7.4-2.51-11.08,0-.17-.3-.09-.26.09.82,3.69,1.48,7.42,2.07,11.15-1,.22-2,.39-3,.53-1.1-5.75-2.49-11.47-3.85-17.09,0-.21-.35-.1-.31.1,1.14,5.69,2,11.43,2.88,17.16a79,79,0,0,1-9.42.4c-.09,0-.08.13,0,.14a70.36,70.36,0,0,0,9.53.2q.44,2.86.91,5.73a40.21,40.21,0,0,1-7.16.47c-.11,0-.09.16,0,.17a41.7,41.7,0,0,0,7.24-.06c.42,2.54.86,5.07,1.37,7.59.09.43.78.28.76-.14-.16-2.53-.44-5.07-.79-7.59,1-.14,1.94-.32,2.9-.55.76,5.27,1.5,10.54,2.48,15.78.08.44.8.29.77-.15a121.82,121.82,0,0,0-2.16-15.89,26.37,26.37,0,0,0,3.82-1.37A.2.2,0,0,0,506.23,317Zm-7.78,1.9c-.28-1.88-.58-3.76-.93-5.64a24.87,24.87,0,0,0,3-.5c.29,1.84.56,3.69.83,5.53C500.38,318.5,499.41,318.7,498.45,318.88Z"></path></g><path d="M460.22,187.45c26.65,32,58.1,97.08,50.22,109.1-8.78,13.38-45.87-31.38-45.51-33.78.27-1.81-10.84-40.71-19.37-69S453.63,179.55,460.22,187.45Z" style="fill:#d3766a"></path><path d="M464.66,262.79c-.91-4.13-16.16-55.48-20.4-71.66-3.8-14.53-.7-20.11,10.3-10.38,20.26,17.91,58.91,70.85,64.7,97,5.58,25.24-15,25.55-30.74,12.82C475.61,280.18,464.66,262.79,464.66,262.79Z" style="fill:#203960"></path><g style="opacity:0.6000000000000001"><path d="M464.66,262.79c-.91-4.13-16.16-55.48-20.4-71.66-3.8-14.53-.7-20.11,10.3-10.38,20.26,17.91,58.91,70.85,64.7,97,5.58,25.24-15,25.55-30.74,12.82C475.61,280.18,464.66,262.79,464.66,262.79Z" style="fill:#fff"></path></g><path d="M466.6,269.43c-5.83-18.49-11.72-39-16.6-57.73,5.83,18.48,11.72,39,16.6,57.73Z" style="fill:#263238"></path><path d="M453,222.92a17.42,17.42,0,0,1-3.72-7,24.58,24.58,0,0,1,3.72,7Z" style="fill:#263238"></path><path d="M513.17,293.45c-5.44,10.11-23,14-66.34,27.84-6,1.92-30.93-36.75-24.63-39.13,7.93-3,39.37-12.91,41.76-13.34C484.11,265.15,516.86,286.6,513.17,293.45Z" style="fill:#d3766a"></path><path d="M429.41,281.84s-17.84-.41-27.28,2.27c-12.64,3.6-22.07,11.91-25.81,15.63-7.82,7.77-21.34,31.95-15.05,37.06C367,341.42,379.53,316,379.53,316s-17.09,23.79-9.22,28.1,20.79-26,20.79-26-17,24.84-8.19,28c6.67,2.39,19.91-24.42,19.91-24.42s-14.48,21.45-7.73,24.2c7.47,3,21.24-20.94,21.24-20.94,18.34,4.1,28.75-1.45,35.69-6.27C453.7,317.49,429.41,281.84,429.41,281.84Z" style="fill:#d3766a"></path><path d="M384.91,307.4c-2.11,2.72-4.26,5.46-6.12,8.36s-3.62,5.87-5.2,8.93a59,59,0,0,0-5,12.5c2.68-7.56,9.17-18,11-20.95s3.56-5.88,5.42-8.78C385.07,307.39,385,307.33,384.91,307.4Z" style="fill:#263238"></path><path d="M395.51,313.92c-2.54,3.59-5.2,7.07-7.58,10.77s-4.3,7.4-6.42,11.24c-.16.3.05.29.23,0,2.26-3.76,4.65-7.05,6.95-10.78s4.48-7.55,6.91-11.18C395.64,313.92,395.55,313.87,395.51,313.92Z" style="fill:#263238"></path><path d="M405.61,317.89c-4.16,5.29-7.35,11.34-10.33,17.36-.15.3.12.25.29,0,3.33-5.84,5.9-10.44,10.23-17.18C405.86,317.93,405.7,317.77,405.61,317.89Z" style="fill:#263238"></path><path d="M428.67,274.91,474.87,323s40.93-20.66,43.86-31c2.09-7.41-31.58-26.95-54-23.62Z" style="fill:#203960"></path><path d="M428.67,274.91,474.87,323s40.93-20.66,43.86-31c2.09-7.41-31.58-26.95-54-23.62Z" style="fill:#fff;opacity:0.6000000000000001"></path><path d="M492.55,273.85c-3.64-2.6-14.89-7.24-27.89-5.5-.11,0-.12.2,0,.19,9.81-.35,24.08,3.27,27.81,5.47C492.57,274.07,492.65,273.91,492.55,273.85Z" style="fill:#263238"></path><path d="M478.78,310.78c-4.09-5-8.44-9.75-12.8-14.51s-8.72-9.52-13.2-14.16c-2.53-2.63-5-5.27-7.67-7.81-.07-.06-.2,0-.14.11,4.08,5,8.41,9.77,12.73,14.54s8.72,9.53,13.15,14.23c2.5,2.65,5,5.26,7.68,7.8C478.66,311.11,478.9,310.92,478.78,310.78Z" style="fill:#263238"></path><path d="M428.59,274.35a55.23,55.23,0,0,1,7.32-1.73c2.46-.48,4.94-.92,7.41-1.34,4.93-.83,15.27-3.16,24.38-3.2.1,0-.41.49-.51.48-4.34-.2-35.36,6.24-37.91,6.44a3.2,3.2,0,0,1,.27.52c.06.12-.07.29-.2.2-.32-.21-.55-.48-.86-.71A.37.37,0,0,1,428.59,274.35Z" style="fill:#263238"></path><path d="M466.86,315q4.14,3.9,8.19,7.89l-.3-.05,9.31-5.32C493,312.23,503,306.6,511.41,300.6c-8.36,6.74-17.71,12.17-27,17.5-3.17,1.79-6.35,3.57-9.59,5.25q-4-4.16-8-8.38Z" style="fill:#263238"></path></g><g id="freepik--character-4--inject-40"><path d="M587.39,457.59h93.44l.45-26.17c3-11.91,4.34-38,3.15-46.94A251.86,251.86,0,0,0,668.14,324l-2.32,0-72.51-.75S590.07,389.79,587.39,457.59Z" style="fill:#37474f"></path><path d="M596.4,457.59h1.83q.13-7.93.31-15.87c.12-5.42.24-10.83.39-16.24,0-.17,0-.35,0-.52.68-25.72,1.59-51.42,2.58-77.14,0-.34-.51-.33-.53,0C598.77,384.38,597.31,421,596.4,457.59Z" style="fill:#37474f"></path><path d="M503.76,457.59h107c6.35-17.22,11.24-30.31,12.6-33.93l.18-.49c.13-.35.2-.52.2-.52,2.06-1.18,4.47-2.44,6.83-3.64C636,416.29,641,414,641,414c23.38-37.64,24.85-90,24.85-90l-72.51-.75-39.57-.4c-7.65,29.69-22.23,58.75-33.08,88.38C514.87,427,509.16,442.62,503.76,457.59Z" style="fill:#37474f"></path><path d="M546,457.59h2.56c5.7-13.34,11.29-26.72,16.36-40.33,9.89-26.53,17.87-54.78,17.16-83.47a.22.22,0,1,0-.43,0c-.2,3.54-.49,7.07-.8,10.6-2.47,28.95-11.91,57-22.6,83.69C554.32,438,550.19,447.78,546,457.59Z" style="fill:#263238"></path><path d="M598.05,425a88.93,88.93,0,0,0,15.45-1.29c5.16-.94,10-2.66,15-4.14,4.76-1.39,9.81-1.57,14.69-2.33a50.27,50.27,0,0,0,14.41-4.28.19.19,0,0,1,.18.34,87.44,87.44,0,0,1-13.84,6c-4.94,1.56-10.09,1.73-15.11,2.95s-10.13,2.93-15.43,3.5a53.78,53.78,0,0,1-15.41-.42C597.79,425.29,597.86,425,598.05,425Z" style="fill:#263238"></path><path d="M609.38,457.59h2.88c1.65-4.72,3.28-9.45,4.84-14.18,2.17-6.58,4.55-13.1,6.36-19.76a3.76,3.76,0,0,0,.13-.48c.09-.34.19-.66.27-1s-.27-.29-.36-.1c-.27.59-.55,1.18-.81,1.78-3.23,7.11-5.83,14.43-8.68,21.65C612.43,449.53,610.89,453.55,609.38,457.59Z" style="fill:#263238"></path><path d="M503.19,262.91c-13.27-14.34-30.67-31.38-35.37-52.91a10.93,10.93,0,0,1,.67-7.12c-2.28-9.61,1.57-13.57,1.57-13.57.62-9.61,5.12-13.12,5.12-13.12s-2.55-11.31,4-14c7.37-3,9.51,13.46,16.23,21.8,15.4,19.13,42.64,42,47.63,47.07Z" style="fill:#f7a9a0"></path><path d="M497.51,215.38c-4.42-5.71-8.91-11.22-12.54-17.5-4-6.9-6.64-14.2-9.54-21.57a.19.19,0,0,0-.36.11c3.13,14.17,11.84,29,22.18,39.17C497.5,215.83,497.73,215.67,497.51,215.38Z" style="fill:#263238"></path><path d="M487.32,226.35c-4-5.8-10.95-16-17-37.11,0-.07-.14-.06-.13,0,2.13,14.21,7.85,26.27,16.88,37.28C487.32,226.89,487.58,226.74,487.32,226.35Z" style="fill:#263238"></path><path d="M481.73,232.15c-6.41-10.13-9.17-17.32-13.18-29.24,0-.06-.15,0-.13,0,3.13,14,5.86,18.74,13,29.47C481.66,232.79,482,232.54,481.73,232.15Z" style="fill:#263238"></path><polygon points="441.69 149.97 494.55 149.49 534.93 126.05 575.77 183.69 534.5 202.48 535.24 204.07 526.54 206.88 525.67 205.52 478.65 206.68 441.69 149.97" style="fill:#455a64"></polygon><path d="M528.36,203.6s14.86-8.67,27.79-13.75c6.08-2.39,13.52-6.22,13.52-6.22l-.25-4.09S539.24,187.6,528.36,203.6Z" style="fill:#ebebeb"></path><path d="M493.64,148s4.94-8.1,17.47-12.86c5.7-2.16,14.8-3.13,21.64-9.28l36.67,53.64s-27,8.53-41.06,24.06Z" style="fill:#fff"></path><path d="M528.36,203.6,493.64,148s-30.23-6.69-40.62-4l-9.9,4.72L480,204.67Z" style="fill:#fff"></path><path d="M453,144,487,199.44s28,.69,41.4,4.16L480,204.67l-36.85-55.93Z" style="fill:#ebebeb"></path><path d="M493.64,148q4.51,6.84,8.92,13.75l8.75,13.84,8.61,13.94q4.27,7,8.44,14-4.51-6.84-8.91-13.74L510.7,176l-8.61-13.93Q497.82,155.09,493.64,148Z" style="fill:#ebebeb"></path><path d="M500.5,150.72a39.51,39.51,0,0,1,6.91-5.64,46.54,46.54,0,0,1,7.92-4.13c2.77-1.1,5.6-2,8.41-3,1.41-.47,2.82-.94,4.22-1.45a34.21,34.21,0,0,0,4.12-1.68,55.41,55.41,0,0,1-8.26,3.36c-2.8,1-5.61,2-8.36,3.09a45.9,45.9,0,0,0-7.92,4A48.78,48.78,0,0,0,500.5,150.72Z" style="fill:#263238"></path><path d="M525.58,140c2.55-1.16,5.19-2,7.76-3.06a18.41,18.41,0,0,1-3.76,1.83A34.26,34.26,0,0,1,525.58,140Z" style="fill:#263238"></path><path d="M501.76,152.81a33.06,33.06,0,0,1,4.48-4,47.49,47.49,0,0,1,5-3.29,61.46,61.46,0,0,1,11.1-4.46c-1.85.72-3.72,1.43-5.56,2.18a45.6,45.6,0,0,0-5.36,2.59,47,47,0,0,0-5.05,3.17A50.63,50.63,0,0,0,501.76,152.81Z" style="fill:#263238"></path><path d="M503,154.9a39,39,0,0,1,6.91-5.63,45.88,45.88,0,0,1,7.92-4.14c2.77-1.09,5.6-2,8.41-3,1.41-.48,2.82-.95,4.22-1.46A32.05,32.05,0,0,0,534.6,139a54.36,54.36,0,0,1-8.26,3.36c-2.8,1-5.61,2-8.36,3.09a45.25,45.25,0,0,0-7.92,4A47.49,47.49,0,0,0,503,154.9Z" style="fill:#263238"></path><path d="M504.28,157a39,39,0,0,1,6.91-5.63,45.14,45.14,0,0,1,7.92-4.13c2.77-1.1,5.6-2,8.41-3,1.41-.48,2.82-.95,4.22-1.46a32.65,32.65,0,0,0,4.12-1.68,54.36,54.36,0,0,1-8.26,3.36c-2.8,1-5.61,2-8.36,3.09a45.25,45.25,0,0,0-7.92,4A48.17,48.17,0,0,0,504.28,157Z" style="fill:#263238"></path><path d="M517.4,150.81c1.6-.73,3.22-1.45,4.84-2.14s3.3-1.25,5-1.85l5-1.7a43.2,43.2,0,0,0,4.92-1.92,31.63,31.63,0,0,1-4.82,2.18c-1.65.63-3.32,1.19-5,1.78s-3.35,1.11-5,1.77S519.06,150.2,517.4,150.81Z" style="fill:#263238"></path><path d="M505.54,159.08a28.92,28.92,0,0,1,4.63-4.14c.85-.6,1.71-1.19,2.6-1.72a30.1,30.1,0,0,1,2.75-1.45A77.65,77.65,0,0,0,505.54,159.08Z" style="fill:#263238"></path><path d="M506.8,161.17a39.46,39.46,0,0,1,6.91-5.63,45.14,45.14,0,0,1,7.92-4.13c2.77-1.1,5.6-2,8.41-3,1.41-.47,2.82-1,4.22-1.45a33.61,33.61,0,0,0,4.12-1.69,55.45,55.45,0,0,1-8.26,3.37c-2.8,1-5.61,2-8.36,3.08a45.25,45.25,0,0,0-7.92,4A48.17,48.17,0,0,0,506.8,161.17Z" style="fill:#263238"></path><path d="M509.32,165.36a39.07,39.07,0,0,1,6.91-5.64,45.14,45.14,0,0,1,7.92-4.13c2.77-1.1,5.6-2,8.41-3,1.41-.47,2.82-.94,4.22-1.45a33.55,33.55,0,0,0,4.12-1.68,56.5,56.5,0,0,1-8.26,3.36c-2.8,1-5.61,2-8.36,3.08a46,46,0,0,0-7.92,4A47.55,47.55,0,0,0,509.32,165.36Z" style="fill:#263238"></path><path d="M526,157.63c1.45-.68,3-1.22,4.44-1.78s3-1,4.57-1.43c-1.45.67-2.95,1.22-4.44,1.77S527.58,157.23,526,157.63Z" style="fill:#263238"></path><path d="M510.58,167.45a32.36,32.36,0,0,1,5.49-4.76c1-.68,2-1.34,3.1-1.93a32.88,32.88,0,0,1,3.27-1.59,71.79,71.79,0,0,0-6.16,3.81c-1,.68-2,1.41-2.92,2.15S511.47,166.63,510.58,167.45Z" style="fill:#263238"></path><path d="M511.84,169.54a39,39,0,0,1,6.91-5.63,45.88,45.88,0,0,1,7.92-4.14c2.77-1.1,5.6-2,8.41-3,1.41-.48,2.82-1,4.22-1.46a32.65,32.65,0,0,0,4.12-1.68,54.36,54.36,0,0,1-8.26,3.36c-2.8,1-5.61,2-8.36,3.09a45.25,45.25,0,0,0-7.92,4A48,48,0,0,0,511.84,169.54Z" style="fill:#263238"></path><path d="M514.36,173.72a39,39,0,0,1,6.91-5.63,45.14,45.14,0,0,1,7.92-4.13c2.77-1.1,5.6-2,8.41-3,1.41-.48,2.82-.95,4.22-1.46a32.05,32.05,0,0,0,4.12-1.68,54.36,54.36,0,0,1-8.26,3.36c-2.8,1-5.61,2-8.36,3.09a45.25,45.25,0,0,0-7.92,4A48.17,48.17,0,0,0,514.36,173.72Z" style="fill:#263238"></path><path d="M515.62,175.81a39.46,39.46,0,0,1,6.91-5.63,45.14,45.14,0,0,1,7.92-4.13c2.77-1.1,5.6-2,8.41-3,1.41-.48,2.82-.95,4.22-1.45a33.61,33.61,0,0,0,4.12-1.69,55.45,55.45,0,0,1-8.26,3.37c-2.8,1-5.61,1.95-8.36,3.08a45.25,45.25,0,0,0-7.92,4A48.17,48.17,0,0,0,515.62,175.81Z" style="fill:#263238"></path><path d="M538.82,168.26c1.79-.78,3.63-1.41,5.46-2.08l2.74-1c.91-.34,1.81-.68,2.7-1.08a28.25,28.25,0,0,1-5.32,2.4C542.56,167.15,540.71,167.76,538.82,168.26Z" style="fill:#263238"></path><path d="M527.39,173.08c.74-.46,1.49-.9,2.25-1.33s1.57-.77,2.37-1.13a42.82,42.82,0,0,1,4.93-1.7c-1.58.73-3.21,1.34-4.8,2S529,172.41,527.39,173.08Z" style="fill:#263238"></path><path d="M518.14,180a19.73,19.73,0,0,1,3-2.91c.55-.42,1.1-.85,1.69-1.24s1.18-.74,1.79-1.08C522.45,176.52,520.28,178.21,518.14,180Z" style="fill:#263238"></path><path d="M541.48,169.87c1.56-.69,3.17-1.25,4.75-1.85l2.39-.87c.79-.3,1.58-.59,2.36-.94a23.76,23.76,0,0,1-4.63,2.15C544.75,168.92,543.14,169.46,541.48,169.87Z" style="fill:#263238"></path><path d="M519.4,182.09a32.84,32.84,0,0,1,4.27-3.81,47.16,47.16,0,0,1,4.77-3.19A55.11,55.11,0,0,1,539,170.72c-1.77.7-3.55,1.39-5.3,2.13a43.32,43.32,0,0,0-5.1,2.55,46.46,46.46,0,0,0-4.8,3.07A49.45,49.45,0,0,0,519.4,182.09Z" style="fill:#263238"></path><path d="M520.66,184.18a39.51,39.51,0,0,1,6.91-5.64,46.54,46.54,0,0,1,7.92-4.13c2.77-1.1,5.6-2,8.41-3,1.41-.47,2.82-.94,4.22-1.45a32.05,32.05,0,0,0,4.12-1.68,55.41,55.41,0,0,1-8.26,3.36c-2.8,1-5.61,2-8.36,3.09a45.25,45.25,0,0,0-7.92,4A48,48,0,0,0,520.66,184.18Z" style="fill:#263238"></path><path d="M533.78,178a73.66,73.66,0,0,1,9.8-4l5-1.7a46,46,0,0,0,4.92-1.92,62.69,62.69,0,0,1-9.81,4l-5,1.73C537.05,176.68,535.4,177.29,533.78,178Z" style="fill:#263238"></path><path d="M521.92,186.27a27.78,27.78,0,0,1,4.45-4c.82-.58,1.64-1.16,2.5-1.67a29.12,29.12,0,0,1,2.64-1.42A82.22,82.22,0,0,0,521.92,186.27Z" style="fill:#263238"></path><path d="M523.18,188.36a39,39,0,0,1,6.91-5.63A45.14,45.14,0,0,1,538,178.6c2.77-1.1,5.6-2,8.41-3,1.41-.48,2.82-1,4.22-1.46a32.65,32.65,0,0,0,4.12-1.68,54.36,54.36,0,0,1-8.26,3.36c-2.8,1-5.61,2-8.36,3.09a45.25,45.25,0,0,0-7.92,4A47.49,47.49,0,0,0,523.18,188.36Z" style="fill:#263238"></path><path d="M524.44,190.45a31.38,31.38,0,0,1,4.07-3.65,48.12,48.12,0,0,1,4.53-3.08,30.59,30.59,0,0,1,4.94-2.35q2.55-1,5.12-1.94-2.51,1.13-5,2.16a30.68,30.68,0,0,0-4.86,2.44,46.9,46.9,0,0,0-4.57,3A51.57,51.57,0,0,0,524.44,190.45Z" style="fill:#263238"></path><path d="M461.87,148.87c5,0,10,.33,15,.75q3.75.38,7.47.92c2.48.33,4.95.78,7.4,1.29-2.48-.37-4.95-.74-7.44-1.05s-5-.59-7.46-.8-5-.48-7.48-.66S464.37,149,461.87,148.87Z" style="fill:#263238"></path><path d="M479.87,151.82c1.09.05,2.19.12,3.28.27l3.27.44c2.17.34,4.34.67,6.48,1.13-2.19-.17-4.36-.48-6.54-.78S482,152.17,479.87,151.82Z" style="fill:#263238"></path><path d="M463,150.71c2.32-.1,4.64,0,7,.12s4.62.34,6.92.7c-2.32-.06-4.63-.23-6.94-.35S465.33,150.91,463,150.71Z" style="fill:#263238"></path><path d="M464.17,152.55c3.78-.07,7.55.19,11.32.42s7.53.72,11.25,1.37c-3.76-.34-7.51-.78-11.27-1S467.94,152.79,464.17,152.55Z" style="fill:#263238"></path><path d="M465.32,154.39c5,0,10,.33,15,.74q3.75.39,7.47.92c2.48.33,4.95.79,7.4,1.29-2.48-.36-4.95-.74-7.44-1.05s-5-.58-7.46-.8-5-.48-7.48-.66S467.82,154.51,465.32,154.39Z" style="fill:#263238"></path><path d="M487.88,157.87c1.43.07,2.85.28,4.27.47s2.82.47,4.2.84c-1.44-.08-2.85-.28-4.26-.48S489.27,158.23,487.88,157.87Z" style="fill:#263238"></path><path d="M466.47,156.23c3.1-.09,6.2.07,9.3.26s6.18.53,9.24,1C478.83,157.07,472.66,156.62,466.47,156.23Z" style="fill:#263238"></path><path d="M490.36,161.56c1.4.07,2.79.28,4.17.47s2.77.46,4.12.82c-1.41-.07-2.79-.27-4.17-.46S491.72,161.93,490.36,161.56Z" style="fill:#263238"></path><path d="M482.11,160.67a30.81,30.81,0,0,1,3.33.16,30.27,30.27,0,0,1,3.28.53,28.18,28.18,0,0,1-3.32-.17A28.48,28.48,0,0,1,482.11,160.67Z" style="fill:#263238"></path><path d="M468.77,159.9c1.61-.07,3.22,0,4.82.06s3.22.18,4.81.41c-1.61.07-3.22,0-4.82-.05S470.37,160.13,468.77,159.9Z" style="fill:#263238"></path><path d="M469.92,161.74c5,0,10,.33,15,.74q3.75.39,7.47.92c2.48.33,5,.79,7.4,1.29-2.48-.36-4.95-.74-7.44-1.05s-5-.58-7.46-.8-5-.48-7.48-.65S472.42,161.86,469.92,161.74Z" style="fill:#263238"></path><path d="M471.07,163.58c5,0,10,.33,15,.74q3.75.39,7.47.92c2.48.33,4.95.78,7.4,1.29-2.48-.37-4.95-.74-7.44-1.05s-5-.58-7.46-.8-5-.48-7.48-.66S473.57,163.7,471.07,163.58Z" style="fill:#263238"></path><path d="M472.22,165.41c3.44-.07,6.88.11,10.31.34s6.85.63,10.24,1.2c-3.43-.27-6.84-.6-10.27-.84S475.65,165.64,472.22,165.41Z" style="fill:#263238"></path><path d="M476.6,169.64l12.93,21.65A223.39,223.39,0,0,1,516.39,194l-13.73-21.48S483.33,169.2,476.6,169.64Z" style="fill:#ebebeb"></path><path d="M515.47,205.87c3,1.7,3.9.14,1.58-5.52S500.76,174.27,508.3,170s26.83,24.83,30,34.54,4.81,26.53,4.81,26.53C538.18,226.16,525.18,215.38,515.47,205.87Z" style="fill:#f7a9a0"></path><path d="M593.56,195.38c7.58-.11,18.45-15.44,21.06-25.53.18-.69-2.37-6.86-5.11-14.5-1.65-4.64-3.37-9.85-4.59-14.72l-28.65,15.12s5.57,9.44,7.66,17.94a10.87,10.87,0,0,1,.29,2.05c0,.1,0,.21,0,.34C584.6,180,586.23,195.49,593.56,195.38Z" style="fill:#f7a9a0"></path><path d="M584.22,175.74c0,.08,0,.22,0,.35a19.7,19.7,0,0,0,3.19-.63c17.79-5.25,17.41-26.55,16.63-34.37l-27.82,14.67s5.58,9.45,7.68,17.93A12.89,12.89,0,0,1,584.22,175.74Z" style="fill:#263238"></path><path d="M605,103.68c5.12,10.49,4.39,43.26-2.31,51.61-9.72,12.11-28.17,16.07-39.09,3.8-10.6-11.88-8.89-54.57-1.17-62.42C573.8,85.1,597.42,88.2,605,103.68Z" style="fill:#f7a9a0"></path><path d="M577,128c0-.08.18.1.18.19,0,2.21.33,4.75,2.34,5.43.06,0,.06.13,0,.13C577.05,133.5,576.62,130.13,577,128Z" style="fill:#263238"></path><path d="M578.91,125.69c3.55-.35,4,6.76.7,7.09S575.94,126,578.91,125.69Z" style="fill:#263238"></path><path d="M564.75,128.84c0-.08-.16.12-.15.21.2,2.2.07,4.75-1.88,5.61a.06.06,0,0,0,0,.12C565.16,134.29,565.3,130.89,564.75,128.84Z" style="fill:#263238"></path><path d="M562.64,126.66c-3.56,0-3.39,7.08-.1,7.13S565.63,126.71,562.64,126.66Z" style="fill:#263238"></path><path d="M581.52,122.27c-1-.19-1.86-.52-2.82-.8A4.68,4.68,0,0,1,576,120.1a1.49,1.49,0,0,1,.13-1.83,3.73,3.73,0,0,1,3.73-.62,5.52,5.52,0,0,1,3.31,2.17A1.62,1.62,0,0,1,581.52,122.27Z" style="fill:#263238"></path><path d="M560.49,123.33a29.08,29.08,0,0,0,2.78-.9,4.76,4.76,0,0,0,2.66-1.47,1.5,1.5,0,0,0-.2-1.83,3.73,3.73,0,0,0-3.75-.47,5.47,5.47,0,0,0-3.22,2.3A1.6,1.6,0,0,0,560.49,123.33Z" style="fill:#263238"></path><path d="M579.54,148.06c-.51.53-1,1.26-1.81,1.36a6,6,0,0,1-2.39-.47.07.07,0,0,0-.09.11,3,3,0,0,0,2.84,1.1,2.36,2.36,0,0,0,1.67-2C579.79,148,579.62,148,579.54,148.06Z" style="fill:#263238"></path><path d="M576.61,141.78a7.53,7.53,0,0,1-5,3.32,9.44,9.44,0,0,1-2.71.12,4,4,0,0,1-.51-.06,4.53,4.53,0,0,1-.49-.08.54.54,0,0,1-.44-.49v0a.9.9,0,0,1,0-.23h0v-.2c0-1.7.13-4.28.13-4.28-.62.31-3.79,1.72-3.74.83.46-7.35,1-15.52,3-22.74a.21.21,0,0,1,.41.06c-.17,7.08-1.58,14.09-1.86,21.2a13.19,13.19,0,0,1,3.55-1.07c.24.07-.42,5-.34,5.76a.45.45,0,0,0,0,.08c2.85.37,5-.48,7.79-2.39C576.56,141.45,576.74,141.6,576.61,141.78Z" style="fill:#263238"></path><path d="M608.76,137.47c-4.19-.24-13.15-1.64-14.77-6.6s.08-20.17-1.47-24c-1.92-4.78-9.64-8.71-12.33-8.33-3.48.48-9.9,8.25-13.38,8.44-2.5.14-2.89-2.93-3-3.6-.26-1.37.18-3.46-.65-3.42-2.48.09-4.88,7.27-5.93,11.7,0,0-.29-11.89,5.93-16.48C570,90.09,587.2,83.76,601.66,97,614.66,108.81,608.76,137.47,608.76,137.47Z" style="fill:#263238"></path><path d="M597.93,131.36S603.71,120,608.75,122s1.7,17.65-3.51,20.46a5.66,5.66,0,0,1-7.92-2Z" style="fill:#f7a9a0"></path><path d="M607.68,126.43a.08.08,0,0,1,.05.14c-3.64,2.1-5.17,6-6.07,9.87.94-1.59,2.4-2.59,4.5-1.49.11.06,0,.23-.08.22a3.5,3.5,0,0,0-3.62,1.73,16.38,16.38,0,0,0-1.38,3.32c-.14.37-.78.27-.71-.14,0,0,0-.07,0-.1C599.61,135.08,602.47,127.66,607.68,126.43Z" style="fill:#263238"></path><path d="M547.46,341.75H678s11.68-10.06,9.62-18.52c-5-20.7-32.39-125.14-70.93-155.37-6.81-5.33-27.49,1.11-34.17,8-15,15.54-31.91,98.25-40,146.17C540.74,332.28,547.46,341.75,547.46,341.75Z" style="fill:#203960"></path><polygon points="616.68 167.85 614.86 160.27 582.05 171.83 581.65 176.51 616.68 167.85" style="fill:#37474f"></polygon><path d="M612.72,183.84c-2-2.23-11.64-9.32-23.36-9.94-4.17-.22-10.46,2.11-16.6,7.27s-26.47,35-27.6,63.07,53.55,66.92,56.42,66.71.45-12-.7-13.28S563.57,261.72,562,249.55s8.18-48.6,11.07-52.89,8.5-15.28,10.55-15.49c5.7-.59,16.07,9.44,19.16,9.5S615,186.51,612.72,183.84Z" style="fill:#263238"></path><path d="M642.94,183.27c.83-.81-3.68-12.77-7-14.72s-23.52-.71-25.6,3.32,2,16.13,3.43,16.25,5.29-.5,6-1.39-2.07-8.48-1-9.95c1.34-1.93,12.78-2.56,14-1.45s2.86,7.88,3.11,8.31S641.61,184.58,642.94,183.27Z" style="fill:#263238"></path><path d="M591.81,296.88c4.86,8.16,20.51,18.23,29.51,19.24s68.39,5.25,77.1-7.71c7.93-11.81-13.75-91.48-32.13-116a26.69,26.69,0,0,0-4.88-5.23l-.38-.29c-16.75-12.13-48.08-3.18-52-1.82-6.1,2.14-14.5,8.06-18.23,20.18S586.94,288.72,591.81,296.88Z" style="fill:#37474f"></path><path d="M625,289.58c1.29,5.87,11.5,19.28,22.73,22.1s50.71-3.27,59.11-11.6c.94-.93,1.53-2.76,1.79-5.29,1.84-18-12.62-71.36-26.25-87a14.51,14.51,0,0,0-4.41-3.66,34.29,34.29,0,0,0-6-2.23c-10.35-2.89-24.14-2.6-34.7.59-6.81,2.08-12.29,5.36-14.61,9.81C616.78,223.61,623.7,283.72,625,289.58Z" style="fill:#455a64"></path><path d="M625,289.58c1.29,5.87,11.5,19.28,22.73,22.1s50.71-3.27,59.11-11.6c.94-.93,1.53-2.76,1.79-5.29,1.84-18-12.62-71.36-26.25-87a14.51,14.51,0,0,0-4.41-3.66,34.29,34.29,0,0,0-6-2.23c-10.35-2.89-24.14-2.6-34.7.59-6.81,2.08-12.29,5.36-14.61,9.81C616.78,223.61,623.7,283.72,625,289.58Z" style="fill:#fff;opacity:0.4"></path><path d="M625,289.58c1.29,5.87,11.5,19.28,22.73,22.1s50.71-3.27,59.11-11.6c.94-.93,1.53-2.76,1.79-5.29a54.19,54.19,0,0,1-22.74,8.63,99.2,99.2,0,0,1-17.81,1.05c-5.9-.16-12-1-17-4.43-9.54-6.39-13.52-19.45-15.45-30.45-2.09-12-2.07-24.49-1.78-36.64a145.19,145.19,0,0,1,3.5-30.44c-6.81,2.08-12.29,5.36-14.61,9.81C616.78,223.61,623.7,283.72,625,289.58Z" style="opacity:0.1"></path><path d="M631,265.33l2.69-.31c-1.45-12.45-4-46.24,1.82-53.17,5.62-6.75,29.12-9.18,39.07-6.7a45.78,45.78,0,0,1,7.83,2.66,14.8,14.8,0,0,0-4.4-3.67,35.11,35.11,0,0,0-6-2.22c-12-1.64-32.78,1.17-38.63,8.2C625.68,219.36,630.74,263.46,631,265.33Z" style="fill:#263238"></path><path d="M598.45,256.58l2.7-.08c-1.25-50.33,1-52.32,10.53-60.68l.33-.3c9.28-8.14,32.33-8.54,41.43-7.47a32.65,32.65,0,0,1,12.85,4.32,26.69,26.69,0,0,0-4.88-5.23,36.42,36.42,0,0,0-7.65-1.78c-6.38-.75-32.49-1.57-43.52,8.14l-.33.28C599.85,202.6,597.15,205,598.45,256.58Z" style="fill:#263238"></path><path d="M584.5,295.81c1.87,6.46,18,18.61,25.66,21,1.56.49,14.46,2.34,14.74-2.84,0-.34,0-.69,0-1,.3-13.51-7-42.36-8.57-46.21-1.87-4.54-16.8-12.45-25.5-13.75a9.32,9.32,0,0,0-4.64.19C580.05,255.66,583.33,291.71,584.5,295.81Z" style="fill:#455a64"></path><path d="M584.5,295.81c1.87,6.46,18,18.61,25.66,21,1.56.49,14.46,2.34,14.74-2.84,0-.34,0-.69,0-1-9.43-.23-22.75-3.73-29-14.45-5.91-10.11-5.87-32.79-5.07-45.51a9.32,9.32,0,0,0-4.64.19C580.05,255.66,583.33,291.71,584.5,295.81Z" style="fill:#37474f"></path><path d="M589.32,203C587.46,253,570.69,317.16,554,321.56c-18.59,4.9-16.64-63.31-14.39-65.16C541.32,255,556,229,571.19,196.86S589.79,190.69,589.32,203Z" style="fill:#f7a9a0"></path><path d="M539.35,256.19c2.52-4.41,23.55-44.83,32.77-62.69s17.74-17.37,18.19,8.44-5.09,75.69-21,103.74c-15.3,27-27.19,18.57-31-5.47C535.16,280.52,539.35,256.19,539.35,256.19Z" style="fill:#203960"></path><path d="M550.62,321.82c-14-3.07-24.12-20.44-55.55-67.64-4.35-6.53,33.66-51.54,38.66-44.81,6.31,8.49,28.92,42.78,30.26,45.5C575.27,277.78,560.1,323.9,550.62,321.82Z" style="fill:#f7a9a0"></path><path d="M548.91,225.87l-43.29,55s30.73,39.67,45.2,41.53c9.52,1.21,26.48-45.37,12.09-69.74Z" style="fill:#203960"></path><path d="M567.59,286.93c1.29-5.43,3.45-20.11-4.66-34.31-.07-.13-.28,0-.22.09,5,11.17,5.44,28.87,4.65,34.2C567.34,287.05,567.56,287.07,567.59,286.93Z" style="fill:#263238"></path><path d="M518.93,290.51c5-5.73,9.62-11.71,14.26-17.7s9.29-12,13.78-18.09c2.53-3.45,5.09-6.89,7.5-10.42.07-.1-.08-.22-.15-.13-5,5.72-9.65,11.69-14.32,17.65s-9.31,12-13.87,18c-2.57,3.42-5.09,6.88-7.5,10.41C518.51,290.45,518.78,290.68,518.93,290.51Z" style="fill:#263238"></path><path d="M549,225.27c2,2.37,10.08,15.34,16.88,33.59,0,.11,0,3.88-.08,3.76-5.35-14.86-15.8-33.41-17.23-36.26a5.08,5.08,0,0,1-.47.57c-.12.12-.37,0-.33-.15.1-.47.3-.86.43-1.32A.45.45,0,0,1,549,225.27Z" style="fill:#263238"></path><path d="M509.32,276.18l-3.58,4.8v-.2c9.43,11.48,19.25,22.88,30.54,32.55,5.09,3.92,12.09,10.6,18.82,7.16,18.43-10.42,29.19-60.08,32.4-80.55,1.22-7.36,2.1-14.77,2.82-22.2-.28,7.46-1,14.91-1.88,22.34-2.58,21.07-12.92,71.59-32.54,82.08-7.63,3.79-15.15-3.05-20.69-7.59-11.19-10-20.73-21.63-29.72-33.6l-.08-.1.08-.09,3.82-4.6Z" style="fill:#263238"></path></g><g id="freepik--character-1--inject-40"><polygon points="221.16 458.03 145.81 458.03 117.91 286.76 191.56 286.71 221.16 458.03" style="fill:#ad6359"></polygon><path d="M191.56,286.71s-1,34.77-11.11,63.73c-.64,1.85-1.29,3.65-2,5.39a64,64,0,0,0-7.83,3l-1.83.84c-3.18,1.47-7.11,3.45-11.74,6.08l0,.89c0,.24,0,.52,0,.85-.12,2.54-4.7,77.51-5.33,90.46H72.78c1.22-12.23,2.44-24.24,3.63-35.55,1.64-15.75,3.21-40.65,4.56-52.26,0,0-10-27.28,13.46-83.54Z" style="fill:#ad6359"></path><path d="M191.56,286.71,221.16,458H72.78L81,370.16s-5.87-11-3.65-30.37,17.11-53.17,17.11-53.17Z" style="fill:#263238"></path><path d="M145.53,372.77c4.79-6.7,9.91-13.22,16.19-18.62a121.94,121.94,0,0,1,19-10.48c-3.13,2.27-6.33,4.4-9.55,6.5-2.69,1.85-7,4.35-9.33,6.43-5.53,5.12-10.83,11-16.35,16.17Z" style="fill:#263238"></path><path d="M173.88,353.74c-4.37,4-9.66,6.51-15.07,8.73,1.8-2.4,4.39-4,6.92-5.45a31,31,0,0,1,8.15-3.28Z" style="fill:#263238"></path><path d="M165.92,100.88c16.92,16.05,10.88,37.91,17.66,50.27,4.15,7.56,18.47,16,21,24.64,4.11,14.12-7.91,18.52-5.66,26.2,3.19,10.87,17.55,10.76,19.25,28.38s-18.48,35.25-64.4,38-70.18-15.24-71.07-30.16,14.55-19.09,16.14-30.12c1-7.05-8.12-12.45-7.94-25.51S104,165.93,106.34,155s-2.13-38.16,14.82-51.08S157.57,93,165.92,100.88Z" style="fill:#263238"></path><path d="M163.85,101.17a37.68,37.68,0,0,1,11.05,14.14,82.15,82.15,0,0,1,5.63,18.28c.75,3.69,1.43,7.47,3,10.92a27.56,27.56,0,0,0,5.75,7.88c4.71,4.71,10.44,8.41,14.62,13.65,4,5,6.92,11.49,4.91,17.89-1.09,3.48-3.56,6.24-5.16,9.45-1.53,3.05-2.27,6.9.27,9.62,2.17,2.33,5.43,3.51,7.93,5.45a28.86,28.86,0,0,1,6.34,6.8A22.34,22.34,0,0,1,221.52,233c-3.4,14.08-17.13,21.48-29.69,26-1.75.63-3.51,1.23-5.27,1.83-.27.09-.48-.3-.2-.41,12.62-4.91,27.28-10.67,32.72-24.24a20.86,20.86,0,0,0-1.21-18.44,26.3,26.3,0,0,0-6.18-7.19c-2.39-2-5.2-3.23-7.64-5.1a8.4,8.4,0,0,1-3.5-7.7c.32-3.33,2.1-6.16,3.85-8.91,1.86-2.91,3.46-5.87,3.4-9.42a18.39,18.39,0,0,0-3.2-9.31c-3.57-5.64-9.08-9.5-14-13.87s-8.79-9.4-10.34-15.93c-.78-3.31-1.2-6.69-1.85-10a90.25,90.25,0,0,0-2.27-9.17,43.28,43.28,0,0,0-8.86-16.4,24.49,24.49,0,0,0-3.62-3.28C163.54,101.3,163.7,101.06,163.85,101.17Z" style="fill:#263238"></path><path d="M81.19,227.22a17.08,17.08,0,0,1,3.49-6.48c1.69-1.94,3.7-3.54,5.55-5.31a12.88,12.88,0,0,0,4-6c.74-2.89-.35-5.75-1.59-8.33A61,61,0,0,1,89,193a28.84,28.84,0,0,1-1.31-8.6,29.29,29.29,0,0,1,5.45-16.75c1.68-2.48,3.56-4.81,5.26-7.27a36.82,36.82,0,0,0,4.5-8.67c2.4-6.77,3.21-14,5.24-20.89a108.62,108.62,0,0,1,8.46-20.34c.08-.16.32,0,.23.16A95.81,95.81,0,0,0,109.39,129c-1.75,6-2.63,12.24-4,18.36a47.38,47.38,0,0,1-2.77,8.78,48.2,48.2,0,0,1-4.35,7.44c-3.34,4.87-6.77,9.68-7.93,15.6a28,28,0,0,0,2.09,17.24c2.17,4.67,5.28,9.84,2.92,15.05-2,4.41-6.43,6.89-9.47,10.48a18,18,0,0,0-3.81,14.28c1.81,12.91,14.31,19.9,26.27,21.13a.3.3,0,0,1,0,.59c-10.42-.65-21.54-5.81-25.94-15.82A22.11,22.11,0,0,1,81.19,227.22Z" style="fill:#263238"></path><rect x="98.39" y="300.13" width="105.69" height="15.22" transform="translate(-14.41 7.51) rotate(-2.72)" style="fill:#203960"></rect><rect x="98.39" y="300.13" width="105.69" height="15.22" transform="translate(-14.41 7.51) rotate(-2.72)" style="opacity:0.1"></rect><rect x="100.04" y="315.31" width="105.69" height="54.47" transform="translate(-16.06 7.63) rotate(-2.72)" style="fill:#203960"></rect><rect x="98.39" y="301.71" width="105.69" height="12.06" transform="matrix(1, -0.05, 0.05, 1, -14.41, 7.51)" style="fill:#fff"></rect><path d="M105.45,313.47c31.61-1.81,67.09-3.49,98.73-4.69-31.61,1.81-67.09,3.49-98.73,4.69Z" style="fill:#dbdbdb"></path><path d="M105.34,311.1c31.61-1.8,67.09-3.49,98.73-4.68-31.61,1.81-67.09,3.49-98.73,4.68Z" style="fill:#dbdbdb"></path><path d="M105.22,308.74c31.62-1.81,67.1-3.49,98.74-4.68-31.61,1.81-67.09,3.49-98.74,4.68Z" style="fill:#dbdbdb"></path><path d="M105.11,306.38c31.61-1.81,67.1-3.49,98.74-4.69-31.61,1.81-67.1,3.49-98.74,4.69Z" style="fill:#dbdbdb"></path><path d="M186.81,268.22c-1.81-3.53-31-62.87-36.94-77.39s-1.21-19.27,14.65-6.36,51.26,56.69,59.92,80.31C232.78,287.53,189.2,272.88,186.81,268.22Z" style="fill:#203960"></path><path d="M149.87,190.82c6,14.52,35.13,73.87,36.95,77.4.69,1.36,4.86,3.55,10.23,5.43,13.09,4.59,33.31,7.27,27.39-8.87-5.72-15.6-23.09-40-38.8-58.46-8.08-9.52-15.73-17.46-21.12-21.85C148.67,171.56,143.89,176.3,149.87,190.82Z" style="fill:#455a64"></path><path d="M160.36,181.31c.61.42,1.24.88,1.9,1.38H147.48c-.06-.49-.09-.95-.1-1.38ZM150,191.1c.17.42.37.88.58,1.37h22.52c-.45-.47-.91-.93-1.35-1.37Zm4.36,9.79c.2.45.41.9.63,1.37h27.16l-1.21-1.37Zm4.57,9.78c.21.46.43.92.65,1.38h30.84l-1.13-1.38Zm4.65,9.79c.22.45.44.91.65,1.37h33.9l-1.05-1.37Zm4.7,9.78.66,1.38h36.38l-1-1.38ZM173,240c.23.46.45.91.67,1.37H212l-.89-1.37Zm4.76,9.78.67,1.38h39.48c-.26-.46-.52-.92-.79-1.38Zm4.8,9.79.67,1.37h39.66c-.19-.45-.4-.91-.62-1.37Zm5.4,9.78a16.61,16.61,0,0,0,2.26,1.38h35.24a9,9,0,0,0,0-1.38Z" style="fill:#37474f"></path><path d="M149.87,190.82c6,14.52,35.13,73.87,36.95,77.4.69,1.36,4.86,3.55,10.23,5.43l-11.41-67.33c-8.08-9.52-15.73-17.46-21.12-21.85C148.67,171.56,143.89,176.3,149.87,190.82Z" style="opacity:0.1"></path><path d="M94.1,287.62l97.46-.91-6.63-34.07s7.51-16.42,3.38-24.75c-4.78-9.63-18.7-31.79-27.78-40.88-22.12-22.13-32.79-7.52-37.75-.85-11,14.72-20.13,79.65-20.13,79.65Z" style="fill:#455a64"></path><path d="M153.25,251.87a85.16,85.16,0,0,1,13.83.06c2.29.23,4.56.57,6.84,1,1.13.2,2.26.36,3.4.51a13.44,13.44,0,0,0,3.58.1.09.09,0,0,1,0,.18,23.44,23.44,0,0,1-3.34.52,22.52,22.52,0,0,1-3.28-.1c-2.33-.21-4.65-.53-7-.77-4.69-.47-9.37-1-14.07-1.05C153.05,252.28,153,251.88,153.25,251.87Z" style="fill:#263238"></path><path d="M142.88,258.22A93.31,93.31,0,0,1,154,255.66c1.87-.3,3.75-.49,5.65-.62.91-.06,1.81-.1,2.72-.13s2,.07,3,0c.1,0,.13.17,0,.18-.94.08-1.87.33-2.8.47l-2.81.41c-1.87.28-3.74.58-5.61.84-3.76.51-7.49,1.07-11.23,1.73C142.73,258.6,142.69,258.28,142.88,258.22Z" style="fill:#263238"></path><path d="M125.49,182.69h30.33q-.88-.74-1.74-1.38H126.73C126.29,181.77,125.88,182.23,125.49,182.69Z" style="fill:#37474f"></path><path d="M119.34,192.47h46l-1.13-1.37H120C119.74,191.54,119.54,192,119.34,192.47Z" style="fill:#37474f"></path><path d="M115.79,202.26h56.86l-1-1.37H116.22C116.08,201.34,115.93,201.79,115.79,202.26Z" style="fill:#37474f"></path><path d="M113,212.05h66.11c-.28-.46-.58-.92-.87-1.38H113.39Q113.2,211.36,113,212.05Z" style="fill:#37474f"></path><path d="M110.68,221.83h74.37l-.79-1.37H111C110.88,220.91,110.78,221.37,110.68,221.83Z" style="fill:#37474f"></path><path d="M108.59,231.62h80.8a12.45,12.45,0,0,0-.26-1.38H108.87C108.77,230.71,108.68,231.17,108.59,231.62Z" style="fill:#37474f"></path><path d="M106.7,241.4h82c.09-.45.19-.91.27-1.37H107C106.87,240.49,106.78,241,106.7,241.4Z" style="fill:#37474f"></path><path d="M105,251.19h80.58c.16-.39.34-.86.54-1.38H105.21Q105.08,250.52,105,251.19Z" style="fill:#37474f"></path><path d="M103.38,261h83.17l-.27-1.37H103.6C103.52,260.08,103.45,260.54,103.38,261Z" style="fill:#37474f"></path><polygon points="100.72 270.76 188.46 270.76 188.19 269.38 101.26 269.38 100.72 270.76" style="fill:#37474f"></polygon><polygon points="96.88 280.54 190.36 280.54 190.09 279.17 97.42 279.17 96.88 280.54" style="fill:#37474f"></polygon><path d="M133.65,178.29c.5,2.1,11.2,16.11,20.8,15.62,3.12-.17,2.42-13.17,2.42-13.17l4.16-19-23.86-15S133.45,177.4,133.65,178.29Z" style="fill:#ad6359"></path><path d="M161,161.77l-4,18.08A37.55,37.55,0,0,1,135.7,159c.77-6.55,1.48-12.28,1.48-12.28Z" style="fill:#263238"></path><path d="M184.76,134.22c4.73,31.47-13.59,37.85-20.37,38.86-6.16.92-27.26,3.26-35.21-27.55s5.18-43,19.16-45.8S180,102.75,184.76,134.22Z" style="fill:#ad6359"></path><path d="M177.12,132.16a19.91,19.91,0,0,1-2.17-.32,3.56,3.56,0,0,1-2.16-.75,1.14,1.14,0,0,1-.08-1.38,2.83,2.83,0,0,1,2.72-.83,4.12,4.12,0,0,1,2.67,1.3A1.21,1.21,0,0,1,177.12,132.16Z" style="fill:#263238"></path><path d="M155,133.4c.74-.13,1.4-.38,2.12-.58a3.63,3.63,0,0,0,2-1,1.14,1.14,0,0,0-.09-1.38,2.8,2.8,0,0,0-2.8-.49,4.14,4.14,0,0,0-2.49,1.62A1.2,1.2,0,0,0,155,133.4Z" style="fill:#263238"></path><path d="M160.13,138.43c0-.08-.17.12-.15.21.25,2.15.18,4.66-1.71,5.54-.06,0-.05.14,0,.12C160.65,143.76,160.71,140.43,160.13,138.43Z" style="fill:#263238"></path><path d="M158,136.34c-3.49,0-3.16,7,.07,7S160.93,136.31,158,136.34Z" style="fill:#263238"></path><path d="M156.65,136.78c-.59.42-1.16,1.15-1.89,1.25s-1.52-.57-2.11-1.25c-.06-.07-.12,0-.12.08,0,1.34.62,2.69,2.07,2.83s2.2-1.11,2.47-2.47C157.12,137,156.89,136.61,156.65,136.78Z" style="fill:#263238"></path><path d="M172.89,136.93c0-.08.17.1.17.19,0,2.16.4,4.64,2.39,5.29a.06.06,0,0,1,0,.12C173,142.28,172.56,139,172.89,136.93Z" style="fill:#263238"></path><path d="M174.73,134.59c3.47-.4,4,6.58.8,6.95S171.82,134.93,174.73,134.59Z" style="fill:#263238"></path><path d="M176.22,134.94c.58.33,1.18.95,1.84.95s1.27-.81,1.71-1.57c0-.08.1,0,.11.06.14,1.33-.19,2.76-1.45,3.11s-2.1-.75-2.52-2.05C175.83,135.2,176,134.81,176.22,134.94Z" style="fill:#263238"></path><path d="M161.79,157.33c.52.51,1,1.2,1.82,1.27a5.73,5.73,0,0,0,2.33-.55.08.08,0,0,1,.1.11,2.92,2.92,0,0,1-2.75,1.18,2.3,2.3,0,0,1-1.71-1.91C161.55,157.3,161.71,157.26,161.79,157.33Z" style="fill:#263238"></path><path d="M171.25,148.32s.64,3.2.73,4.72c0,.15-.36.24-.88.3,0,0,0,0-.06,0a7.24,7.24,0,0,1-7.19-2.29.15.15,0,0,1,.21-.22,11,11,0,0,0,6.73,1.5c.08-.43-1.27-5.45-1-5.48a13.24,13.24,0,0,1,3.5.58c-1.13-6.71-3.32-13.19-4.35-19.89a.21.21,0,0,1,.39-.12c2.79,6.62,4.26,14.32,5.6,21.22C175.08,149.5,171.88,148.54,171.25,148.32Z" style="fill:#263238"></path><path d="M170.94,152.69a9,9,0,0,1-3.26,3.16,4,4,0,0,1-2.42.41c-1.81-.27-2-1.88-1.86-3.29a9.77,9.77,0,0,1,.56-2.21A11.55,11.55,0,0,0,170.94,152.69Z" style="fill:#263238"></path><path d="M167.68,155.85a4,4,0,0,1-2.42.41c-1.81-.27-2-1.88-1.86-3.29C165.31,153,167.32,154,167.68,155.85Z" style="fill:#ff98b9"></path><path d="M164.07,104.84s1.22,4.89-.49,8.38c-3.52,7.19-12.17,5.18-15.17,8-2.8,2.65-1.9,8.21-4.44,10.87-3.53,3.66-8.25,2.17-8.85,4.66s-2.35,10.43-5.53,11.4S112.47,96,153.88,98.2c0,0,5.71-2.26,14.48,2.31,9.68,5,13.73,21.19,13.73,21.19s-.2-.22-1.61-1.5c-2-1.79-2.73-3.44-4.18-4.61-2.28-1.83-3.55-1.16-5.93-3C166.76,109.92,164.07,104.84,164.07,104.84Z" style="fill:#263238"></path><path d="M163.47,102.53a28.57,28.57,0,0,1,1.13,6.39,11.68,11.68,0,0,1-.95,6.17,8.58,8.58,0,0,1-4.8,3.66c-2,.71-4.15.89-6.28,1.71a6.43,6.43,0,0,0-2.8,2.07,8.61,8.61,0,0,0-1.26,3.18c-.46,2.13-.93,4.23-2.36,5.74a7.17,7.17,0,0,1-5.58,2.27c-2.09,0-4.39-.64-6.44.26,2.12-.73,4.24.05,6.41.24a7.76,7.76,0,0,0,6.17-2.22c1.72-1.62,2.21-4,2.7-6.07a7.82,7.82,0,0,1,1.14-2.82,5.5,5.5,0,0,1,2.4-1.69c1.91-.79,4.11-1,6.21-1.79a11.53,11.53,0,0,0,3-1.58,6.81,6.81,0,0,0,2.21-2.6,12.31,12.31,0,0,0,.76-6.58A29.26,29.26,0,0,0,163.47,102.53Z" style="fill:#263238"></path><path d="M164.24,104.44a22.49,22.49,0,0,0,1.94,5.76,10.57,10.57,0,0,0,4.1,4.64,15.75,15.75,0,0,0,2.86,1.16,4.91,4.91,0,0,1,2.22,1.53,14.34,14.34,0,0,0,1.77,2.48,6.69,6.69,0,0,0,2.61,1.57,7.37,7.37,0,0,1-2.23-1.91A14.8,14.8,0,0,1,176,117.1a5.24,5.24,0,0,0-2.53-2A16.23,16.23,0,0,1,170.8,114a11.31,11.31,0,0,1-3.9-4.16A44.55,44.55,0,0,1,164.24,104.44Z" style="fill:#263238"></path><path d="M135.89,144.58s-7-9.9-11.49-7.4.81,16.87,6.11,18.82a5.38,5.38,0,0,0,7.19-2.93Z" style="fill:#ad6359"></path><path d="M126,141.26a.08.08,0,0,0,0,.15c3.71,1.48,5.68,4.91,7.07,8.47-1.11-1.37-2.62-2.11-4.45-.79-.09.07,0,.22.1.2a3.3,3.3,0,0,1,3.65,1.13,15.89,15.89,0,0,1,1.76,2.94c.18.33.78.15.65-.23l0-.08C134.82,148.31,131.1,141.71,126,141.26Z" style="fill:#263238"></path><path d="M224,266.68c3.42,6,.75,38.05-7.86,63.78-2.08,6.19-44.37,9.73-43.78,2.76.78-9.26,12.34-61.83,13.7-64C194.67,255.87,220,259.65,224,266.68Z" style="fill:#ad6359"></path><path d="M165.62,374.34c3.92,2.47,7.57-.63,7.57-.63a9.87,9.87,0,0,0,4.81,4.68c3.78,1.5,7.79-3.77,7.79-3.77a12.18,12.18,0,0,0,5.86,4.13c3.77,1.08,8.57-3.66,8.57-3.66a10.66,10.66,0,0,0,7.44.38c6.46-2.31,8.68-12.54,10.16-19s-.4-26.29-.38-30.09l-41.57-9.86S161,343.7,160.3,351.58C159.75,358.22,161.23,371.57,165.62,374.34Z" style="fill:#ad6359"></path><path d="M173,373.57c-1.1-7.2,0-14.33.66-21.51,0-.16.26-.13.25,0-.76,7.13-.09,14.32-.56,21.47A.18.18,0,0,1,173,373.57Z" style="fill:#263238"></path><path d="M185.53,374.62a18.78,18.78,0,0,1,.38-4.95q.38-2.61.84-5.2.93-5.21,2.12-10.36c0-.15.28-.13.25,0-.61,3.46-1.17,6.92-1.64,10.4-.23,1.74-.45,3.49-.66,5.23a22.5,22.5,0,0,1-.81,4.9A.25.25,0,0,1,185.53,374.62Z" style="fill:#263238"></path><path d="M200.24,374.94a13.24,13.24,0,0,1,.58-4.44c.31-1.57.62-3.15.92-4.72.59-3.16,1.18-6.31,1.67-9.48,0-.16.27-.14.25,0-.48,3.23-.91,6.46-1.42,9.68-.24,1.58-.5,3.17-.77,4.74A12.26,12.26,0,0,1,200.4,375,.09.09,0,0,1,200.24,374.94Z" style="fill:#263238"></path><path d="M175.87,316.49q-4.06,7.83-7.86,15.8c-3.48,8-8.22,15.9-7.46,24.88.33,5,1.26,15.41,6.42,17.64a7.81,7.81,0,0,0,6.17-1.17l.08-.06.05.09c1.26,2.27,3.19,5.14,6.11,5-2.94.21-4.94-2.65-6.26-4.92l.13,0a7.69,7.69,0,0,1-4.14,1.56c-5.09.71-7-5.44-8-9.33-1.2-5.75-2-11.92-.46-17.66,3.7-11.22,9.52-21.59,15.26-31.85Z" style="fill:#263238"></path><path d="M222.44,328.46l-51-6.64s1-4.77,2.42-11.49c.61-2.83-2.39-6-1.62-9.32,3.16-13.68,11-29.69,13.84-33.2,5.13-6.38,29.86-16.26,38.25-3,2.81,4.43,5.42,24.5,3.76,41-.31,3.1-4.28,8.63-4.58,11.27C222.68,324.26,222.44,328.46,222.44,328.46Z" style="fill:#455a64"></path><path d="M201.25,259.6h16.81A13,13,0,0,1,220.6,261H197.1C198.43,260.46,199.82,260,201.25,259.6Zm-17.1,11.16h42.17q-.16-.72-.33-1.38H185C184.71,269.79,184.44,270.25,184.15,270.76Zm-4.85,9.78h48.54c-.05-.47-.1-.92-.15-1.37H179.91C179.71,279.62,179.5,280.07,179.3,280.54Zm-3.9,9.79h53.12c0-.46,0-.92-.05-1.38H175.89C175.73,289.4,175.56,289.86,175.4,290.33Zm-3,9.78h56c0-.46,0-.91,0-1.37H172.79C172.66,299.2,172.54,299.66,172.44,300.11Zm1.46,9.79h52.74c.22-.47.44-.93.63-1.38H173.81A4.32,4.32,0,0,1,173.9,309.9Zm-2.05,9.78h51.37c0-.44.09-.9.14-1.37H172.14C172,318.81,171.94,319.27,171.85,319.68Zm47.76,8.41,2.84.37s0-.12,0-.37Z" style="fill:#37474f"></path><path d="M219.43,315.48c-7.21-.52-36.49-3.68-42.72-4.8-.43-.07-.46-.37,0-.35,21.68,1,35.75,4,42.75,4.86C219.64,315.21,219.61,315.49,219.43,315.48Z" style="fill:#263238"></path><path d="M199.55,259.85c-4.94,3.09-10.27,5.82-14,10.3-4.26,8-7.71,16.45-11.26,24.77a38.28,38.28,0,0,0-2.06,6.09,25.57,25.57,0,0,1,1.11-6.42,109.75,109.75,0,0,1,10.8-25.5c4.05-4.54,9.93-7,15.42-9.24Z" style="fill:#263238"></path><path d="M116.53,196.75c-5.65,18.16-16.65,59-17.72,71-1,11.26,9.18,56,9.07,62.88-.15,8.69,45.87,2.49,45-3.42-.6-4.19-17.26-58.37-18.1-63.07-1.7-9.51-1.42-48.18-3.06-67.11C130,177.45,120.39,184.33,116.53,196.75Z" style="fill:#ad6359"></path><path d="M157.46,380.85c-4.2,2.21-7.7-1.24-7.7-1.24a10.13,10.13,0,0,1-5.29,4.41c-4,1.24-7.67-4.46-7.67-4.46a12.48,12.48,0,0,1-6.32,3.76c-3.93.8-8.47-4.42-8.47-4.42a11,11,0,0,1-7.64-.19c-6.42-2.87-7.9-13.51-8.9-20.27s2.47-26.85,2.75-30.75l43.29-6.82s13.12,29,13.17,37.12C164.73,364.82,162.17,378.36,157.46,380.85Z" style="fill:#ad6359"></path><path d="M149.94,379.48c1.69-7.28,1.14-14.66,1-22.05a.13.13,0,0,0-.25,0c.21,7.36-1,14.66-1.12,22A.18.18,0,0,0,149.94,379.48Z" style="fill:#263238"></path><path d="M137.07,379.58a19.35,19.35,0,0,0,0-5.1c-.12-1.8-.27-3.59-.45-5.39q-.54-5.38-1.35-10.75c0-.16-.28-.16-.26,0,.35,3.59.65,7.18.86,10.77.1,1.8.18,3.6.26,5.4a23.31,23.31,0,0,0,.44,5.08A.26.26,0,0,0,137.07,379.58Z" style="fill:#263238"></path><path d="M122,378.75c.35-1.43-.07-3.15-.24-4.59-.2-1.63-.39-3.27-.57-4.9-.36-3.28-.72-6.55-1-9.83,0-.16-.27-.16-.25,0,.23,3.33.42,6.67.68,10,.13,1.63.27,3.27.42,4.91a12.63,12.63,0,0,0,.76,4.41A.1.1,0,0,0,122,378.75Z" style="fill:#263238"></path><path d="M151.51,320.87c5.06,10.95,10.2,22,13.1,33.78,1.16,6-.17,12.24-1.85,18-1.38,3.9-3.8,10-8.94,8.91a7.89,7.89,0,0,1-4.12-1.91l.13,0c-1.53,2.21-3.79,5-6.78,4.54,3,.38,5.22-2.47,6.69-4.71a7.56,7.56,0,0,0,4.13,1.76c4.95.92,7-5,8.28-8.76,1.61-5.66,2.84-11.85,1.74-17.68-2.83-11.68-7.83-22.82-12.38-33.93Z" style="fill:#263238"></path><path d="M107,333.39l52-7.8s-1.83-5.36-4.43-13.06c-.87-2.58.9-5.79-.1-8.78-6.14-18.26-18.08-45.39-18.79-48.85-1.17-5.72-.73-40.08-.22-52.39,1.38-33-13.6-21-19.94-5.85-4.14,9.89-18.84,55-20.08,69.77-1.55,18.47-1.09,31.94,1.83,45.5.66,3.1,5.9,7,6.51,9.51C105.58,328.87,107,333.39,107,333.39Z" style="fill:#455a64"></path><path d="M107,333.39l52-7.8s-1.83-5.36-4.43-13.06c-.87-2.58.9-5.79-.1-8.78-6.14-18.26-18.08-45.39-18.79-48.85-1.17-5.72-.73-40.08-.22-52.39,1.38-33-13.6-21-19.94-5.85-4.14,9.89-18.84,55-20.08,69.77-1.55,18.47-1.09,31.94,1.83,45.5.66,3.1,5.9,7,6.51,9.51C105.58,328.87,107,333.39,107,333.39Z" style="fill:#455a64"></path><path d="M125.61,182.69h6.45C130.28,180.91,128,181.15,125.61,182.69Z" style="fill:#37474f"></path><path d="M117.52,192.47h17.77c0-.48-.1-.93-.16-1.37H118.3Z" style="fill:#37474f"></path><path d="M113.38,202.26h22.09c0-.47,0-.92.05-1.37H113.88C113.72,201.33,113.55,201.78,113.38,202.26Z" style="fill:#37474f"></path><path d="M110,212.05h25.17l0-1.38H110.46C110.31,211.12,110.16,211.58,110,212.05Z" style="fill:#37474f"></path><path d="M106.83,221.83H135c0-.46,0-.91,0-1.37H107.26C107.12,220.91,107,221.37,106.83,221.83Z" style="fill:#37474f"></path><path d="M103.82,231.62h31.12q0-.69,0-1.38H104.23C104.09,230.7,104,231.16,103.82,231.62Z" style="fill:#37474f"></path><path d="M101,241.4h34c0-.45,0-.91,0-1.37H101.37Z" style="fill:#37474f"></path><path d="M98.38,251.19h36.9c0-.43-.05-.89-.08-1.38H98.73C98.61,250.27,98.5,250.74,98.38,251.19Z" style="fill:#37474f"></path><path d="M96.22,261h41.64l-.54-1.37H96.48C96.39,260.07,96.3,260.53,96.22,261Z" style="fill:#37474f"></path><path d="M95.1,270.76h46.71l-.56-1.38h-46C95.16,269.84,95.13,270.3,95.1,270.76Z" style="fill:#37474f"></path><path d="M94.63,280.54h51.12c-.19-.46-.37-.92-.55-1.37H94.66C94.65,279.63,94.63,280.09,94.63,280.54Z" style="fill:#37474f"></path><path d="M94.61,289c0,.46,0,.92,0,1.38h54.94l-.54-1.38Z" style="fill:#37474f"></path><path d="M95.2,298.74c0,.46.09.92.14,1.37H153.2c-.16-.45-.32-.91-.49-1.37Z" style="fill:#37474f"></path><path d="M96.58,308.52c.09.46.17.92.27,1.38h57.51c0-.45.1-.91.17-1.38Z" style="fill:#37474f"></path><path d="M101.76,318.31c.4.47.77.93,1.09,1.37H157c-.16-.43-.31-.89-.47-1.37Z" style="fill:#37474f"></path><path d="M105.48,328.09c.14.49.26,1,.38,1.38h27.26l9.2-1.38Z" style="fill:#37474f"></path><path d="M151.08,313.47c-7.18,1.43-36.66,6.2-43.06,6.79-.44,0-.54-.24-.08-.34,21.48-4.84,36-5.7,43.11-6.74C151.23,313.15,151.27,313.43,151.08,313.47Z" style="fill:#263238"></path><path d="M149.86,291.11c-5.38-11.71-11.05-23.29-15.16-35.53-.5-8.8-.25-17.64-.15-26.44q.18-10.78.8-21.56c.71,12.43.91,30.48,1.13,43.11,0,.9,0,3.12.11,4a3.75,3.75,0,0,0,.19,1.15c4,11.56,9.14,23.71,13.08,35.3Z" style="fill:#263238"></path><path d="M137.09,212.72A17.42,17.42,0,0,1,135.7,222a27.8,27.8,0,0,1,1.39-9.23Z" style="fill:#263238"></path></g><g id="freepik--Floor--inject-40"><path d="M58.88,458.07c202.53-.61,429.71-.62,632.24,0-202.53.62-429.71.61-632.24,0Z" style="fill:#263238"></path></g></svg>
