<svg xmlns="http://www.w3.org/2000/svg" viewBox="0 0 750 500"><g id="freepik--background-complete--inject-55"><path d="M656.56,306.3a28.26,28.26,0,0,0-.86,12.3c1.29,8.61,7.78,15.44,9.18,23.92-.18,1-.39,2.05-.66,3.08v.07h0v0a.12.12,0,0,0,.08.09c.06-.12.11-.24.16-.35s.2-.42.29-.64.25-.6.36-.92c0,0,.07-.13.07-.18,3.16-8.71.26-18.38-1.21-27.22-.85-5.06-.49-10.16-1.24-15.2-.19-1.2-.18-3.48-1.91-3C658.86,298.79,657.05,304.68,656.56,306.3Z" style="fill:#ebebeb"></path><path d="M657.83,313.73c-.54,10.49,9.12,19.65,6.88,30.13-.07.29-.14.58-.22.88l-.18.6h0l-.09.25v.07h0v0a.12.12,0,0,0,.08.09h0a.08.08,0,0,0,.08-.06c.12-.31.23-.63.33-.94a13.86,13.86,0,0,0,.53-2.32h0a33.45,33.45,0,0,0-.2-14c-1.2-5.95-2.72-11.72-3.81-17.73-.13-.75-.13-3.67-1.33-3.29C658.41,307.92,657.9,312.52,657.83,313.73Zm.52-1.56c.09-.59.85-4.53,1.83-4.12.59.25.66,3.23.75,3.65.35,1.62.69,3.24,1,4.86.75,3.41,1.51,6.81,2.25,10.22a45,45,0,0,1,1.16,12.6C664.84,330.2,656.82,321.69,658.35,312.17Z" style="fill:#fff"></path><path d="M654.05,407c0,.14.11.33.3.21,7.94-5.11,17.85-1,26.07-5.51a42,42,0,0,0,8.83-7.06,33.53,33.53,0,0,0,5.38-6.39c.19-.32,1.2-1.62,1-2.26-1.26-4.9-14,3.38-16.11,4.55-8.32,4.54-15.93,8.68-23.22,14.5-.76.59-1.52,1.22-2.27,1.86C654,406.87,654,406.91,654.05,407Z" style="fill:#ebebeb"></path><path d="M654.05,407l.86-.54c5.46-2.62,11.54-3.55,17.41-5a32.74,32.74,0,0,0,15.39-8.29c.77-.76,4-3.67,3-5.13s-4.1,1.22-4.89,1.67c-5.91,3.31-11.69,6.67-17.85,9.52-3.94,1.82-7.93,3.64-11.68,5.85-.76.59-1.52,1.22-2.27,1.86C654,406.87,654,406.91,654.05,407Zm3.71-2.21c4.34-2.43,8.9-4.45,13.43-6.6q4.65-2.2,9.12-4.78c1.62-.95,3.24-1.92,4.88-2.85.83-.47,1.65-.93,2.48-1.37.41-.23,1.77-1,2.12-.38.93,1.7-8.19,10.36-19.5,12.6A70.2,70.2,0,0,0,657.76,404.74Z" style="fill:#fff"></path><path d="M667.26,391.91a.08.08,0,0,0,0,.11.08.08,0,0,0,.12,0c.17-.16.33-.31.49-.48.61-.59,1.19-1.19,1.75-1.8.1-.12.21-.22.31-.34a.12.12,0,0,0,.09,0c6.35-6.49,16-8.47,21.37-16a36.26,36.26,0,0,0,5.09-11.17c.5-1.7,2.94-6.89.8-8.24-1.67-1-4.27,1.23-5.36,2.2-3.46,3.07-5.91,7.36-8.31,11.25s-4.51,7.73-6.75,11.59a75.34,75.34,0,0,1-7.1,9.93C669,389.92,668.11,390.92,667.26,391.91Z" style="fill:#ebebeb"></path><path d="M667.26,391.91a.08.08,0,0,0,0,.11c.52-.54,1-1.09,1.57-1.62l-1,1.13c.61-.59,1.19-1.19,1.75-1.8l.84-1a102.5,102.5,0,0,1,11.7-9.69,21.46,21.46,0,0,0,5.27-5.23c2.66-3.81,6.78-12.78,6-14.14s-2.45,1.51-2.91,2.13c-3.69,5-6.69,10.51-10.66,15.36-2.67,3.25-5.38,6.48-8.09,9.72-.68.66-1.35,1.33-2,2C669,389.92,668.11,390.92,667.26,391.91ZM692.82,360c.7.29-.36,2.7-.64,3.34a100.4,100.4,0,0,1-4.46,9.08c-1.75,3.1-4.25,5.14-7.12,7.16a74.47,74.47,0,0,0-6.86,5.45c2.69-3,5.34-6.11,7.83-9.3,2-2.66,3.84-5.49,5.66-8.3.91-1.41,1.82-2.81,2.78-4.18.26-.38,2.18-3.51,2.81-3.25" style="fill:#fff"></path><path d="M620,432a.07.07,0,0,0,.07.07s.07,0,.08-.07l.12-.6c.14-.74.27-1.47.38-2.21,0-.13,0-.26.06-.4a.18.18,0,0,0,.05-.07c1.39-8,7.47-14.28,7.66-22.54a32.52,32.52,0,0,0-1.88-10.78c-.5-1.51-1.31-6.56-3.57-6.47-1.75.07-2.53,3.06-2.84,4.32-1,4-.63,8.39-.44,12.47s.57,8,.87,11.93a65.88,65.88,0,0,1-.22,10.89C620.21,429.63,620.09,430.78,620,432Z" style="fill:#ebebeb"></path><path d="M620,432a.07.07,0,0,0,.07.07c.1-.66.21-1.33.33-2,0,.45-.09.89-.13,1.32.14-.74.27-1.47.38-2.21,0-.37.08-.75.13-1.13a90.88,90.88,0,0,1,3.72-13,19.24,19.24,0,0,0,1.24-6.51c0-4.14-1.45-12.82-2.72-13.42s-1,2.35-1.07,3c-.18,5.56.37,11.1-.11,16.67-.32,3.74-.69,7.49-1,11.23-.17.83-.32,1.66-.45,2.5C620.21,429.63,620.09,430.78,620,432Zm1.32-8.32c.44-3.59.85-7.19,1.07-10.79.17-3,.06-6,0-9,0-1.5-.08-3-.06-4.48,0-.4-.17-3.68.43-3.8s1.09,2.17,1.21,2.77c.55,2.94,1,6,1.3,8.94a19.83,19.83,0,0,1-1.63,8.85A65.38,65.38,0,0,0,621.29,423.63Z" style="fill:#fff"></path><path d="M619.05,438.56a1.21,1.21,0,0,0,.62-.21c8.12-3.11,17-3.25,25.17-6.36a23.65,23.65,0,0,0,9.49-6.25c1.09-1.23,4.86-5.49,4-7.46-2.49-5.94-29.9,12.77-38.91,19.49a2,2,0,0,0-.42.28C618.76,438.31,618.8,438.54,619.05,438.56Z" style="fill:#ebebeb"></path><path d="M619.05,438.56l1.82-1c2-.79,4-1.54,6-2.18,3.22-1,6.53-1.62,9.8-2.44a31.17,31.17,0,0,0,13.7-7.32c.84-.77,3.34-2.84,2.8-4.28s-2.55,0-3.27.32c-10.31,4.92-20.34,10.57-30.33,16.13l-.53.26C618.76,438.31,618.8,438.54,619.05,438.56Zm4.79-2.62q5.86-3.19,11.75-6.34c3.08-1.65,6.15-3.27,9.24-4.89,1.53-.8,3-1.62,4.59-2.39.6-.31,3-1.5,3.17-.66s-1.4,2.43-1.69,2.73c-4.64,4.77-10.58,7.22-16.94,8.64A74.21,74.21,0,0,0,623.84,435.94Z" style="fill:#fff"></path><path d="M658,369.92a.38.38,0,0,0,0,.32.41.41,0,0,0,.36.25.62.62,0,0,0,.23,0,.19.19,0,0,0,.14-.05c3.84-3.75,9.69-7.25,13.64-10.85a41.56,41.56,0,0,0,7.61-9.59,56.52,56.52,0,0,0,5.61-12.49c.62-2.07,2.41-7,.72-9-3.46-4.21-10.47,11.1-11.48,12.81C669.13,350.8,663.5,360.33,658,369.92Z" style="fill:#ebebeb"></path><path d="M657.93,370.24a.41.41,0,0,0,.36.25l.67-1c1.5-1.76,3-3.52,4.61-5.2,2.6-2.74,5.57-5.11,8.09-7.93,4.37-4.92,12.58-20.59,10.22-22.15-1.23-.82-2.75,2.41-3.2,3.17-1.76,3-3.14,6.24-4.94,9.24-1.89,3.15-4,6.19-6,9.22-3.19,4.68-6.39,9.33-9.52,14.05Zm3.15-3.8q4.24-6.19,8.43-12.43c1.94-2.87,3.85-5.77,5.57-8.77,1-1.68,1.83-3.41,2.69-5.15.42-.84.84-1.69,1.33-2.5S681,334,681.73,335s-1.38,5.66-1.87,6.74c-.8,1.74-1.62,3.47-2.51,5.17a44.72,44.72,0,0,1-6.3,9.41c-2.53,2.8-5.5,5.17-8.06,8C662.35,365,661.71,365.72,661.08,366.44Z" style="fill:#fff"></path><path d="M612,377.55c7.06,7.67,18.44,9.8,22.6,23.24,0,0,.07,0,.1,0a0,0,0,0,0,0-.05c-.26-1.36-.56-2.71-.93-4.05A58.59,58.59,0,0,0,624,376.57a44.19,44.19,0,0,0-9.53-9.34c-1.86-1.31-5.88-4.67-8.2-4.15C601.27,364.2,610.69,376.16,612,377.55Z" style="fill:#ebebeb"></path><path d="M612.4,372.83c2.85,5.58,8.48,9.19,12.8,13.53a50.75,50.75,0,0,1,7.8,9.87c.59,1.51,1.14,3,1.68,4.58a0,0,0,0,0,0-.05c-.26-1.36-.56-2.71-.93-4.05l-.12-.21a62.38,62.38,0,0,0-5.86-11.73A64.59,64.59,0,0,0,616.16,371c-.78-.7-3.34-3.74-4.67-3S612,372.06,612.4,372.83Zm-.47-4.32c1-.37,5.5,4.13,7.27,6A64.84,64.84,0,0,1,629,387.64a62.9,62.9,0,0,1,3.1,6.41,51.29,51.29,0,0,0-5.11-6.39c-3.89-4.17-8.76-7.51-12.28-12a18.14,18.14,0,0,1-2.34-3.81C612.16,371.33,611,368.84,611.93,368.51Z" style="fill:#fff"></path><path d="M620.73,335.71a47.91,47.91,0,0,0-.07,11.29A47,47,0,0,0,628,367.34c.07.1.14.22.22.33.06.35.13.71.22,1.06a2.21,2.21,0,0,0,0,.25l0,0h0a.09.09,0,0,0,.16-.07c0-.44,0-.89,0-1.33.14-9.08,1.82-18,.6-27.07-.27-2-1.56-15-6.1-12.76C621.1,328.84,621,333.82,620.73,335.71Z" style="fill:#ebebeb"></path><path d="M622.55,337.54c-.32,5.6,1.15,11.61,2.3,17.06A130.28,130.28,0,0,0,628,367.34c.1.34.22.68.33,1,0,.12.07.25.11.37a1.09,1.09,0,0,0,.07.3h0a.09.09,0,0,0,.16-.07c0-.44,0-.89,0-1.33s-.19-.66-.27-1a105.76,105.76,0,0,1-.56-14.91c0-2.71,0-5.4-.26-8.1a36.47,36.47,0,0,0-1.15-7.86c-.36-1.09-1.09-3.24-2.61-2.44C622.58,334,622.62,336.36,622.55,337.54Zm3.33-1.89a39.68,39.68,0,0,1,1.31,9.47c.21,2.95.18,5.91.15,8.86a92.83,92.83,0,0,0,.22,9.43c-1.08-3.93-2.11-7.88-2.88-11.92-.6-3.16-1.13-6.34-1.49-9.53a24.27,24.27,0,0,1-.17-5,14.28,14.28,0,0,1,.24-1.74C623.66,333.42,625.45,334.32,625.88,335.65Z" style="fill:#fff"></path><path d="M676.5,312.12l-.09.44a.27.27,0,0,0,.34.3.26.26,0,0,0,.19-.21c.06-.26.13-.53.19-.79h0l.15-.64a10.91,10.91,0,0,1,.63-1c2.41-3.65,6.58-6.73,9.41-9.84a57.58,57.58,0,0,0,7-9.09,28.18,28.18,0,0,0,4-10.84c.13-1,.63-3.67-.68-4.33-1.64-.83-4.16,2.33-5,3.15a47.41,47.41,0,0,0-7.86,9.76C680.39,296.16,678.13,304,676.5,312.12Z" style="fill:#ebebeb"></path><path d="M677.23,310.32a15.42,15.42,0,0,0-.73,1.8l-.09.44a.27.27,0,0,0,.34.3,2.81,2.81,0,0,1,.1-.31c.09-.23.18-.46.28-.69h0c.24-.57.5-1.12.78-1.67a37.23,37.23,0,0,1,3.53-5.62c2.31-3.08,4.74-6.08,6.94-9.26,1.1-1.59,9.56-13.83,6.23-15-.62-.23-1.23.61-1.57,1a25.91,25.91,0,0,0-3,4.1c-2.12,3.32-4.12,6.73-6,10.18A110.51,110.51,0,0,0,677.23,310.32Zm6.06-12.65c1.61-3.06,3.33-6.07,5.12-9,.87-1.44,1.74-2.9,2.69-4.29.47-.69,2.85-3.8,3.5-3.39,1,.6-1.31,5.43-2,6.74-.79,1.48-1.65,2.93-2.54,4.35-1.81,2.86-3.81,5.6-5.87,8.28-1.81,2.39-4,4.91-5.67,7.65A109.28,109.28,0,0,1,683.29,297.67Z" style="fill:#fff"></path><path d="M647.41,354.73c.05.15.1.28.14.42a.27.27,0,0,0,.45.09.24.24,0,0,0,.06-.27l-.24-.78h0c-.06-.21-.12-.41-.19-.62,0-.4,0-.81,0-1.21.25-4.36,2.32-9.12,3.21-13.23a58.17,58.17,0,0,0,1.49-11.37,28.3,28.3,0,0,0-1.94-11.41c-.41-1-1.3-3.49-2.75-3.41-1.84.11-2.43,4.1-2.79,5.26a47.11,47.11,0,0,0-1.9,12.37C642.76,339,644.73,346.86,647.41,354.73Z" style="fill:#ebebeb"></path><path d="M647.14,352.8a17.57,17.57,0,0,0,.27,1.93c.05.15.1.28.14.42a.27.27,0,0,0,.45.09,1.65,1.65,0,0,1-.07-.32c0-.24-.07-.48-.11-.73h0c-.07-.61-.12-1.22-.16-1.83a37.24,37.24,0,0,1,.24-6.63c.45-3.83,1-7.64,1.35-11.49.15-1.92,1.33-16.76-2.14-16.1-.65.11-.75,1.15-.87,1.61a25.51,25.51,0,0,0-.57,5.08c-.17,3.93-.19,7.88-.09,11.82A108,108,0,0,0,647.14,352.8Zm-1.11-14c-.14-3.47-.16-6.93-.1-10.39,0-1.68.05-3.38.17-5.06.06-.83.56-4.71,1.33-4.69,1.13,0,1.6,5.36,1.65,6.83.06,1.69,0,3.37,0,5.05-.13,3.38-.49,6.75-.92,10.1-.37,3-1,6.24-1.07,9.47A110,110,0,0,1,646,338.83Z" style="fill:#fff"></path><path d="M627.59,360.83a210.32,210.32,0,0,0,4.79,23.31c1.6,5.94,3.23,12,3.46,18.15A46.44,46.44,0,0,1,630.22,425q3.25-3.63,6.44-7.37c4.32-5.07,8.62-10.28,11.69-16.23.3-.59.57-1.19.85-1.78a.24.24,0,0,1,0-.15,80,80,0,0,0,1.55-23.93,66.46,66.46,0,0,0-5.21-12,53.43,53.43,0,0,1-5.4-12.14c-.06-.25.29-.4.39-.15,2.2,5.79,6.74,11.43,9.42,17.43-.16-1-.32-2-.5-3-1.74-9.51-5-19.06-1.55-28.56.11-.32.57-.1.47.21-3.28,10.58,1.88,22.24,3.41,32.76,1.13,7.82,1.51,16.24-.38,24A126.58,126.58,0,0,0,654.85,381c6-26.67,12.9-53.2,25.87-77.44.13-.24.51-.07.38.17-13.27,26.31-18.53,54.9-25.45,83.25l-.24,1a53.55,53.55,0,0,1,8.33-10.08.17.17,0,0,1,.26.22c-3.8,4.87-6.7,10.2-10.13,15.29a55.45,55.45,0,0,1-5,11.41,89.76,89.76,0,0,1-8.82,12.08c5.41-4.55,10.88-9,16-14a244.28,244.28,0,0,0,21.66-23.82c.09-.13.27,0,.18.15a202,202,0,0,1-21.55,25.71c-6.74,6.7-14,13.53-22.05,18.68-7.73,8.9-16,17.85-25.79,24.37-.46.31-.9-.34-.5-.7,1.8-1.59,3.55-3.22,5.29-4.85,1.69-3.78,4-7.23,5.53-11.14a62,62,0,0,0,3.59-14.19c0-.36.56-.27.54.08-.4,6.64-1.89,14.82-5.44,21.16q3.71-3.68,7.28-7.46c6.35-9.7,10.49-21.23,9.1-32.84-.71-6-2.42-11.73-3.82-17.55a129.91,129.91,0,0,1-2.93-19.62A.22.22,0,0,1,627.59,360.83Z" style="fill:#ebebeb"></path><path d="M135.91,323.22c1.37,3.78,1.09,8.43.92,12.37A97.94,97.94,0,0,1,135.26,349c-.75,4.13-1.7,8.23-2.72,12.3l0,.11c-.06.27-.13.54-.2.8s-.08.67-.14,1a.21.21,0,0,1-.17.17c-.11,0-.23-.05-.21-.19s0-.37.05-.55c.66-7.64-3.74-14.61-4-22.18-.14-4.14.85-8.3,1.63-12.35.42-2.24.53-5.15,1.4-7.26.23-.56.29-1.16.92-1.46C133.7,318.52,135.43,321.9,135.91,323.22Z" style="fill:#ebebeb"></path><path d="M134.1,326.05c-1.2-1-1.91,1.75-2.14,2.5-1.58,5-2.45,11.05-1.55,16.27,1,5.74,2,11.48,1.59,17.3l-.17.56c0,.18,0,.37-.05.55s.1.2.21.19,0-.23,0-.35c.17-.54.32-1.08.46-1.63l0-.11a110.06,110.06,0,0,0,2-11.91,77.24,77.24,0,0,0,.89-16.84,36.91,36.91,0,0,0-.51-4.06C134.81,327.85,134.69,326.53,134.1,326.05Zm.67,3.4c.22,1.42.36,2.85.44,4.29a78.88,78.88,0,0,1-.86,14.8,108.17,108.17,0,0,1-2.11,12.68,44.08,44.08,0,0,0-.42-9.93c-.34-2.48-.86-4.92-1.23-7.4a27.8,27.8,0,0,1,.3-8.34,35.1,35.1,0,0,1,1.67-7.72c.19-.49.75-1.58,1.18-1.5C134.49,326.46,134.69,328.89,134.77,329.45Z" style="fill:#fff"></path><path d="M101.6,381.56s0,0,0,0" style="fill:#ebebeb"></path><path d="M132.19,434.33a.21.21,0,0,1,.09.23h0a.19.19,0,0,1-.15.15.3.3,0,0,1-.16,0c-4.67-2.36-9.14-6.13-14.55-6.4-4.24-.22-7.88.3-11.9-1.43a32.14,32.14,0,0,1-10.77-7.73,33.3,33.3,0,0,1-3.67-4.84c-.51-.83-2.18-2.9-1.95-4,1.09-5,15.84,3.87,17.8,5.06,8.67,5.28,17.49,11.21,24.73,18.37a.1.1,0,0,1,0,.09.14.14,0,0,1,0,.08Z" style="fill:#ebebeb"></path><path d="M132.19,434.33l-.57-.39a.14.14,0,0,0,0-.08c-4.79-3.64-9.88-6.94-15-10.11a148.52,148.52,0,0,0-17-9.56c-.8-.36-4.15-2.37-4.85-1.07s2.78,4.28,3.52,4.94c4.37,3.91,10.08,5.7,15.59,7.32,3.59,1.06,7.1,2.06,10.31,4,2.69,1.66,5.19,3.62,7.86,5.3a.19.19,0,0,0,.15-.15c-1.36-.87-2.69-1.83-4-2.77l4,2.76A.21.21,0,0,0,132.19,434.33ZM120.11,427c-5.37-2.09-11.12-3-16.29-5.65a23,23,0,0,1-6.68-5c-.36-.39-2.11-2.14-1.71-2.84.26-.47,1.66,0,1.86,0a40.4,40.4,0,0,1,4.46,2c5,2.57,10,5.49,14.77,8.48,2.68,1.66,5.29,3.38,7.89,5.15A26.42,26.42,0,0,0,120.11,427Z" style="fill:#fff"></path><path d="M110.87,331.49c.58,4.48-.33,9.16-1.55,13.47-2.83,10-8.3,19.25-10,29.54-.07.4-.13.81-.18,1.21s0,.4-.15-.23h0c-.75-2.73-3.35-14.8-2.16-23.46.75-5.4,2.61-10.5,4.48-15.59,1.06-2.91,2.1-5.82,3.19-8.72.35-.93.85-3.58,2.25-3.78C109.42,323.52,110.63,329.73,110.87,331.49Z" style="fill:#ebebeb"></path><path d="M106.15,332.39a.91.91,0,0,0-1.21.31,4.69,4.69,0,0,0-.59,1.77c-.27,1.06-.55,2.12-.82,3.17C101.64,345,99.1,352.41,98.4,360a62.15,62.15,0,0,0,.54,15v.49h0c.17.63.24.76.15.23s.11-.81.18-1.21c0-.57,0-1.13.06-1.69a45.66,45.66,0,0,1,2.55-11.34A115.48,115.48,0,0,0,107,340a22.18,22.18,0,0,0,.16-4.95C107.12,334.26,106.94,332.78,106.15,332.39Zm.66,2.36a7.89,7.89,0,0,1,.1,1.08,20.31,20.31,0,0,1,0,2.34c-.14,1.88-.43,3.73-.75,5.59A157.27,157.27,0,0,1,101,363.1a40.75,40.75,0,0,0-2,9.69,82.78,82.78,0,0,1-.42-8.32c0-7.12,2-13.86,3.77-20.7.43-1.69.87-3.39,1.31-5.08.21-.85.43-1.69.65-2.53l.32-1.28c.22-.85.09-1.2,1-1.46C106.83,333.1,106.65,333.76,106.81,334.75Z" style="fill:#fff"></path><path d="M118,373.19a56,56,0,0,1,2.72,10.24c1.16,7,.09,15.09,1.93,22.07.16.45.31.92.44,1.38l.14.53c0,.09-.13.14-.17.06-.15-.3-.29-.59-.45-.89v0l-.24-.46c-3.47-6.79-7.92-13-9.4-20.62-.91-4.7-2.36-17.63.74-18.61C115.05,366.43,117.21,371.18,118,373.19Z" style="fill:#ebebeb"></path><path d="M115.15,373.88c-.74.35-.71,1.8-.76,2.4a30,30,0,0,0,.18,4.83,48,48,0,0,0,1.74,8.79,95.7,95.7,0,0,0,6,16.2l.24.46v0c.16.3.3.59.45.89,0,.08.19,0,.17-.06l-.14-.53c-2.29-6-3.24-12.26-4-18.63C118.85,386.82,117.7,372.68,115.15,373.88Zm2.32,5.74c.22,1.33.4,2.67.58,4,.42,3.13.77,6.27,1.23,9.39a72.64,72.64,0,0,0,2.12,10.11,122.41,122.41,0,0,1-4.24-11.54,66.86,66.86,0,0,1-1.92-7.87,33.86,33.86,0,0,1-.45-4.38c0-.7-.32-4.75.52-5.1C116.35,373.82,117.37,379,117.47,379.62Z" style="fill:#fff"></path><path d="M147.55,359.38c1.71,2.1.9,6.3,0,8.51a20,20,0,0,1-6.39,7.74c-3.86,3.05-8.16,5.4-11.41,9.17s-2.18,2.6-4.44,7.38c0,.09-.13.09-.21,0a.91.91,0,0,1-.14-.76.59.59,0,0,0,0-.13c2.08-7.85,6.11-14,11.45-20.17,3-3.47,4.86-7.87,8-11.22C145.59,358.67,146.37,357.93,147.55,359.38Z" style="fill:#ebebeb"></path><path d="M145.73,363.51c-1.15-.55-2.61,1.8-3.2,2.65a49.15,49.15,0,0,1-5.52,7,61.13,61.13,0,0,0-5.39,5.76,39.6,39.6,0,0,0-5.85,10.52,20.45,20.45,0,0,0-.84,2,.91.91,0,0,0,.14.76l.09-.26a27,27,0,0,1,9.52-12.27c4.4-3.34,8.55-7,10.9-12.16C146,366.59,146.8,364,145.73,363.51Zm-.18,3.34a22.86,22.86,0,0,1-1.31,2.56,26.52,26.52,0,0,1-3.11,4.18,48.57,48.57,0,0,1-6.94,6,29.53,29.53,0,0,0-7.26,7.72,40.59,40.59,0,0,1,5.46-8.93c2-2.43,4.41-4.4,6.45-6.76.94-1.09,1.77-2.26,2.61-3.43l1.33-1.9c.39-.57,1.65-2.57,2.5-2.4C146.37,364.12,145.7,366.5,145.55,366.85Z" style="fill:#fff"></path><path d="M75.59,339.55c6.94,7.85,13.4,16.09,19.55,24.57a.27.27,0,0,1,0,.33l0,.05a1.63,1.63,0,0,1,.11.17.11.11,0,0,1,0,.16.05.05,0,0,0,0,0h0a.14.14,0,0,1-.12,0c-4.33-4.25-8.4-8.22-13.85-11-5-2.57-9.9-4.7-14.23-8.34-3.7-3.13-14.19-18.52-12.48-22.2C55.6,320.78,70.06,333.32,75.59,339.55Z" style="fill:#ebebeb"></path><path d="M67,334.32c-.91-.88-3.57-4.32-5.26-3.62s1,4.18,1.51,4.92a50.25,50.25,0,0,0,6.17,7.63c2.35,2.29,5.13,3.8,7.84,5.59,6.66,4.4,12.53,10.13,17.88,16h0a.05.05,0,0,1,0,0,.11.11,0,0,0,0-.16,1.63,1.63,0,0,0-.11-.17l0-.05C86.76,353.54,76.82,343.88,67,334.32ZM94.55,364.1a111.54,111.54,0,0,0-11.82-11.49c-4.89-4.1-10.81-6.74-15-11.62a37.8,37.8,0,0,1-5.56-7.7c-.18-.37-.87-1.62-.41-2.12s1.61.11,3.11,1.48c1.23,1.13,2.41,2.35,3.61,3.52,4.74,4.63,9.45,9.28,14,14.09Q88.76,357,94.55,364.1Z" style="fill:#fff"></path><path d="M104.49,397a.23.23,0,0,1,0,.11.19.19,0,0,1-.23.12l-.66-.21-.06,0c-5-.64-9,.2-13.78,1.42a22,22,0,0,1-10.75,0,36.49,36.49,0,0,1-10.83-4.89c-1.37-.88-5.73-2.83-5-5.23,1.17-3.93,14.41,1.19,16.7,1.94a106.42,106.42,0,0,0,12.4,3.32c4.15.8,8.31,1.48,12.17,3.28A.15.15,0,0,1,104.49,397Z" style="fill:#ebebeb"></path><path d="M101.85,396.43h0c-2.4-.55-4.79-1.2-7.21-1.62-2.71-.48-5.48-.42-8.2-.88-5.09-.89-9.93-2.74-15-3.86-.65-.14-2-.4-1.6.72.14.49.84.88,1.21,1.14A22.9,22.9,0,0,0,74.63,394a29.93,29.93,0,0,0,13.75,3.26c5.43-.25,10.71-1.27,16.08-.12a.23.23,0,0,0,0-.11A17.39,17.39,0,0,0,101.85,396.43Zm-11.76.33a29.89,29.89,0,0,1-17.09-4c-.48-.29-1.75-1.1-2.19-1.46s-1-1.1.57-.9a8.51,8.51,0,0,1,1.11.26c1.3.33,2.59.69,3.89,1.06,2.75.78,5.5,1.61,8.31,2.2a51.56,51.56,0,0,0,7.54.9,61.23,61.23,0,0,1,9.09,1.55C97.61,395.9,93.79,396.47,90.09,396.76Z" style="fill:#fff"></path><path d="M90.17,386.27a.36.36,0,0,1,0,.23.21.21,0,0,1,0,.11.38.38,0,0,1-.09.13l0,0a.33.33,0,0,1-.35,0,17.07,17.07,0,0,1-2.12-1c-8.23-3.14-16.66-6.45-23.35-12.27a54,54,0,0,1-8.95-10.14c-1.26-1.83-4.73-5.66-3.58-8.21s3.39-.91,4.93.13a116,116,0,0,1,11.53,8.7,63.71,63.71,0,0,1,9.63,10.47c3.37,4.6,6.6,9.36,12.15,11.45A.38.38,0,0,1,90.17,386.27Z" style="fill:#ebebeb"></path><path d="M75,374.64a137.66,137.66,0,0,0-15-13.62c-.68-.55-2.66-2-3-.38-.36,1.86,2.39,4.06,3.44,5.16a105.6,105.6,0,0,0,12.87,11.69,59.3,59.3,0,0,0,16.86,9.12.21.21,0,0,0,0-.11c-10-3.7-18.6-10.17-26.13-17.55-1.82-1.79-3.65-3.58-5.32-5.51-.26-.31-1.79-2.39-1.2-2.95s2.67,1.2,2.93,1.42c1.2,1,2.39,2,3.59,3A168.45,168.45,0,0,1,76.71,377a40.28,40.28,0,0,0,13.46,9.49.36.36,0,0,0,0-.23C84.14,383.61,79.48,379.43,75,374.64Z" style="fill:#fff"></path><path d="M75,300.69A40.09,40.09,0,0,1,81.54,313c2,7,1.89,14.22,2.89,21.33a.22.22,0,0,0,0,.08,47.71,47.71,0,0,0,1.13,5.74c.1.4.21.8.33,1.21a.24.24,0,0,1,0,.24.26.26,0,0,1-.16.09.33.33,0,0,1-.17,0h0a.32.32,0,0,1-.19-.19c-.2-.57-.38-1.15-.55-1.73a.15.15,0,0,1-.09-.07c-4.24-8.88-9.06-17.84-13.89-26.62A71.54,71.54,0,0,1,65.32,301c-.82-2.5-1.81-6.36,0-8.67a.56.56,0,0,1,.48-.27C69.84,292.7,72.85,297.69,75,300.69Z" style="fill:#ebebeb"></path><path d="M70.61,301.25c-1.92-.62-1.53,1.66-1.22,2.81a79.53,79.53,0,0,0,3.39,9q2,5,4.19,9.87c2.72,6.17,6.53,12.31,8.55,18.78,0,0,0,0,0,0h0a.33.33,0,0,0,.17,0,.26.26,0,0,0,.16-.09c-.1-.48-.19-1-.29-1.45-.39-1.91-.76-3.83-1.13-5.74a.22.22,0,0,1,0-.08c-1.82-9.21-3.82-18.34-8.66-26.78C74.64,305.61,73,302,70.61,301.25Zm5.74,8.06a66.3,66.3,0,0,1,6.11,16.86c1.06,4.66,1.77,9.38,2.74,14.05-1.34-3.75-3.3-7.32-5-11q-4-8.56-7.51-17.3c-.56-1.4-1.12-2.81-1.66-4.22-.49-1.25-1.52-3.2-1.53-4.57,0-2.65,2.2-.85,2.92-.07a15.54,15.54,0,0,1,1.62,2.26Q75.29,307.31,76.35,309.31Z" style="fill:#fff"></path><path d="M133.74,348.57a194.43,194.43,0,0,1-5.25,25.63c-2.16,7.73-4.41,15.45-5.46,23.42-1.39,10.59-.43,22.19,5,31.39a124.9,124.9,0,0,1-21.25-35.53c-8.69-21.83-16.57-44.27-27.12-65.3-.18-.35-.66-.08-.53.27,4.32,11.48,9.4,22.68,13.83,34.13s8.48,22.89,13.08,34.18c.5,1.22,1,2.42,1.55,3.62-6.74-8.35-16.62-14.51-26.32-18.07-.13-.05-.18.14-.06.19a68.17,68.17,0,0,1,18.7,12.43c4.83,4.45,8.5,9.61,12.39,14.82A105.16,105.16,0,0,0,149,448.05c.16.1.32-.15.16-.26a105,105,0,0,1-17-14.24c-8.68-11.48-9.08-26.81-6.5-40.74,1.36-7.31,3.29-14.48,5-21.7s3.67-14.95,3.49-22.52A.21.21,0,0,0,133.74,348.57Z" style="fill:#ebebeb"></path><rect x="479.79" y="143.26" width="212.13" height="10.22" transform="translate(1171.7 296.74) rotate(180)" style="fill:#ebebeb"></rect><rect x="668.62" y="153.48" width="10.22" height="33.8" style="fill:#ebebeb"></rect><rect x="668.62" y="153.48" width="10.22" height="10.45" style="fill:#dbdbdb"></rect><rect x="492.85" y="153.48" width="10.22" height="33.8" style="fill:#ebebeb"></rect><rect x="492.85" y="153.48" width="10.22" height="10.45" style="fill:#dbdbdb"></rect><rect x="607.64" y="102.49" width="65.14" height="16.4" transform="translate(750.9 -529.52) rotate(90)" style="fill:#c7c7c7"></rect><rect x="636.63" y="70.02" width="7.16" height="16.4" transform="translate(718.43 -561.99) rotate(90)" style="fill:#dbdbdb"></rect><rect x="638.88" y="84.1" width="2.66" height="16.4" transform="translate(732.51 -547.91) rotate(90)" style="fill:#dbdbdb"></rect><rect x="635.61" y="121.91" width="7.16" height="18.45" transform="translate(770.32 -508.05) rotate(90)" style="fill:#dbdbdb"></rect><rect x="588.28" y="99.54" width="75.98" height="11.46" transform="translate(731.54 -521.01) rotate(90)" style="fill:#dbdbdb"></rect><rect x="611.71" y="85.59" width="29.22" height="6.88" transform="translate(715.36 -537.29) rotate(90)" style="fill:#ebebeb"></rect><rect x="532.04" y="106.76" width="75.98" height="11.46" transform="translate(1054.53 -208.22) rotate(135.33)" style="fill:#c7c7c7"></rect><rect x="551.45" y="112.92" width="29.22" height="6.88" transform="translate(1050.46 -198.8) rotate(135.33)" style="fill:#dbdbdb"></rect><rect x="581.96" y="104.68" width="57.72" height="19.47" transform="translate(725.23 -496.4) rotate(90)" style="fill:#a6a6a6"></rect><rect x="608.13" y="124.73" width="5.38" height="19.47" transform="translate(745.28 -476.35) rotate(90)" style="fill:#c7c7c7"></rect><rect x="609.77" y="117.47" width="2.09" height="19.47" transform="translate(738.02 -483.61) rotate(90)" style="fill:#c7c7c7"></rect><rect x="628.01" y="109.43" width="54.24" height="13.45" transform="translate(771.29 -538.98) rotate(90)" style="fill:#a6a6a6"></rect><rect x="652.61" y="128.27" width="5.06" height="13.45" transform="translate(790.13 -520.14) rotate(90)" style="fill:#c7c7c7"></rect><rect x="652.61" y="96.02" width="5.06" height="13.45" transform="translate(757.88 -552.39) rotate(90)" style="fill:#c7c7c7"></rect><rect x="654.15" y="102.99" width="1.96" height="13.45" transform="translate(764.85 -545.42) rotate(90)" style="fill:#c7c7c7"></rect><rect x="72.12" y="71.22" width="142.8" height="159.32" style="fill:#dbdbdb"></rect><rect x="81.53" y="80.63" width="123.99" height="140.59" style="fill:#ebebeb"></rect><rect x="92.73" y="105.49" width="43.7" height="51.79" style="fill:#fff"></rect><path d="M116.16,109a1.57,1.57,0,1,1-1.57-1.57A1.57,1.57,0,0,1,116.16,109Z" style="fill:#455a64"></path><path d="M101.05,115.86c4.42-.34,8.84-.36,13.26-.41s8.84.07,13.25.41c-4.41.34-8.83.37-13.25.41S105.47,116.2,101.05,115.86Z" style="fill:#ebebeb"></path><path d="M101.05,120a63.51,63.51,0,0,1,14.41,0,56.08,56.08,0,0,1-7.2.42A58.11,58.11,0,0,1,101.05,120Z" style="fill:#ebebeb"></path><path d="M101.05,124.05a91.54,91.54,0,0,1,9.21-.41,88.68,88.68,0,0,1,9.21.41c-3.07.32-6.14.39-9.21.41S104.12,124.37,101.05,124.05Z" style="fill:#ebebeb"></path><path d="M101.05,128.14c3.84-.32,7.68-.39,11.52-.41s7.68.09,11.52.41c-3.84.32-7.68.4-11.52.41S104.89,128.46,101.05,128.14Z" style="fill:#ebebeb"></path><path d="M101.05,132.23c3.34-.32,6.67-.39,10-.41s6.67.09,10,.41c-3.34.33-6.67.4-10,.41S104.39,132.55,101.05,132.23Z" style="fill:#ebebeb"></path><path d="M101.05,136.33c4.27-.34,8.54-.37,12.81-.42s8.54.07,12.81.42c-4.27.34-8.54.36-12.81.41S105.32,136.67,101.05,136.33Z" style="fill:#ebebeb"></path><path d="M101.05,140.42a83.71,83.71,0,0,1,16.55,0,83.71,83.71,0,0,1-16.55,0Z" style="fill:#ebebeb"></path><path d="M101.05,144.51c4.42-.34,8.84-.36,13.26-.41s8.84.07,13.25.41c-4.41.34-8.83.36-13.25.41S105.47,144.85,101.05,144.51Z" style="fill:#ebebeb"></path><path d="M101.05,148.6c4.42-.34,8.84-.36,13.26-.41s8.84.07,13.25.41c-4.41.35-8.83.37-13.25.41S105.47,148.94,101.05,148.6Z" style="fill:#ebebeb"></path><rect x="143.09" y="137.78" width="51.71" height="61.28" style="fill:#fff"></rect><path d="M170.52,146.05a1.57,1.57,0,1,1-1.57-1.58A1.57,1.57,0,0,1,170.52,146.05Z" style="fill:#455a64"></path><path d="M150.33,153.07a35.63,35.63,0,0,1,5.73-.41,34.64,34.64,0,0,1,5.74.41,40.32,40.32,0,0,1-11.47,0Z" style="fill:#ebebeb"></path><path d="M150.33,157.69a59.53,59.53,0,0,1,7.42-.41,57.83,57.83,0,0,1,7.43.41,67.44,67.44,0,0,1-14.85,0Z" style="fill:#ebebeb"></path><path d="M150.33,162.31a51.13,51.13,0,0,1,6.88-.41,49.72,49.72,0,0,1,6.88.41,57.93,57.93,0,0,1-13.76,0Z" style="fill:#ebebeb"></path><path d="M150.33,166.93a51.13,51.13,0,0,1,6.88-.41,49.72,49.72,0,0,1,6.88.41,57.93,57.93,0,0,1-13.76,0Z" style="fill:#ebebeb"></path><path d="M150.33,171.55a43.74,43.74,0,0,1,11.95,0,43.74,43.74,0,0,1-11.95,0Z" style="fill:#ebebeb"></path><path d="M150.33,176.17a71.57,71.57,0,0,1,15.3,0,71.57,71.57,0,0,1-15.3,0Z" style="fill:#ebebeb"></path><path d="M150.33,180.79a48.76,48.76,0,0,1,12.62,0,48.76,48.76,0,0,1-12.62,0Z" style="fill:#ebebeb"></path><path d="M150.33,185.41a76.6,76.6,0,0,1,15.83,0,67.78,67.78,0,0,1-7.92.41A69.86,69.86,0,0,1,150.33,185.41Z" style="fill:#ebebeb"></path><path d="M150.33,190a76.6,76.6,0,0,1,15.83,0,67.78,67.78,0,0,1-7.92.41A69.86,69.86,0,0,1,150.33,190Z" style="fill:#ebebeb"></path><path d="M172.93,153.07a61,61,0,0,1,7.51-.41,59,59,0,0,1,7.51.41,69,69,0,0,1-15,0Z" style="fill:#ebebeb"></path><path d="M172.93,157.69a26.5,26.5,0,0,1,4.94-.41,25.81,25.81,0,0,1,4.94.41,30,30,0,0,1-9.88,0Z" style="fill:#ebebeb"></path><path d="M172.93,162.31a54,54,0,0,1,7.07-.41,52.24,52.24,0,0,1,7.06.41,61.08,61.08,0,0,1-14.13,0Z" style="fill:#ebebeb"></path><path d="M172.93,166.93a51.13,51.13,0,0,1,6.88-.41,49.49,49.49,0,0,1,6.87.41,57.85,57.85,0,0,1-13.75,0Z" style="fill:#ebebeb"></path><path d="M172.93,171.55a69,69,0,0,1,15,0,69,69,0,0,1-15,0Z" style="fill:#ebebeb"></path><path d="M172.93,176.17a43.74,43.74,0,0,1,11.95,0,43.74,43.74,0,0,1-11.95,0Z" style="fill:#ebebeb"></path><path d="M172.93,180.79a61.08,61.08,0,0,1,14.13,0,61.08,61.08,0,0,1-14.13,0Z" style="fill:#ebebeb"></path><path d="M172.93,185.41a36.63,36.63,0,0,1,10.93,0,32.42,32.42,0,0,1-5.47.41A33.46,33.46,0,0,1,172.93,185.41Z" style="fill:#ebebeb"></path><path d="M172.93,190a33.75,33.75,0,0,1,10.49,0,30,30,0,0,1-5.25.41A30.77,30.77,0,0,1,172.93,190Z" style="fill:#ebebeb"></path><rect x="132.42" y="91.25" width="26.3" height="26.3" style="fill:#c7c7c7"></rect><path d="M147.14,93.92a1.58,1.58,0,1,1-1.57-1.57A1.57,1.57,0,0,1,147.14,93.92Z" style="fill:#455a64"></path><rect x="201.85" y="80.63" width="3.55" height="140.75" style="fill:#c7c7c7"></rect><circle cx="375" cy="100.3" r="49.17" transform="translate(11.12 235.51) rotate(-35.36)" style="fill:#ebebeb"></circle><circle cx="377.25" cy="101.4" r="46.92" transform="translate(108.28 384.69) rotate(-61.53)" style="fill:#dbdbdb"></circle><circle cx="377.25" cy="101.4" r="43.96" transform="translate(-10.27 150.66) rotate(-22.29)" style="fill:#fff"></circle><path d="M420.21,92.07c-20,12.13-52.91,32-71.3,42.93a43.89,43.89,0,0,1-12-16.15l60.81-56.36A44,44,0,0,1,420.21,92.07Z" style="fill:#ebebeb;opacity:0.5"></path><path d="M421.18,102.93a43.78,43.78,0,0,1-2.91,14.29l-54.82,25.92a42.92,42.92,0,0,1-6.92-3C373.09,130.6,403.35,113.19,421.18,102.93Z" style="fill:#ebebeb;opacity:0.5"></path><rect x="376.83" y="60.63" width="0.85" height="6.66" style="fill:#c7c7c7"></rect><rect x="358.11" y="65.65" width="0.85" height="6.66" transform="translate(13.54 188.48) rotate(-30)" style="fill:#c7c7c7"></rect><rect x="344.41" y="79.35" width="0.85" height="6.66" transform="translate(100.8 339.96) rotate(-60)" style="fill:#c7c7c7"></rect><rect x="336.49" y="100.97" width="6.66" height="0.85" style="fill:#c7c7c7"></rect><rect x="341.5" y="119.69" width="6.66" height="0.85" transform="matrix(0.87, -0.5, 0.5, 0.87, -13.85, 188.55)" style="fill:#c7c7c7"></rect><rect x="355.2" y="133.39" width="6.66" height="0.85" transform="translate(63.53 377.6) rotate(-60.04)" style="fill:#c7c7c7"></rect><rect x="376.83" y="135.5" width="0.85" height="6.66" style="fill:#c7c7c7"></rect><rect x="395.54" y="130.49" width="0.85" height="6.66" transform="matrix(0.87, -0.5, 0.5, 0.87, -13.86, 215.92)" style="fill:#c7c7c7"></rect><rect x="409.25" y="116.78" width="0.85" height="6.66" transform="translate(100.78 414.81) rotate(-59.99)" style="fill:#c7c7c7"></rect><rect x="411.36" y="100.97" width="6.66" height="0.85" style="fill:#c7c7c7"></rect><rect x="406.34" y="82.26" width="6.66" height="0.85" transform="translate(13.58 216.02) rotate(-30.02)" style="fill:#c7c7c7"></rect><rect x="392.64" y="68.55" width="6.66" height="0.85" transform="translate(138.43 377.56) rotate(-60.03)" style="fill:#c7c7c7"></rect><polygon points="377.89 63.65 379.34 104.36 375.17 104.31 376.76 63.64 377.89 63.65" style="fill:#c7c7c7"></polygon><polygon points="403.25 87.2 375.86 104.68 373.87 101.02 402.71 86.2 403.25 87.2" style="fill:#a6a6a6"></polygon><path d="M378.68,101.4a1.43,1.43,0,1,1-1.43-1.42A1.43,1.43,0,0,1,378.68,101.4Z" style="fill:#c7c7c7"></path></g><g id="freepik--character-4--inject-55"><path d="M600.12,219.5c-5.8,33-22.67,90.57-40.1,82C534,288.68,509.28,252,499.42,237.18c-5.53-8.32,35.13-34.78,40.07-27.21,7,10.77,21.59,33.23,26.16,35.79,2.4,1.34,12.22-23.89,21.21-36.94C599.81,190,602,209,600.12,219.5Z" style="fill:#ad6359"></path><path d="M511.69,252c-8.75-8.78-20.28-21.9-20.48-27.56-.21-5.94-.12-26.86,1.47-31.71s8.09-27,12.31-28.71c3.37-1.41,7.73,6.61,4.71,17.17-2.66,9.29-2.86,15-3.53,17.68s2.26,13,6.3,13.85c2.38.53,8.36-3,9.34-7.32s-4.74-9.88-4.95-15.8,5-12.07,7.06-11.12,1.22,3.69,4.62,11.47c2.19,5,11.2,12.07,14.09,21.84,1.45,4.91,7,15.76,7,15.76Z" style="fill:#ad6359"></path><path d="M516.75,184.13a8,8,0,0,0,1-4.29,3.23,3.23,0,0,0-.75-1.71,3.17,3.17,0,0,0-.8-.65,1.49,1.49,0,0,0-1-.27c-.1,0-.1-.13,0-.11s.41,0,.61,0a2.28,2.28,0,0,1,.51.09,2.72,2.72,0,0,1,.89.47,3.29,3.29,0,0,1,1.15,1.87,5.55,5.55,0,0,1-1.46,4.67A.07.07,0,0,1,516.75,184.13Z" style="fill:#263238"></path><path d="M491.21,224.42c-2.52-6.8-5.28-21.43-2.32-31.6,2-6.87,24.82-18.42,27.91-15.23s.74,6.33-3.33,10.55c-1.48,1.53-11.46,8-10.75,11,1,4.23,8.13,14,8.13,14Z" style="fill:#ad6359"></path><path d="M515.09,177c-5.46-.58-11.24,2.88-16.57,6.63-.09.05,0,.19.08.13,1.36-1,11.19-6.2,16.51-6.66C515.17,177.11,515.15,177,515.09,177Z" style="fill:#263238"></path><path d="M491.21,224.42c-2.52-6.8-5.28-21.43-2.32-31.6,2-6.87,24.41-12.7,27.5-9.51s0,7.9-5.53,11.56c-1.78,1.18-9.66,3.69-8.94,6.63,1,4.23,3.67,14.63,3.67,14.63Z" style="fill:#ad6359"></path><path d="M503.78,209.92c-.39-1.09-.53-1.46-.9-2.55s-.73-2.18-1-3.29a8.83,8.83,0,0,1-.48-3,4.43,4.43,0,0,1,1.24-2.53c1.46-1.6,3.74-2.32,5.69-3.15,2.17-.92,6.26-3.15,7.95-5.95a6.35,6.35,0,0,0,1-2.47,4,4,0,0,0,0-2c-1.05-2.57-4.3-2.82-6.93-2.56-4.9.5-9.71,2.52-14.08,4.71-1.07.54-2.12,1.1-3.18,1.67a9.68,9.68,0,0,0-3.29,2.46c-1.38,1.79-1.79,6.13-1.93,7.47,0,.1-.16.06-.15,0,.15-1.63,0-6.08,2.34-8.87a11.47,11.47,0,0,1,3.31-2.25c1.2-.68,2.43-1.33,3.68-1.94a51.22,51.22,0,0,1,7.48-3.05,21.66,21.66,0,0,1,7.72-1.28A6.35,6.35,0,0,1,517.6,185c.72,1.79-.25,3.73-.74,4.58a11.11,11.11,0,0,1-1.76,2.28,46.72,46.72,0,0,1-5.24,3.88c-1.82,1.09-4,1.71-5.68,3a3.78,3.78,0,0,0-1.63,2.47,10,10,0,0,0,.27,3,30.32,30.32,0,0,0,1.25,5.57C504.24,210.21,503.94,210.37,503.78,209.92Z" style="fill:#263238"></path><path d="M493.71,230c-1.45-2.9-9.55-12.09-11.09-16.16s-5.27-20.2-1.85-23.8c4.31-4.53,9.31,7.39,11,12.77s8.27,9.67,8.27,9.67Z" style="fill:#ad6359"></path><path d="M488.44,194.53a55.82,55.82,0,0,0,1.77,5.35,36.7,36.7,0,0,0,2,5,16.1,16.1,0,0,0,3.34,4.06c.64.59,1.31,1.13,2,1.66s1.57,1.08,2.31,1.67c.07.07.18-.05.1-.11a39.73,39.73,0,0,1-3.69-3.65,22.37,22.37,0,0,1-3.15-4.34c-1.71-3.12-2.74-6.57-4.42-9.71C488.59,194.31,488.41,194.41,488.44,194.53Z" style="fill:#263238"></path><path d="M501.16,213.17c5,3,11.06,3.64,16.79,3.63a25.19,25.19,0,0,1,16.58,5.32A29.34,29.34,0,0,0,518,217.79c-5.77.05-12.17-.91-16.79-4.62Z" style="fill:#263238"></path><path d="M543.35,209.36l-35.8,42.18s2.89,3.45,7,9c1.09,1.47,1.25,11.06,4,14.29,14.16,16.54,37,33.64,48.62,30.61,18.48-4.84,30.71-58.39,34.91-80.82s-2.85-37.79-16.89-14.74-18.83,32.24-19.5,32.15-3.55-8.57-8.77-17.14c-1.28-2.1-6.39-4.79-7.61-6.72C548.34,216.62,543.35,209.36,543.35,209.36Z" style="fill:#455a64"></path><path d="M565,241a130.23,130.23,0,0,1,8.71,14.65c1.32,2.49,2.51,5,3.7,7.6a62,62,0,0,1,3.09,7.78c0,.1-.11.14-.16.06-1.48-2.38-2.77-4.92-4-7.41s-2.6-5-3.87-7.5c-2.54-5-5.28-9.95-7.67-15A.14.14,0,0,1,565,241Z" style="fill:#263238"></path><path d="M546.83,222.93c-1.86,1.95-3.56,4-5.3,6.1s-3.46,4.12-5.16,6.21c-3.38,4.18-6.75,8.38-10.06,12.62-.9,1.16-1.8,2.32-2.69,3.5s-1.74,2.64-2.69,3.89c-.08.09.07.21.15.11.85-1,1.84-1.9,2.71-2.9s1.79-2.08,2.66-3.13c1.72-2.08,3.42-4.16,5.12-6.24,3.39-4.18,6.77-8.37,10-12.66,1.84-2.41,3.76-4.8,5.45-7.33A.14.14,0,0,0,546.83,222.93Z" style="fill:#263238"></path><path d="M540.06,294.81c10.23,7.51,20.48,12.32,27.1,10.59,18.46-4.84,30.7-58.39,34.9-80.82,2.41-12.93,1.2-23.75-3.44-25.88Z" style="opacity:0.1"></path><path d="M604.93,307.9c.78,1,68.08,5.89,71.32,5.06a2.31,2.31,0,0,0,.45-.18c4-1.75,22.85-18.12,24.27-19.5,2.62-2.55-15.63-46.58-30.82-72.92-5.07-8.78-13.29-16.31-15.63-18.73s-44.11-4.49-51.67-1.29c-3.24,1.37-11.23,9.11-11.48,10.52v0C591.11,213,604.16,306.85,604.93,307.9Z" style="fill:#018BDF"></path><path d="M604.93,307.9c.78,1,68.08,5.89,71.32,5.06a2.31,2.31,0,0,0,.45-.18c-6-17.63-34.11-100.38-35-100.93s-40.79-1.4-50.37-1C591.11,213,604.16,306.85,604.93,307.9Z" style="fill:#263238"></path><path d="M632.51,204.36c.7-.62,1.39-9.76.2-11.62-1.33-2.08-17.39-1.51-18.38.21s-1.69,10.85-1.22,11.2,3.14.73,3.52.15.56-8.14.85-8.53,11.54-.82,11.91-.23-.78,8.21-.34,8.56S631.84,205,632.51,204.36Z" style="fill:#37474f"></path><path d="M607.7,448H535.25L567.9,291.74h71.16Z" style="fill:#ad6359"></path><path d="M621.84,391.57h-78l24.1-99.83h71.16S622,390.91,621.84,391.57Z" style="fill:#263238"></path><path d="M554.77,375.66c4.19-.27,8.44-.24,12.64-.3s8.43-.09,12.64-.07c8.43,0,16.85.12,25.28.29,2.3.05,4.6.1,6.91.18s4.92.43,7.38.5a.13.13,0,1,1,0,.25c-2.07,0-4.14.29-6.21.34s-4.29.08-6.44.09H594.32c-8.42,0-16.85-.1-25.27-.36-4.75-.15-9.56-.18-14.29-.56C554.48,376,554.49,375.67,554.77,375.66Z" style="fill:#37474f"></path><polygon points="572.64 291.74 599.69 448.07 607.7 447.99 639.06 291.74 572.64 291.74" style="opacity:0.1"></polygon><path d="M678.91,448H602l-7.52-97-.06-.85-2.46-1.35-1.09-.57c-3.24-1.7-5.67-2.83-7.5-3.58-.52-.21-1-.39-1.4-.54a10.78,10.78,0,0,0-3.47-.93c-.81-2-10.06-48.95-10.54-51.41l0-.1,92.09.1s19.24,39.61,10,71.45C669.47,365.05,674.58,409.05,678.91,448Z" style="fill:#ad6359"></path><path d="M678.91,448H602l-7.52-97-.06-.85-2.46-1.35-1.09-.57c-3.24-1.7-5.67-2.83-7.5-3.58-.52-.21-1-.39-1.4-.54a10.78,10.78,0,0,0-3.47-.93c-.81-2-10.06-48.95-10.54-51.41l0-.1,92.09.1s19.24,39.61,10,71.45C669.47,365.05,674.58,409.05,678.91,448Z" style="fill:#ad6359"></path><path d="M676.7,395.75H596.42l-2-44.78-.06-.85-2.46-1.35-1.09-.57c-3.24-1.7-5.67-2.83-7.5-3.58-.52-.21-1-.39-1.4-.54a10.78,10.78,0,0,0-3.47-.93c-.81-2-10.06-48.95-10.54-51.41l0-.1,92.09.1s21.36,39.17,12.14,71C671.59,364.6,676.7,395.75,676.7,395.75Z" style="fill:#263238"></path><path d="M650.74,332.11c-1.87-.64-9.86-2.27-11.79-3a44.43,44.43,0,0,1-10.39-5.67c-3.24-2.43-5.25-5.67-7-9.28-.91-1.93-5.27-12.35-5.54-12.39a.25.25,0,0,0-.26.13c-.36.67,1,4.54,1.41,5.82.7,2.24,1.38,4.49,2.16,6.7,1.48,4.15,3.55,7.94,7,10.73a35.83,35.83,0,0,0,11.56,6,37.81,37.81,0,0,0,6.56,1.51,17.46,17.46,0,0,0,6.24.11C651.14,332.65,651,332.2,650.74,332.11Z" style="fill:#37474f"></path><path d="M559.34,328.78c.77-.63,4.43-1.18,8-8.15a37.46,37.46,0,0,0,3-8.67c.41-1.79,1.75-10.52,1.86-10.56s.08,0,.1.12c.13.6-.7,8.59-1.06,10.63a32.75,32.75,0,0,1-3.08,10c-3.43,6.07-8.07,7.63-8.86,7.22C559.17,329.29,559.23,328.87,559.34,328.78Z" style="fill:#37474f"></path><path d="M580.44,344.15a163,163,0,0,1,25.66,12,.29.29,0,0,1-.24.53c-8.64-3.71-17.45-7.26-25.88-11.45A.56.56,0,0,1,580.44,344.15Z" style="fill:#37474f"></path><path d="M580.94,294c0-.25.45-.31.45,0-.07,8.65.45,16.25,1.14,24.33.32,3.75,3.22,24.47,9.53,22.95,1.05-.26,1.59-1.33,1.76-3,.2-2-.51-4.4-.82-6.36-.7-4.33-1.25-8.69-1.61-13.07a122.52,122.52,0,0,1,.3-24.52.21.21,0,1,1,.41,0c0,11.32.24,22.62,1.86,33.84.78,5.39,3.4,13.5-2.07,14.34s-9.15-12.74-9.82-16.45C580.19,315.7,580.13,304.5,580.94,294Z" style="fill:#37474f"></path><path d="M592.55,342.19a42.57,42.57,0,0,1,1.74,5.1,11.72,11.72,0,0,1,.72,4.2c0,.27-.39.29-.53.11a14.79,14.79,0,0,1-1.8-4.08c-.59-1.58-1.21-3.14-1.75-4.74A.86.86,0,0,1,592.55,342.19Z" style="fill:#37474f"></path><path d="M604.27,378.7c4.2-.27,8.44-.24,12.65-.3s8.43-.09,12.64-.07c8.43.05,16.85.12,25.27.3,2.31,0,4.61.09,6.91.17,2.47.09,4.92.43,7.38.5.2,0,.19.25,0,.25-2.07,0-4.14.29-6.21.34s-4.3.08-6.44.09c-4.22,0-8.43,0-12.64,0-8.43,0-16.86-.1-25.27-.36-4.76-.15-9.56-.18-14.3-.56C604,379,604,378.71,604.27,378.7Z" style="fill:#37474f"></path><path d="M640.31,164.83a8.87,8.87,0,0,0,5.78-15c3.59-.59,6.76-2.87,7.28-6.8s-2.17-7.39-6-8.48c0,0,0,0,0,.05,3.34,1.36,5.88,4.57,5.34,8.32-.47,3.2-2.68,5-5.39,5.89a9.81,9.81,0,0,0,4-6.73,7.61,7.61,0,0,0-4-7.4c1.61-3,2.27-6.83.71-10a7.59,7.59,0,0,0-7.08-4.36A8.49,8.49,0,0,0,629.22,110a7.13,7.13,0,0,0-8.53-8.45A4.8,4.8,0,0,0,618,97.13a8.09,8.09,0,0,0-6.17-.06,5.71,5.71,0,0,0-4.7-2.83,5.21,5.21,0,0,0-5.18,4.33c-3.26-1.06-6.95-1.75-10.19-.31-2.66,1.18-4.79,3.8-4.67,6.78a10.3,10.3,0,0,0-12.16,9.49,7.24,7.24,0,0,0-5.8,4.33,10.6,10.6,0,0,0-1.05,5.06,5.44,5.44,0,0,0-4.35,4.62,7.18,7.18,0,0,0,2.07,5.78,4.16,4.16,0,0,1-.12,1.83,9.43,9.43,0,0,0,1.78,8.73,6.42,6.42,0,0,0,2.6,9.29A7.23,7.23,0,0,0,575,163a10.47,10.47,0,0,0,2,8.52c1.46,1.84,3.89,3.26,6.2,2.55-.19,1.84,1.6,3.3,3.37,3.58a9.27,9.27,0,0,0,2,.05,7.61,7.61,0,0,1,2.6-.11c.82.24,1.34,1.07,2,1.61a8.34,8.34,0,0,0,1.43,1A9.57,9.57,0,0,0,606.39,178c2.36,2.06,5.74,1.62,8.43.35a16.74,16.74,0,0,0,2.45-1.53,4.24,4.24,0,0,1,2.35-1c.56,0,1.13.09,1.7.07,1.93-.06,3.33-1.29,4.56-2.64C632.4,178.54,640.63,172.48,640.31,164.83Zm-76-35.18a5.74,5.74,0,0,1,3.73-5.47c0,.18,0,.3,0,.3s-.63.48-.91.74a7.21,7.21,0,0,0-1.27,1.68,7.47,7.47,0,0,0-.93,4.24,8.32,8.32,0,0,0,.44,1.9,2,2,0,0,1,.07.23A6.92,6.92,0,0,1,564.35,129.65Zm43.74-33.74a5.51,5.51,0,0,0-5.66,2.81l-.18,0c.79-2.23,2.13-4,4.86-4a4.81,4.81,0,0,1,4.06,2.57h0A6,6,0,0,0,608.09,95.91Zm18,77.12.06-.06a10,10,0,0,0,13-4.88C637.09,173.44,632.19,176.85,626.13,173Z" style="fill:#263238"></path><path d="M659.53,293.25l-92.06-1.89.91-30a27.74,27.74,0,0,1-6.1-19.51c1-12.42,30-46.39,31.93-48.16,7.95-7.06,20.66-7.23,26.67-1.77C653.21,221.38,660,298.57,659.53,293.25Z" style="fill:#455a64"></path><path d="M599.31,256.61a86.38,86.38,0,0,0-14.62.92c-2.42.4-4.8.92-7.19,1.51-1.19.29-2.38.53-3.58.77a13.8,13.8,0,0,1-3.78.34c-.11,0-.14.18,0,.2a22.38,22.38,0,0,0,3.55.37,21.31,21.31,0,0,0,3.47-.31c2.45-.38,4.89-.88,7.34-1.29,4.94-.82,9.87-1.63,14.84-2C599.54,257.06,599.54,256.61,599.31,256.61Z" style="fill:#263238"></path><path d="M610.55,263.07a91.65,91.65,0,0,0-11.84-2.18,60,60,0,0,0-6-.34c-1,0-1.92,0-2.89,0s-2.12.21-3.17.21c-.11,0-.14.2,0,.2,1,0,2,.26,3,.35l3,.29c2,.19,4,.42,6,.59,4,.35,8,.74,11.94,1.25C610.72,263.47,610.75,263.12,610.55,263.07Z" style="fill:#263238"></path><path d="M621.1,189.23c-9.83,6,3.33,60.85,10.74,74.22,3.78,6.8,35.23,35.16,35.69,35s2.27-5.28,1.07-7S644,262.53,640.34,255.88c-6.43-11.65-16.15-63.08-16.2-63.66S622,188.69,621.1,189.23Z" style="fill:#018BDF"></path><path d="M635.21,198.17c31.59,24.37,61.06,63.74,61.5,87.55.43,23.52-7.78,21.31-10.11,21.17-14.22-.8-46.41-63-56.92-89.58C620.08,193.08,627.4,192.14,635.21,198.17Z" style="fill:#455a64"></path><path d="M667.56,288.69c-1.67-2.95-3.39-5.87-5-8.84l-5-8.85c-3.28-5.92-6.61-11.81-9.8-17.78s-6.46-11.88-9.62-17.87q-2.37-4.48-4.63-9c-1.56-3-3-6.08-4.44-9.14A182.29,182.29,0,0,0,637,235.92C640,242,643.14,248,646.33,254s6.63,11.83,10.15,17.62S663.61,283.17,667.56,288.69Z" style="fill:#263238"></path><path d="M632.47,225a27.86,27.86,0,0,0-2-3c-.36-.48-.7-1-1.08-1.44s-.73-1-1.16-1.41a9.28,9.28,0,0,0,1.57,3.33A10.2,10.2,0,0,0,632.47,225Z" style="fill:#263238"></path><path d="M641.35,203.11c-2.23-1.48-6.14-4.94-11.94-8.27a15.65,15.65,0,0,1,6.82,3.39A48.14,48.14,0,0,1,641.35,203.11Z" style="fill:#263238"></path><path d="M601.51,213.75s19.53-15.45,31-13.85l11.29,4.19s1.69,4.54,2.89,2.62c3-4.75,3.67-14.5-5.92-23.46-8.79-8.2-28.53-8.79-41.92-6.72-12.86,2-20.54,8.62-17.55,17.19S601.51,213.75,601.51,213.75Z" style="fill:#455a64"></path><path d="M600.66,209.78s-13.28-11.76-14.12-18,11.94-10.76,20-12.21c12.53-2.24,20.73-.59,26.86,6.62S600.66,209.78,600.66,209.78Z" style="fill:#37474f"></path><path d="M600.66,209.78s16.72-22.53,34.69-23l-2.89,13.16s-10.57-1.09-31,13.85Z" style="fill:#455a64"></path><path d="M637.22,200.64a22.75,22.75,0,0,0-9.65.28,41.71,41.71,0,0,0-9.14,3.15,73.84,73.84,0,0,0-8.51,4.64l-4,2.72L602,214.34l-.44.32-.42-.27a83.37,83.37,0,0,1-9-6.77,46.21,46.21,0,0,1-4-3.88,29.21,29.21,0,0,1-3.44-4.41,49.86,49.86,0,0,0,8.11,7.53c1.46,1.13,3,2.19,4.49,3.23s3.06,2.08,4.62,3l-.86,0,3.93-3c1.34-1,2.72-1.87,4.09-2.78s2.84-1.71,4.3-2.49,2.94-1.51,4.5-2.11a39.05,39.05,0,0,1,9.54-2.75c.82-.14,1.65-.19,2.47-.27s1.66-.06,2.49,0A14.78,14.78,0,0,1,637.22,200.64Z" style="fill:#263238"></path><path d="M645.88,205.88a48.34,48.34,0,0,1-5.78-2.7,45.51,45.51,0,0,1-5.39-3.38,47.59,47.59,0,0,1,5.78,2.71A45.77,45.77,0,0,1,645.88,205.88Z" style="fill:#263238"></path><path d="M608.73,204.87a98.89,98.89,0,0,1,1.45,16.89c0,4-1.7,18.09-6.08,17.51s2.9-9.61,4.26-17.06-.55-12.94-.75-17.42Z" style="fill:#263238"></path><path d="M592.7,203.73a89.39,89.39,0,0,0-3.48,15c-.53,3.54-.81,16.45,3.19,16.5s-1.36-9-1.62-15.86,2.17-11.55,2.93-15.54Z" style="fill:#263238"></path><path d="M616.08,194.14c-.62,1.84-10.83,13.16-19.4,11.9-2.79-.42-1.2-15.74-1.2-15.74l-.14-1.16-2-16.22,19.82-10.09,2.85-1.32s.25,4.47.49,10.05c0,.25,0,.51,0,.79s0,.61,0,.91c0,.83.1,1.68.13,2.52,0,.65,0,1.28,0,1.95l0,2A104.32,104.32,0,0,1,616.08,194.14Z" style="fill:#ad6359"></path><path d="M616.54,171.56a32.75,32.75,0,0,1-21.2,17.58l-2-16.22,19.82-10.09,2.85-1.32S616.3,166,616.54,171.56Z" style="fill:#263238"></path><path d="M571.83,148.07c-4.28,28.34,12.21,34.11,18.32,35,5.55.83,24.55,3,31.75-24.79s-4.63-38.7-17.22-41.28S576.12,119.72,571.83,148.07Z" style="fill:#ad6359"></path><path d="M581.45,143.32a19.39,19.39,0,0,0,2-.13,3.3,3.3,0,0,0,2-.53,1,1,0,0,0,.18-1.26,2.61,2.61,0,0,0-2.44-1,3.84,3.84,0,0,0-2.55,1A1.11,1.11,0,0,0,581.45,143.32Z" style="fill:#263238"></path><path d="M601.37,145.66c-.67-.18-1.26-.46-1.91-.7a3.26,3.26,0,0,1-1.8-1.08,1,1,0,0,1,.18-1.26,2.59,2.59,0,0,1,2.61-.23,3.77,3.77,0,0,1,2.17,1.66A1.12,1.12,0,0,1,601.37,145.66Z" style="fill:#263238"></path><path d="M596.14,152.4c0-.07.13.12.12.2-.39,2-.51,4.26,1.16,5.22.05,0,0,.12,0,.1C595.26,157.25,595.45,154.19,596.14,152.4Z" style="fill:#263238"></path><path d="M598.24,150.64c3.2.29,2.39,6.68-.58,6.41S595.55,150.39,598.24,150.64Z" style="fill:#263238"></path><path d="M599.45,151.13c.51.44,1,1.14,1.64,1.3s1.44-.42,2-1c.07-.06.11,0,.1.09-.13,1.22-.76,2.42-2.1,2.44s-1.94-1.18-2.09-2.45C599,151.27,599.24,151,599.45,151.13Z" style="fill:#263238"></path><path d="M584.29,150c0-.07-.16.08-.17.16-.17,2-.71,4.24-2.58,4.68-.06,0-.06.12,0,.12C583.77,154.9,584.45,151.91,584.29,150Z" style="fill:#263238"></path><path d="M582.77,147.71c-3.16-.62-4.17,5.74-1.24,6.32S585.42,148.24,582.77,147.71Z" style="fill:#263238"></path><path d="M581.38,147.92c-.56.26-1.15.79-1.76.73s-1.11-.83-1.45-1.56c0-.08-.09,0-.11,0-.22,1.21,0,2.54,1.11,3s2-.53,2.46-1.7C581.72,148.19,581.6,147.82,581.38,147.92Z" style="fill:#263238"></path><path d="M592.64,168c-.51.43-1,1-1.77,1a5.13,5.13,0,0,1-2.1-.67c-.06,0-.13,0-.09.09a2.67,2.67,0,0,0,2.44,1.29,2.11,2.11,0,0,0,1.7-1.63C592.86,168,592.71,167.92,592.64,168Z" style="fill:#263238"></path><path d="M585.43,159s-.91,3.35-1.11,4.74c0,.13,4.8,1,7.7-1.69.12-.11,0-.29-.18-.22a10.09,10.09,0,0,1-6.27,1c0-.4,1.55-5.06,1.33-5.11a12.22,12.22,0,0,0-3.26.28c1.53-6.08,4-11.87,5.46-17.95a.19.19,0,0,0-.35-.14c-3,5.88-5,12.84-6.7,19.08C581.82,159.78,584.84,159.13,585.43,159Z" style="fill:#263238"></path><path d="M619.93,157.16c-6-.49-5.26-14.17-5.26-14.17s-10-2.6-13.65-9.75c0,0,2.37,6.13,6.15,8.86.64.45-19.71-3.06-20.53-18.9,0,0-4.11,15.28-13.68,17.79-.46.12,2.37-14,5.61-17.11a29.73,29.73,0,0,1,6.22-4.63,29.43,29.43,0,0,1,21.89-4c12.46,2.72,19.76,16.53,20.33,22C628.13,148,622.76,157.4,619.93,157.16Z" style="fill:#263238"></path><path d="M606.5,142.39c-11.14-1.28-19.53-9-19.65-20.52a.25.25,0,0,0-.5,0c-2.33,11.47,9.59,20.85,20.23,20.76C606.84,142.59,606.76,142.42,606.5,142.39Z" style="fill:#263238"></path><path d="M620,156.53c-5.83-3.54-6.36-9.69-6.38-15.9,0-.18-.31-.21-.33,0-.52,6,.06,13.55,6.46,16.41A.28.28,0,0,0,620,156.53Z" style="fill:#263238"></path><path d="M586.71,120.84c0-.07-.1-.07-.12,0-1.81,6.3-2.85,17.08-11.16,18.12a.17.17,0,0,0,0,.34C583.51,139,587.11,127.52,586.71,120.84Z" style="fill:#263238"></path><path d="M615.44,158.2s6.81-8.54,10.72-6-1.61,15.13-6.48,16.6a4.86,4.86,0,0,1-6.32-3Z" style="fill:#ad6359"></path><path d="M624.49,155.73c.07,0,.08.11,0,.13-3.42,1.14-5.37,4.12-6.8,7.25,1.07-1.17,2.46-1.76,4-.47.08.06,0,.19-.1.17a3,3,0,0,0-3.34.83,13.51,13.51,0,0,0-1.74,2.55c-.18.29-.71.09-.57-.24l0-.08C616.21,161.61,619.89,155.87,624.49,155.73Z" style="fill:#263238"></path><path d="M504.85,194.24l4.84-1.23s32.78,5.6,39.83,17c0,0,16.86-10.27,54.18-3.6l4.85,3.79-61.74,11.78Z" style="fill:#ebebeb"></path><path d="M564.74,283.05l-16.49-70.2s40.64-7.24,61.43-4.28l16.72,73.92S604.88,281.19,564.74,283.05Z" style="fill:#018BDF"></path><path d="M564.74,283.05a316.9,316.9,0,0,0-38.92-17L501.66,193.3s28.74,7.91,46.59,19.55Z" style="fill:#018BDF"></path><path d="M564.74,283.05a316.9,316.9,0,0,0-38.92-17L501.66,193.3s28.74,7.91,46.59,19.55Z" style="opacity:0.1"></path><path d="M546.33,235.1l2.59,9.91-30-11.34-2.8-10.12S539.47,232.05,546.33,235.1Z" style="fill:#455a64"></path><path d="M549.7,248.5l.57,3.21-29.35-11.1L519.51,237S542.84,245.45,549.7,248.5Z" style="fill:#455a64"></path><path d="M692.12,306.45c-10.4,2.11-24-5.2-59.5-27.77-4.92-3.12,7.8-43.73,13.22-40.66,6.82,3.86,32.47,20.33,34.19,21.77C694.57,271.94,699.18,305,692.12,306.45Z" style="fill:#ad6359"></path><path d="M658.72,249.23s-10.53-12.94-18.17-18c-10.22-6.8-21.85-8.46-26.76-8.87-10.26-.84-35.65,4.22-35.47,11.78.16,6.85,25.85.37,25.85.37s-27.28,2.29-25.57,10.5,31.11-1,31.11-1-28,3-24.87,11.17c2.34,6.18,29.44-.67,29.44-.67s-24,2.73-21.89,9.19c2.36,7.15,27.77,2.4,27.77,2.4,8.2,15.52,18.79,19.36,26.42,21.36C648.43,287.92,658.72,249.23,658.72,249.23Z" style="fill:#ad6359"></path><path d="M613.56,233.1c-3.22.15-6.47.28-9.66.72s-6.37,1-9.5,1.72a55.67,55.67,0,0,0-11.93,4c7-2.68,18.39-4.42,21.58-4.86s6.35-1,9.53-1.47C613.66,233.21,613.64,233.09,613.56,233.1Z" style="fill:#263238"></path><path d="M615.35,244.59c-4.1.37-8.18.59-12.26,1.14s-7.87,1.43-11.88,2.26c-.31.07-.17.21.14.16,4-.67,7.83-1,11.88-1.6s8.08-1.39,12.14-1.86C615.43,244.68,615.41,244.58,615.35,244.59Z" style="fill:#263238"></path><path d="M618.66,254.17a91.86,91.86,0,0,0-18.61,3.19c-.3.08-.11.24.21.18,6.16-1.17,11-2.14,18.41-3.15C618.78,254.38,618.79,254.17,618.66,254.17Z" style="fill:#263238"></path><path d="M658.37,243.84l-10.23,49.55s3.26,1.68,9.1,4.26c0,0,5.83,6.33,9.08,7.59,10.35,4,22.77,3.94,26.6.86,7.56-6.09.57-33.88-9.09-44C679.81,257.85,658.37,243.84,658.37,243.84Z" style="fill:#455a64"></path><path d="M658,245.49l.43-1.64-.13.06c3.56,2.55,7.14,5.07,10.67,7.65s7.07,5.14,10.45,7.88a48.54,48.54,0,0,1,4.84,4.3,37.62,37.62,0,0,1,4,5.1,41.39,41.39,0,0,1,5.11,11.94A34.46,34.46,0,0,0,689,268.36a31.29,31.29,0,0,0-3.93-5.38,50.62,50.62,0,0,0-4.9-4.49c-3.44-2.74-7-5.29-10.64-7.75s-7.36-4.78-11.15-7l-.11-.07,0,.12Z" style="fill:#263238"></path><path d="M667,255.42c-.67,2.44-1.13,5-1.65,7.43s-1,5-1.48,7.46c-.92,5-1.82,10-2.65,15-.23,1.37-.46,2.74-.66,4.11s-.25,3-.49,4.43a.09.09,0,0,0,.18,0c.25-1.22.67-2.4,1-3.62s.54-2.53.79-3.79q.74-3.74,1.43-7.47c.94-5,1.84-10,2.61-15,.44-2.83,1-5.67,1.22-8.52A.13.13,0,0,0,667,255.42Z" style="fill:#263238"></path></g><g id="freepik--character-3--inject-55"><path d="M520.42,448H441.14c-3-32-6.23-67.06-8.64-93.82-.07-.72-.14-1.44-.2-2.16-2.23-24.65-3.74-41.68-3.74-41.68h74.23l0,.22C503.39,315,512.6,386.79,520.42,448Z" style="fill:#455a64"></path><path d="M453.61,448h-1.26c-4.5-34.84-7.93-69.81-11-104.8v0c-.14-1.73-.3-3.47-.45-5.21-.51-5.95-1-11.92-1.51-17.87,0-.19.27-.19.29,0q.82,7.92,1.62,15.85c.19,1.92.39,3.83.57,5.75h0c2,20,4,40,6.21,59.92C449.79,417.1,451.6,432.56,453.61,448Z" style="fill:#263238"></path><path d="M492.07,310.33l-10,65.83-.34,2.23-.9,6-.06.41-.24,1.61L471.18,448H434.86c-5.29-29.82-11.05-62.38-15.65-88.33-.08-.47-.16-.92-.24-1.37-5-28-8.49-48-8.49-48Z" style="fill:#263238"></path><path d="M502.86,310.26a2.8,2.8,0,0,0,0,.29c-.59,3.84-5.41,39.86-16,66.87-.08.23-.16.44-.25.67,0,0-1.5.47-4.2,1.54-1,.41-17.27,7-17.69,7.2,0,0-3.67,34.07-5.68,61.16H384.54c2.36-24.73,2.5-35.28,4.79-58.22.47-4.71-2.39-21.83-1.95-26.21a281,281,0,0,1,10.86-53.3Z" style="fill:#455a64"></path><path d="M443.09,330.12a13,13,0,0,0-.33-3.19.16.16,0,0,0-.31,0,13.38,13.38,0,0,0-.36,2.76c-.11,1.06-.24,2.11-.36,3.17a46.63,46.63,0,0,1-1.13,6.42,22.82,22.82,0,0,1-5.88,10.57,30.71,30.71,0,0,1-10,6.56c-4.14,1.75-8.49,2.41-12.77,3.66a.16.16,0,0,0,.05.32,37,37,0,0,0,13.83-2.72A29.5,29.5,0,0,0,436.25,351a23.07,23.07,0,0,0,6.06-10.88,32.35,32.35,0,0,0,.83-6.43A28.94,28.94,0,0,0,443.09,330.12Z" style="fill:#263238"></path><path d="M506.67,352.15c-.57-.64-3.27-1.26-6-8.41a49.31,49.31,0,0,1-2.31-8.87c-.32-1.83-1.41-10.74-1.49-10.79s-.06,0-.07.12c-.09.61.61,8.77.9,10.85a43.88,43.88,0,0,0,2.38,10.23c2.59,6.23,6,7.87,6.59,7.46C506.8,352.67,506.75,352.25,506.67,352.15Z" style="fill:#263238"></path><path d="M487.89,375.67c-10.34,3.55-20.31,8.6-29.85,13.9a.34.34,0,0,0,.28.61c10.05-4.32,20.31-8.45,30.11-13.31A.66.66,0,0,0,487.89,375.67Z" style="fill:#263238"></path><path d="M487.31,317.32c0-.29-.53-.36-.52,0,.08,10.06-.53,18.9-1.33,28.3-.38,4.36-3.74,28.46-11.08,26.69-1.23-.29-1.86-1.54-2.06-3.45-.23-2.3.6-5.11,1-7.39.8-5.05,1.45-10.11,1.86-15.21a142.32,142.32,0,0,0-.35-28.52.24.24,0,1,0-.47,0c0,13.17-.28,26.32-2.17,39.37-.91,6.26-4,15.7,2.41,16.68S485.22,359,486,354.64C488.19,342.57,488.25,329.54,487.31,317.32Z" style="fill:#263238"></path><path d="M473.8,373.39a49.29,49.29,0,0,0-2,5.93,13.66,13.66,0,0,0-.84,4.88c0,.31.46.34.63.13a17.28,17.28,0,0,0,2.08-4.75c.69-1.83,1.41-3.65,2-5.51A1,1,0,0,0,473.8,373.39Z" style="fill:#263238"></path><path d="M405.92,314.05c-2,11.08-4.84,26.37-6.65,37.29-.69,4.64-1.71,9.22-1.65,13.91.34,7.89,1.23,15.76,2,23.63q-2.16,22.2-4.75,44.37c-.61,4.92-1.17,9.83-1.83,14.74.27-4.94.64-9.88,1-14.82,1-14.47,2.33-30.5,3.66-44.18-.85-7.88-1.66-15.76-2-23.69,0-4.78,1.12-9.56,1.92-14.25,2.39-12.42,5.2-24.74,8.29-37Z" style="fill:#263238"></path><path d="M495.39,204.62c12.6,12.23,55.18,66.22,56.86,73.48,7.43,32.06-2.19,55.24-9.33,53.54-18.46-4.39-63.16-95.07-69.67-123.57C470.07,194.14,474.3,184.15,495.39,204.62Z" style="fill:#eb9481"></path><path d="M488.87,261.35l28.73-33.43s-17.43-22-31.28-32.21c-10.57-7.78-15.72-2.43-14.54,6.2C475.74,230.67,488.87,261.35,488.87,261.35Z" style="fill:#018BDF"></path><path d="M511.17,224.42c-4.79,4.83-17.4,18.32-24.45,28.15,0,.06.16.25.21.2,7.1-7.3,20.19-22.84,24.54-28.08C511.55,224.6,511.26,224.33,511.17,224.42Z" style="fill:#263238"></path><path d="M504.6,322.92l-111.55-.1c-.36-.44,29.56-119.15,53.65-136.18,6-4.22,24.87-3.82,30.34,5.8C487.29,210.51,506,320.27,504.6,322.92Z" style="fill:#ebebeb"></path><rect x="374.76" y="364.2" width="99.36" height="13.83" transform="translate(934.6 611.15) rotate(164.03)" style="fill:#018BDF"></rect><rect x="364.91" y="307.78" width="99.36" height="57.8" transform="translate(905.8 546.32) rotate(164.03)" style="fill:#018BDF"></rect><rect x="364.91" y="307.78" width="99.36" height="57.8" transform="translate(905.8 546.32) rotate(164.03)" style="opacity:0.1"></rect><rect x="374.76" y="365.64" width="99.36" height="10.96" transform="translate(934.6 611.15) rotate(164.03)" style="fill:#fff"></rect><path d="M465.14,356.12c-28.54,8.48-60.64,17.67-89.35,25.56,28.54-8.48,60.64-17.67,89.35-25.56Z" style="fill:#dbdbdb"></path><path d="M465.73,358.19c-28.54,8.48-60.64,17.67-89.35,25.56,28.54-8.48,60.65-17.67,89.35-25.56Z" style="fill:#dbdbdb"></path><path d="M466.32,360.25c-28.53,8.49-60.64,17.68-89.35,25.57,28.54-8.49,60.65-17.67,89.35-25.57Z" style="fill:#dbdbdb"></path><path d="M466.91,362.32c-28.53,8.48-60.64,17.67-89.34,25.57,28.53-8.49,60.64-17.67,89.34-25.57Z" style="fill:#dbdbdb"></path><path d="M431.21,194c-25,22-56.78,62.8-56.9,73.35-.29,26.44,4.82,54.09,9,67.4,2.74,8.84,49-10.56,46.4-18.38-3.83-11.63-8.8-42.47-10.23-47-.76-2.42,14.14-34.1,23-55.71C451.83,190.55,439.24,186.92,431.21,194Z" style="fill:#eb9481"></path><path d="M447.32,380.6c-4.26,3.34-8.88.17-8.88.17a11.54,11.54,0,0,1-5,6c-4.21,2.2-9.51-3.45-9.51-3.45a14.27,14.27,0,0,1-6.32,5.51c-4.24,1.7-10.4-3.23-10.4-3.23a12.48,12.48,0,0,1-8.6,1.34c-7.78-1.92-11.87-13.59-13.54-21.19-2-9.1-3.15-32.61-3.63-37l47-14.17s20.61,29.84,22.32,38.92C452.21,361.15,452.09,376.85,447.32,380.6Z" style="fill:#eb9481"></path><path d="M438.61,380.55c.42-8.5-1.7-16.66-3.35-24.93a.14.14,0,0,0-.28.06c1.73,8.2,1.82,16.64,3.22,24.9A.21.21,0,0,0,438.61,380.55Z" style="fill:#263238"></path><path d="M424.46,383a22.25,22.25,0,0,0-1-5.71c-.51-2-1-4-1.61-6-1.14-3.95-2.36-7.88-3.71-11.77-.06-.18-.33-.13-.28.06,1.12,3.94,2.19,7.9,3.15,11.89q.72,3,1.39,6a27,27,0,0,0,1.53,5.6A.29.29,0,0,0,424.46,383Z" style="fill:#263238"></path><path d="M407.14,385.46c.1-1.67-.71-3.51-1.2-5.09-.55-1.79-1.1-3.59-1.64-5.38-1.07-3.6-2.14-7.19-3.08-10.82a.15.15,0,0,0-.29.06c.95,3.69,1.84,7.39,2.81,11.08.48,1.81,1,3.61,1.46,5.42.43,1.53.78,3.5,1.76,4.79A.1.1,0,0,0,407.14,385.46Z" style="fill:#263238"></path><path d="M390.88,232.46l42.84,10.34s11.66-25.54,14.43-42.51c2.11-13-5-15.11-12.14-10.12C412.21,206.79,390.88,232.46,390.88,232.46Z" style="fill:#018BDF"></path><path d="M433.91,235.48c-6.48-2.06-24.23-7.14-36.2-8.94-.07,0-.15.26-.08.28,9.73,3,29.54,7.57,36.17,9.06C433.93,235.91,434,235.52,433.91,235.48Z" style="fill:#263238"></path><path d="M449.35,185.84a8,8,0,0,0-.77,8c2.36,5.56,12.26,16.53,23.29,15.08,5.14-.67,5.76-7.33,5.25-11.76s-4-9.57-9.15-12S451.45,183.06,449.35,185.84Z" style="fill:#018BDF"></path><path d="M473.1,205.34c-6.13,3.55-18.56-4.65-23.57-12.66-.34-.55-.83-23.1-1.1-27.65-.06-.93,28.93,5.26,28.93,5.26s-2.25,9.7-1.74,17.62a9.76,9.76,0,0,0,.31,1.86c0,.08,0,.18.06.3C476.77,193.58,476.25,203.52,473.1,205.34Z" style="fill:#eb9481"></path><path d="M476,190.08a18.37,18.37,0,0,1-2.92.32c-15,.54-21.42-17.45-23.54-25.41,5.27.49,27.83,5.29,27.83,5.29s-2.25,9.7-1.73,17.64a8.73,8.73,0,0,0,.3,1.84C475.94,189.85,476,190,476,190.08Z" style="fill:#263238"></path><path d="M442,128.81c-2.66,10.44,4.18,39.92,11.81,46.2,11.07,9.12,28.49,9.22,36.06-3.93,7.33-12.74-2.26-51-10.72-56.64C466.71,106.13,445.94,113.38,442,128.81Z" style="fill:#eb9481"></path><path d="M468.54,146.8c0-.08-.14.13-.12.21.52,2,.77,4.32-.88,5.38-.05,0,0,.14,0,.11C469.71,151.7,469.34,148.58,468.54,146.8Z" style="fill:#263238"></path><path d="M466.29,145.12c-3.25.48-2.05,6.95,1,6.51S469,144.72,466.29,145.12Z" style="fill:#263238"></path><path d="M480.22,144.31c0-.08.17.07.18.15.31,2,1,4.27,2.94,4.6.06,0,.08.11,0,.12C481.08,149.28,480.19,146.27,480.22,144.31Z" style="fill:#263238"></path><path d="M481.62,141.89c3.17-.85,4.63,5.57,1.69,6.35S479,142.59,481.62,141.89Z" style="fill:#263238"></path><path d="M464.21,143.66a25.86,25.86,0,0,0,2.44-1.16,4.36,4.36,0,0,0,2.26-1.66,1.38,1.38,0,0,0-.41-1.65,3.44,3.44,0,0,0-3.49,0,5,5,0,0,0-2.67,2.49A1.48,1.48,0,0,0,464.21,143.66Z" style="fill:#263238"></path><path d="M483.51,138.16a24.15,24.15,0,0,1-2.69-.19,4.37,4.37,0,0,1-2.72-.71,1.4,1.4,0,0,1-.23-1.69,3.46,3.46,0,0,1,3.26-1.26,5,5,0,0,1,3.4,1.34A1.48,1.48,0,0,1,483.51,138.16Z" style="fill:#263238"></path><path d="M470.23,165.06c.57.38,1.17.94,1.91.86a5.43,5.43,0,0,0,2.06-.9.07.07,0,0,1,.1.08,2.72,2.72,0,0,1-2.34,1.56,2.17,2.17,0,0,1-1.9-1.47A.11.11,0,0,1,470.23,165.06Z" style="fill:#263238"></path><path d="M471.22,158.67a7,7,0,0,0,5.12,2.19,8.74,8.74,0,0,0,2.48-.35,2.24,2.24,0,0,0,.46-.14,4.29,4.29,0,0,0,.42-.15.5.5,0,0,0,.32-.52v0a1.52,1.52,0,0,0-.06-.2h0l0-.18c-.24-1.55-.83-3.87-.83-3.87.62.18,3.73.94,3.54.14-1.64-6.6-3.47-13.94-6.49-20.16a.19.19,0,0,0-.36.12c1.33,6.41,3.77,12.53,5.2,18.95a11.94,11.94,0,0,0-3.4-.38c-.21.1,1.21,4.46,1.27,5.16v.08c-2.53.81-4.63.39-7.47-.88C471.21,158.37,471.07,158.53,471.22,158.67Z" style="fill:#263238"></path><path d="M477.76,159.9A8.17,8.17,0,0,1,475,163a3.65,3.65,0,0,1-2.19.55c-1.68-.12-2-1.58-1.93-2.89a9.12,9.12,0,0,1,.36-2.06A10.68,10.68,0,0,0,477.76,159.9Z" style="fill:#263238"></path><path d="M475,163a3.65,3.65,0,0,1-2.19.55c-1.68-.12-2-1.58-1.93-2.89C472.62,160.52,474.53,161.37,475,163Z" style="fill:#ff98b9"></path><path d="M446.67,157.24c5.3-1.59,3.25-15.36,3.25-15.36s6.36-3.6,6.54-16.43c0,0,6.56,11.57,28.66,5.28a19.57,19.57,0,0,0-3.5-11.48,82.6,82.6,0,0,1,7.61,11.25s2.42-19.6-14.62-23.67c-6.77-1.62-16.36.44-29.92,10,0,0-4.21-8.36-5.72-6.93s3,9.13,3,9.13-6.77-1-7.64.55c-.75,1.31,5.72,2,5.72,2s-9.38,4.72-5.93,15.85C437.33,147.63,444,158,446.67,157.24Z" style="fill:#263238"></path><path d="M441.87,121.13a11.83,11.83,0,0,0-10.37,11.74,21.93,21.93,0,0,0,2.9,9.53,40.83,40.83,0,0,0,6.23,8.44c.13.14.34-.09.2-.23a31.55,31.55,0,0,1-5.21-8.06,29.13,29.13,0,0,1-2.85-8.73,11.37,11.37,0,0,1,9.16-12.37C442.11,121.42,442.06,121.1,441.87,121.13Z" style="fill:#263238"></path><path d="M461.25,105.75a45.72,45.72,0,0,0-10.4,5.8,33.79,33.79,0,0,0-8.14,7.82.15.15,0,0,0,.23.2c5-5.15,11.46-9,17.94-12,6.06-2.82,13.58-4,19.24.4.09.07.21-.06.12-.14C475.06,103.1,467.43,103.39,461.25,105.75Z" style="fill:#263238"></path><path d="M450.19,153s-7.36-9.15-11.56-6.46,1.79,16.27,7,17.83a5.22,5.22,0,0,0,6.79-3.27Z" style="fill:#eb9481"></path><path d="M440.44,150.35a.07.07,0,0,0,0,.14c3.69,1.21,5.8,4.41,7.36,7.77-1.16-1.26-2.66-1.89-4.35-.5-.09.07,0,.22.11.19a3.18,3.18,0,0,1,3.59.88,15.21,15.21,0,0,1,1.88,2.73c.19.31.76.1.61-.26l0-.08C449.37,156.64,445.39,150.48,440.44,150.35Z" style="fill:#263238"></path><path d="M475.87,190.74c-.35-2.8,7.09,1.35,8,5.45s21,82.92,21,82.92-11.35-12.69-18.07-35.83C481.66,225.66,476.18,193.24,475.87,190.74Z" style="fill:#455a64"></path><path d="M537,333.75c-12.57-.84-23.42-13.36-43.71-59-2.81-6.32,34.28-36.41,37.62-29.82,4.22,8.3,20.92,39.71,21.67,42.26C559,308.76,551.59,334.72,537,333.75Z" style="fill:#eb9481"></path><path d="M470.48,210.59c-3.49,3.37-1.25,7.88-1.25,7.88a10.33,10.33,0,0,0-6,3.73c-2.48,3.47,1.89,8.88,1.89,8.88a12.83,12.83,0,0,0-5.68,4.94c-2,3.57,1.59,9.66,1.59,9.66a11.23,11.23,0,0,0-2.26,7.49c.75,7.16,9.83,13.66,16.08,16.79s19.53,7.32,19.53,7.32l36.72-31.9s-3.65-12.72-13-21.21c-7.85-7.1-18.53-11.78-23.05-13.3C488.39,208.64,474.41,206.8,470.48,210.59Z" style="fill:#eb9481"></path><path d="M469.83,218c7.62.67,14.62,3.56,21.77,6.05a.13.13,0,0,1-.09.25c-7.08-2.56-14.58-3.68-21.75-6A.18.18,0,0,1,469.83,218Z" style="fill:#263238"></path><path d="M465.53,230.63a19.47,19.47,0,0,1,5,1.62q2.56,1,5.1,2.16,5.07,2.25,10,4.75c.14.08.07.32-.09.25-3.37-1.49-6.76-2.93-10.19-4.27q-2.58-1-5.17-2a24,24,0,0,1-4.79-2.06A.26.26,0,0,1,465.53,230.63Z" style="fill:#263238"></path><path d="M461.19,245.74c1.5.11,3,1.06,4.39,1.69,1.52.72,3.05,1.42,4.58,2.12,3.07,1.4,6.14,2.79,9.25,4.08.15.07.07.31-.09.25-3.17-1.29-6.36-2.54-9.51-3.87q-2.32-1-4.65-2a12.88,12.88,0,0,1-4-2.15A.09.09,0,0,1,461.19,245.74Z" style="fill:#263238"></path><path d="M530.89,244.94c6.83,11.42,13.67,23.11,18.46,35.55-6-11.72-12.9-23.64-18.46-35.55Z" style="fill:#263238"></path></g><g id="freepik--character-2--inject-55"><path d="M225.69,448.05h76.37c.14-.69.27-1.37.4-2.07q1.55-7.71,3.12-15.66c.17-.82.32-1.63.49-2.44.48-2.44,1-4.88,1.46-7.34.15-.82.32-1.62.48-2.44.1-.52.2-1,.31-1.55s.17-.84.24-1.25c.47-2.34.93-4.68,1.4-7,0,0,0,0,0-.06.09-.43.18-.87.25-1.3h0c.34-1.67.67-3.34,1-5,.22-1.14.45-2.27.67-3.4,1.29-6.49,2.56-12.89,3.81-19.12.15-.79.31-1.56.46-2.34.54-2.74,1.08-5.46,1.61-8.12.08-.34.15-.68.2-1,.3-1.49.59-3,.89-4.44.15-.76.31-1.53.45-2.28.2-1,.4-2,.6-3,.4-2,.78-3.93,1.17-5.84L323.54,340c.09-.41.17-.81.25-1.21.11-.57.22-1.15.33-1.71s.28-1.36.41-2c.56-2.83,1.09-5.51,1.59-8,.14-.72.29-1.42.42-2.1l1-4.84q.13-.61.24-1.2c.27-1.36.52-2.63.76-3.79.08-.45.17-.89.26-1.31.91-4.58,1.47-7.41,1.59-8a1,1,0,0,0,0-.11v0H259.93l0,.12h0v0h0l-.35,1.41c-.11.44-.25,1-.4,1.6-2.89,11.71-13.29,53.88-23.71,97.73C232.1,420.51,228.77,434.66,225.69,448.05Z" style="fill:#d3766a"></path><polygon points="225.69 448.05 304.89 448.05 330.38 305.61 259.94 305.61 225.69 448.05" style="fill:#263238"></polygon><polygon points="259.93 305.61 295.8 448.05 304.89 448.05 330.38 305.61 259.93 305.61" style="opacity:0.1"></polygon><path d="M259.87,305.48l0,.2h0c.45,3.05,4.15,30.68,13.35,56.35.59,1.64,1.18,3.23,1.8,4.78a58.57,58.57,0,0,1,7.15,2.67l1.67.74c2.91,1.31,6.5,3.07,10.73,5.4l0,.78c0,.21,0,.47,0,.76.11,2.25,4.3,59.35,4.87,70.82h72.08c-1.12-10.83-2.23-21.48-3.32-31.5-1.5-14-2.93-26.68-4.16-37,0,0,12.44-29.5-10.85-74Z" style="fill:#d3766a"></path><path d="M297.77,448.06l80.09-.07-12.28-68.47s5.09-14.91,4.47-23.6c-.66-9.31-4.8-33.16-15.11-50.44H259.87s-.46,31.33,11.19,61.24l14.55,5.79Z" style="fill:#263238"></path><path d="M349.52,344.16c-6.55-.65-13.29-.57-19.37-3.48s-10.1-8.76-13.25-14.61a48,48,0,0,1-4.35-11.46.17.17,0,0,0-.33.05,31.87,31.87,0,0,0,2.68,10.81,47.74,47.74,0,0,0,5.2,9.58,23.15,23.15,0,0,0,7.49,7,25.79,25.79,0,0,0,9.82,3,55.9,55.9,0,0,0,12.13-.07A.38.38,0,0,0,349.52,344.16Z" style="fill:#37474f"></path><path d="M254.77,340.38c.77-.63,4.43-1.18,8-8.15a37.3,37.3,0,0,0,3-8.67c.41-1.79,1.75-10.51,1.85-10.56s.09,0,.11.12c.13.6-.7,8.59-1.06,10.63a32.82,32.82,0,0,1-3.08,10c-3.43,6.06-8.07,7.62-8.86,7.21C254.6,340.89,254.66,340.47,254.77,340.38Z" style="fill:#37474f"></path><path d="M272.44,366.19a163.38,163.38,0,0,1,25.66,11.95.29.29,0,0,1-.24.53C289.22,375,280.4,371.4,272,367.22A.57.57,0,0,1,272.44,366.19Z" style="fill:#37474f"></path><path d="M269.69,306.87c0-.3.55-.36.55,0a286.73,286.73,0,0,0,1.45,28.88c.4,4.45,4,29.06,11.7,27.27,1.29-.3,1.95-1.57,2.16-3.52.24-2.35-.64-5.22-1-7.55-.86-5.15-1.54-10.32-2-15.52a141.6,141.6,0,0,1,.32-29.11.25.25,0,0,1,.5,0c0,13.44.34,26.86,2.35,40.18,1,6.4,4.19,16-2.51,17S272,349.37,271.13,345C268.81,332.64,268.72,319.34,269.69,306.87Z" style="fill:#37474f"></path><path d="M283.19,363.64a43.09,43.09,0,0,1,1.73,5.1,11.41,11.41,0,0,1,.72,4.19.3.3,0,0,1-.53.12,14.48,14.48,0,0,1-1.79-4.08c-.59-1.58-1.21-3.15-1.76-4.74A.87.87,0,0,1,283.19,363.64Z" style="fill:#37474f"></path><path d="M298,118s16.32-6.55,30.58,9.59c17,19.19,4.15,76.66,4.73,82s2.68,6.84,2.9,11.59-4,7.33-4.66,8.93,3,10.67,3,10.67-26.38,3.73-42.08-1.3S260,221.3,260,221.3s4.25-4.72,4.54-7.16-2.18-6-1.44-10.43,8.1-9,9.06-11.31,2.67-46.76,8.33-61.69S298,118,298,118Z" style="fill:#263238"></path><path d="M259.31,219.94a23.64,23.64,0,0,0,4.21-5,3.32,3.32,0,0,0,.49-1.65c-.37-3.65-3.11-7.16-2.06-10.9,1.13-2.83,4.26-4.89,6.44-6.93,1.23-1.17,2.67-2.37,3.17-4.13a16.72,16.72,0,0,0,.22-1.71c1.55-18.37,2.37-37,7.51-54.85,1.28-4.12,2.84-8.28,5.65-11.63-3.06,3.16-4.8,7.34-6.3,11.42-5.86,17.69-6.84,36.5-8.13,55-.05.52-.09,1.1-.17,1.54-.41,1.42-1.68,2.48-2.74,3.54-2.3,2.26-5.4,4.36-6.52,7.53-1.05,4,1.82,7.44,2.49,11.18a3,3,0,0,1-.38,1.47,25.37,25.37,0,0,1-3.88,5.19Z" style="fill:#263238"></path><path d="M336,238.63c-.77-2.37-1.93-5.38-2.53-7.75v-.09a5.22,5.22,0,0,1,.77-.89c2.33-2.27,4.4-5.16,4.45-8.56.21-4-2.1-7.59-3-11.21-.66-2.5-.21-4.93.15-7.43C339,181.32,343.59,145,329,127.41a22.47,22.47,0,0,0-5.92-4.94,23.74,23.74,0,0,1,5.64,5.17c13.59,18,8.73,53.52,6,74.89-.38,2.57-.79,5.33,0,7.87,1,3.82,3.32,7,3.25,10.93a11.06,11.06,0,0,1-2.73,6.81c-.59.76-1.28,1.43-1.89,2.2a.9.9,0,0,0-.2.43,75,75,0,0,0,2.95,7.86Z" style="fill:#263238"></path><path d="M277.29,204.9c-15,13.51-69.33,68.59-64.77,86.8,4.24,16.93,20,19.77,30.36,10.59,15-13.3,38.64-65.12,44.6-81C293.15,206.11,292.06,191.63,277.29,204.9Z" style="fill:#d3766a"></path><path d="M272.67,260.9l-45.86-16.45s39.43-36.28,54-43.68c16.44-8.33,17.1,1.9,11.79,18.59S272.67,260.9,272.67,260.9Z" style="fill:#455a64"></path><path d="M236.18,238.62c1.68.33,16,5.23,19.15,6.36s15.82,5.64,18.93,7.08a.12.12,0,0,1-.07.23c-3.31-.82-16.15-5.33-19.33-6.42s-17.3-6.26-18.77-7C236,238.76,236.07,238.6,236.18,238.62Z" style="fill:#263238"></path><path d="M292.63,219.36c-5.3,16.7-19.95,41.54-19.95,41.54l-30-10.76,50-51.83C297,200.33,296.09,208.47,292.63,219.36Z" style="opacity:0.1"></path><path d="M357.79,307.52l-103.28-.31L264.4,269s-8.61-10.78-5.77-21.62c4-15.21,26.59-44.82,28.52-46.46,7.75-6.59,20.09-6.93,25.57-1.28C345.45,233.34,357.79,307.52,357.79,307.52Z" style="fill:#455a64"></path><path d="M294.57,260.14a99.23,99.23,0,0,0-14.34,2.45c-2.33.61-4.62,1.32-6.9,2.09-1.14.38-2.29.73-3.44,1.07a15.44,15.44,0,0,1-3.69.71.09.09,0,0,0,0,.18,28.17,28.17,0,0,0,3.56-.09,26,26,0,0,0,3.39-.66c2.37-.6,4.71-1.31,7.08-1.93,4.77-1.25,9.54-2.51,14.4-3.42C294.85,260.5,294.79,260.12,294.57,260.14Z" style="fill:#263238"></path><path d="M306.53,264.36a106.56,106.56,0,0,0-12-.51c-2,0-4,.19-6,.39-.95.1-1.9.21-2.85.34s-2.06.42-3.11.54a.09.09,0,1,0,0,.17c1-.08,2,0,3,0l3-.09c2-.06,4-.1,6-.18,4-.16,8-.28,12-.3C306.76,264.68,306.74,264.38,306.53,264.36Z" style="fill:#263238"></path><path d="M311.12,213.19c5.63,19.41,27.14,89.68,44,93.33,17.06,3.7,29.7-2.67,29.4-16.48-.31-15-42.49-66.61-54.22-78.9C319.11,199.44,305.6,194.13,311.12,213.19Z" style="fill:#d3766a"></path><path d="M322.65,261.7l47.4-11.3S334.86,210,321.16,201c-15.42-10.09-17.21,0-13.77,17.18S322.65,261.7,322.65,261.7Z" style="fill:#455a64"></path><path d="M361.35,243.23c-1.7.13-16.53,3.42-19.74,4.21s-16.34,3.86-19.59,4.95a.12.12,0,0,0,.05.23c3.37-.45,16.63-3.52,19.92-4.25s17.88-4.31,19.43-4.93C361.55,243.39,361.46,243.22,361.35,243.23Z" style="fill:#263238"></path><path d="M326.91,260.68c-1.45.45-2.91.85-4.37,1.28l-.08-.17a181.29,181.29,0,0,1-9.9-24.37c-.9-2.78-1.71-5.6-2.37-8.45,2.65,7.34,6.51,17.27,9.41,24.51l3.25,8.13-.25-.13c1.44-.27,2.87-.56,4.31-.8Z" style="fill:#263238"></path><path d="M309,232.6a40.38,40.38,0,0,1,4.5,6.36,13.22,13.22,0,0,1-4.5-6.36Z" style="fill:#263238"></path><path d="M398.89,373.62l-63.45,11.29c-17.15,3.06-16.84-11.15-15.29-26.28s3.76-38,19.09-40.76l16.47-2.93L372.19,312c15.33-2.73,25.3,18,32,31.67S416,370.57,398.89,373.62Z" style="fill:#018BDF"></path><path d="M337.57,318.88a.67.67,0,0,1-.54.77.67.67,0,0,1-.24-1.31A.68.68,0,0,1,337.57,318.88Zm10-2.46a.67.67,0,1,0,.77.54A.65.65,0,0,0,347.61,316.42Zm10.82-1.93a.67.67,0,1,0,.23,1.31.67.67,0,0,0-.23-1.31Zm10.81-1.92a.67.67,0,1,0,.77.53A.65.65,0,0,0,369.24,312.57Zm-40.79,21.6a.67.67,0,0,0-.54.77.68.68,0,0,0,.78.54.67.67,0,0,0,.54-.77A.68.68,0,0,0,328.45,334.17Zm10.82-1.93a.68.68,0,0,0-.54.78.65.65,0,0,0,.77.53.66.66,0,0,0,.54-.77A.67.67,0,0,0,339.27,332.24Zm10.81-1.92a.65.65,0,0,0-.53.77.67.67,0,1,0,.53-.77Zm10.82-1.93a.68.68,0,0,0-.54.78.67.67,0,0,0,1.31-.24A.67.67,0,0,0,360.9,328.39Zm10.82-1.92a.65.65,0,0,0-.54.77.67.67,0,1,0,1.31-.23A.66.66,0,0,0,371.72,326.47Zm10.81-1.93a.67.67,0,0,0-.54.77.67.67,0,0,0,1.31-.23A.67.67,0,0,0,382.53,324.54Zm-49.94,1.54a.67.67,0,0,0-.54.77.68.68,0,0,0,.78.54.67.67,0,0,0-.24-1.31Zm10.82-1.93a.67.67,0,0,0-.54.77.65.65,0,0,0,.77.54.67.67,0,0,0-.23-1.31Zm10.81-1.92a.67.67,0,0,0-.54.77.67.67,0,0,0,1.32-.23A.66.66,0,0,0,354.22,322.23ZM365,320.3a.67.67,0,0,0-.54.77.65.65,0,0,0,.77.54.67.67,0,1,0-.23-1.31Zm10.81-1.92a.65.65,0,0,0-.53.77.67.67,0,1,0,.53-.77Zm10.62-1.86a.68.68,0,0,0-.34.71.66.66,0,0,0,.77.53.65.65,0,0,0,.51-.43C387.1,317.05,386.79,316.78,386.47,316.52Zm-55.54,31.55a.67.67,0,1,0,.77.54A.67.67,0,0,0,330.93,348.07Zm10.81-1.92a.67.67,0,0,0-.54.77.67.67,0,1,0,1.32-.24A.67.67,0,0,0,341.74,346.15Zm10.82-1.93a.67.67,0,0,0-.54.77.67.67,0,0,0,1.31-.23A.67.67,0,0,0,352.56,344.22Zm10.81-1.93a.67.67,0,0,0,.24,1.32.67.67,0,1,0-.24-1.32Zm10.82-1.92a.67.67,0,1,0,.23,1.31.66.66,0,0,0,.54-.77A.67.67,0,0,0,374.19,340.37ZM385,338.44a.67.67,0,0,0,.23,1.32.67.67,0,0,0-.23-1.32Zm10.81-1.92a.67.67,0,0,0,.23,1.31.65.65,0,0,0,.54-.77A.66.66,0,0,0,395.82,336.52Zm-71.57,5.38a.67.67,0,0,0,.23,1.32.67.67,0,0,0-.23-1.32ZM335.07,340a.65.65,0,0,0-.54.77.67.67,0,1,0,.54-.77Zm10.81-1.93a.67.67,0,1,0,.24,1.32.67.67,0,0,0-.24-1.32Zm10.82-1.92a.66.66,0,0,0-.54.77.67.67,0,0,0,1.31-.23A.66.66,0,0,0,356.7,336.13Zm10.81-1.93a.68.68,0,0,0-.54.78.67.67,0,0,0,1.32-.24A.68.68,0,0,0,367.51,334.2Zm10.82-1.92a.67.67,0,1,0,.23,1.31.67.67,0,0,0-.23-1.31Zm10.81-1.93a.66.66,0,0,0-.53.78.65.65,0,0,0,.77.53.67.67,0,0,0,.54-.77A.68.68,0,0,0,389.14,330.35ZM322.59,363.9a.65.65,0,0,0-.54.77.67.67,0,1,0,1.31-.23A.66.66,0,0,0,322.59,363.9ZM333.4,362a.67.67,0,0,0-.54.77.66.66,0,0,0,.78.54.65.65,0,0,0,.53-.77A.67.67,0,0,0,333.4,362Zm10.82-1.92a.66.66,0,0,0-.54.77.67.67,0,0,0,1.31-.23A.65.65,0,0,0,344.22,360.05ZM355,358.12a.67.67,0,0,0-.54.77.67.67,0,0,0,1.32-.23A.68.68,0,0,0,355,358.12Zm10.82-1.92a.67.67,0,1,0,.77.54A.65.65,0,0,0,365.85,356.2Zm10.81-1.93a.67.67,0,0,0,.24,1.31.67.67,0,0,0,.54-.77A.68.68,0,0,0,376.66,354.27Zm10.82-1.92a.67.67,0,1,0,.77.54A.65.65,0,0,0,387.48,352.35Zm10.82-1.93a.67.67,0,1,0,.23,1.31.67.67,0,1,0-.23-1.31Zm-71.57,5.39a.65.65,0,0,0-.54.77.67.67,0,0,0,1.31-.23A.66.66,0,0,0,326.73,355.81Zm10.81-1.93a.67.67,0,0,0-.54.77.67.67,0,0,0,1.31-.23A.67.67,0,0,0,337.54,353.88ZM348.36,352a.65.65,0,0,0-.54.77.67.67,0,1,0,1.31-.23A.66.66,0,0,0,348.36,352ZM359.17,350a.67.67,0,0,0-.54.77.66.66,0,0,0,.78.54.65.65,0,0,0,.53-.77A.67.67,0,0,0,359.17,350ZM370,348.11a.66.66,0,0,0-.54.77.67.67,0,0,0,.77.54.68.68,0,0,0,.54-.78A.65.65,0,0,0,370,348.11Zm10.81-1.93a.67.67,0,1,0,.78.54A.68.68,0,0,0,380.8,346.18Zm10.82-1.92a.67.67,0,1,0,.77.53A.65.65,0,0,0,391.62,344.26Zm10.81-1.93a.65.65,0,0,0-.53.77.66.66,0,0,0,.77.54.67.67,0,0,0,.54-.77A.68.68,0,0,0,402.43,342.33ZM325.06,377.8a.67.67,0,1,0,.23,1.31.65.65,0,0,0,.54-.77A.66.66,0,0,0,325.06,377.8Zm10.82-1.93a.67.67,0,0,0,.23,1.32.68.68,0,0,0,.54-.78A.67.67,0,0,0,335.88,375.87ZM346.69,374a.67.67,0,0,0-.54.77.68.68,0,0,0,.78.54.65.65,0,0,0,.53-.77A.66.66,0,0,0,346.69,374ZM357.51,372a.67.67,0,0,0-.54.78.65.65,0,0,0,.77.53.67.67,0,0,0-.23-1.31Zm10.81-1.92a.67.67,0,0,0-.54.77.67.67,0,0,0,1.32-.23A.67.67,0,0,0,368.32,370.1Zm10.82-1.93a.68.68,0,0,0-.54.78.65.65,0,0,0,.77.53.66.66,0,0,0,.54-.77A.67.67,0,0,0,379.14,368.17ZM390,366.25a.65.65,0,0,0-.53.77.67.67,0,1,0,.53-.77Zm10.82-1.93a.68.68,0,0,0-.54.78.67.67,0,0,0,1.31-.24A.67.67,0,0,0,400.77,364.32Zm-71.57,5.39a.67.67,0,0,0,.23,1.31.67.67,0,0,0-.23-1.31ZM340,367.78a.66.66,0,0,0-.54.78.65.65,0,0,0,.77.53.67.67,0,0,0-.23-1.31Zm10.81-1.92a.67.67,0,1,0,.23,1.31.67.67,0,0,0-.23-1.31Zm10.82-1.93a.67.67,0,1,0,.23,1.31.67.67,0,0,0-.23-1.31ZM372.46,362a.67.67,0,0,0-.54.77.68.68,0,0,0,.78.54.67.67,0,0,0-.24-1.31Zm10.82-1.93a.67.67,0,0,0-.54.77.65.65,0,0,0,.77.54.67.67,0,0,0-.23-1.31Zm10.81-1.92a.67.67,0,0,0-.54.77.67.67,0,0,0,1.32-.23A.66.66,0,0,0,394.09,358.16Zm10.82-1.93a.67.67,0,0,0-.54.77.65.65,0,0,0,.77.54.66.66,0,0,0,.54-.77A.67.67,0,0,0,404.91,356.23Zm-73.24,27.38a.65.65,0,0,0-.53.77.66.66,0,0,0,.77.54.67.67,0,0,0,.54-.77A.68.68,0,0,0,331.67,383.61Zm10.82-1.93a.67.67,0,0,0,.23,1.32.67.67,0,0,0-.23-1.32Zm10.82-1.92a.65.65,0,0,0-.54.77.66.66,0,0,0,.77.54.67.67,0,0,0-.23-1.31Zm10.81-1.93a.67.67,0,0,0,.23,1.32.67.67,0,0,0-.23-1.32Zm10.82-1.92a.65.65,0,0,0-.54.77.67.67,0,1,0,.54-.77ZM385.75,374a.67.67,0,1,0,.24,1.32.67.67,0,0,0-.24-1.32Zm10.82-1.92a.66.66,0,0,0-.54.77.67.67,0,0,0,1.31-.23A.66.66,0,0,0,396.57,372.06Zm10.37-1.63a1.53,1.53,0,0,0,.31-.26A.66.66,0,0,0,406.94,370.43Z" style="fill:#fff"></path><path d="M344.78,324.69a5.34,5.34,0,1,1-6.19-4.32A5.34,5.34,0,0,1,344.78,324.69Z" style="opacity:0.1"></path><path d="M379.85,318.45a5.34,5.34,0,1,1-6.19-4.32A5.34,5.34,0,0,1,379.85,318.45Z" style="opacity:0.1"></path><path d="M343.09,325a3.62,3.62,0,1,1-4.2-2.93A3.62,3.62,0,0,1,343.09,325Z" style="fill:#263238"></path><path d="M378.16,318.75a3.62,3.62,0,1,1-4.2-2.93A3.62,3.62,0,0,1,378.16,318.75Z" style="fill:#263238"></path><path d="M373.18,320.25l-.47-1.49c-18.39-58.27-37.4-118.52-57.68-120.54l.2-2c21.59,2.15,39.95,60.33,59.39,121.93l.47,1.49Z" style="fill:#263238"></path><path d="M310.38,200.34c-.66,1.88-11.2,13.37-19.95,12-2.85-.45-1.08-16.11-1.08-16.11l-.14-1.19-1.86-16.6,20.36-10.14,2.93-1.32s.21,4.58.41,10.28q0,.39,0,.81c0,.32.05.63.05.93,0,.85.08,1.72.1,2.58,0,.66,0,1.3,0,2s0,1.37,0,2.06A108.55,108.55,0,0,1,310.38,200.34Z" style="fill:#d3766a"></path><path d="M311.05,177.26A33.45,33.45,0,0,1,289.21,195l-1.86-16.6,20.36-10.14,2.93-1.32S310.85,171.56,311.05,177.26Z" style="fill:#263238"></path><path d="M267.92,150.43c-5.45,28.8,11.18,35.32,17.39,36.49,5.64,1.06,25,4,33.38-24.12s-3.26-39.73-16-42.84S273.38,121.63,267.92,150.43Z" style="fill:#d3766a"></path><path d="M277.61,145.86a16.85,16.85,0,0,0,2-.17,3.21,3.21,0,0,0,2-.56,1,1,0,0,0,.16-1.26,2.59,2.59,0,0,0-2.45-.92,3.78,3.78,0,0,0-2.54,1A1.11,1.11,0,0,0,277.61,145.86Z" style="fill:#263238"></path><path d="M298,149.48a18.89,18.89,0,0,1-1.89-.73,3.27,3.27,0,0,1-1.78-1.11,1,1,0,0,1,.21-1.26,2.59,2.59,0,0,1,2.61-.19,3.83,3.83,0,0,1,2.14,1.71A1.12,1.12,0,0,1,298,149.48Z" style="fill:#263238"></path><path d="M292.59,155.76c0-.07.14.12.13.2-.36,2-.45,4.27,1.24,5.2.05,0,0,.12,0,.1C291.79,160.63,291.94,157.56,292.59,155.76Z" style="fill:#263238"></path><path d="M294.67,154c3.21.23,2.49,6.64-.48,6.42S292,153.77,294.67,154Z" style="fill:#263238"></path><path d="M295.89,154.44c.51.43,1,1.13,1.66,1.27s1.43-.44,2-1c.06-.06.1,0,.1.09-.12,1.23-.73,2.43-2.07,2.47s-2-1.15-2.13-2.42C295.44,154.59,295.68,154.27,295.89,154.44Z" style="fill:#263238"></path><path d="M280.52,153.59c0-.07-.17.08-.17.16-.15,2-.65,4.25-2.51,4.73-.06,0-.06.11,0,.11C280.07,158.51,280.7,155.5,280.52,153.59Z" style="fill:#263238"></path><path d="M279,151.34c-3.17-.58-4.08,5.8-1.15,6.33S281.61,151.82,279,151.34Z" style="fill:#263238"></path><path d="M277.57,151.57c-.55.26-1.14.8-1.75.76s-1.12-.82-1.47-1.55c0-.07-.1,0-.11.06-.21,1.21,0,2.54,1.15,2.94s2-.56,2.44-1.74C277.91,151.83,277.79,151.46,277.57,151.57Z" style="fill:#263238"></path><path d="M289.34,171.73c-.51.44-1,1.05-1.75,1.06a5.13,5.13,0,0,1-2.11-.64.07.07,0,0,0-.09.1,2.67,2.67,0,0,0,2.45,1.25,2.14,2.14,0,0,0,1.69-1.66C289.56,171.72,289.41,171.67,289.34,171.73Z" style="fill:#263238"></path><path d="M282,162.84s-.86,3.36-1,4.76c0,.13,4.81,1,7.67-1.81.12-.12-.05-.29-.19-.22a10.06,10.06,0,0,1-6.25,1.13c-.05-.4,1.47-5.08,1.26-5.12a12.28,12.28,0,0,0-3.26.32c1.43-6.1,3.84-11.93,5.18-18a.19.19,0,0,0-.36-.13c-2.95,5.93-4.75,12.91-6.4,19.18C278.4,163.7,281.4,163,282,162.84Z" style="fill:#263238"></path><path d="M282.16,167.34a8.17,8.17,0,0,0,2.93,2.93,3.64,3.64,0,0,0,2.2.42c1.66-.21,1.88-1.68,1.75-3a9.23,9.23,0,0,0-.47-2A10.56,10.56,0,0,1,282.16,167.34Z" style="fill:#263238"></path><path d="M285.09,170.27a3.64,3.64,0,0,0,2.2.42c1.66-.21,1.88-1.68,1.75-3C287.3,167.67,285.45,168.62,285.09,170.27Z" style="fill:#ff98b9"></path><path d="M316.11,166.19c-5.85-.07-5.51-13.43-5.51-13.43s-22.16-6.28-21.5-26.5c0,0-5.94,12.13-19.55,16.12,0,0,1.87-24.53,21.77-23.61,0,0,20.22-6,30,12.72S320,166.23,316.11,166.19Z" style="fill:#263238"></path><path d="M289.22,124.77a21.84,21.84,0,0,0-.16,9.25,23,23,0,0,0,3.52,8.69,18.62,18.62,0,0,0,1.43,1.88l.73.92c.27.29.56.56.84.83.58.54,1.13,1.1,1.72,1.61s1.26.93,1.89,1.38c.32.23.63.46,1,.68l1,.56,2,1.12c1.42.62,2.88,1.16,4.32,1.67-1.32-.8-2.7-1.46-4-2.27l-1.89-1.26-.94-.63c-.3-.23-.58-.49-.87-.73-.57-.49-1.15-1-1.73-1.44s-1.05-1.08-1.57-1.61l-.78-.8-.69-.89a18.17,18.17,0,0,1-1.33-1.8,26.06,26.06,0,0,1-3.63-8.14,27.64,27.64,0,0,1-.79-4.45A26.78,26.78,0,0,1,289.22,124.77Z" style="fill:#263238"></path><path d="M292.25,166.9a9.65,9.65,0,0,1-6.15-12.17h0a9.64,9.64,0,1,1,8.5,12.63A9.77,9.77,0,0,1,292.25,166.9Zm-4.92-11.77a8.35,8.35,0,1,0,10.53-5.32,8.49,8.49,0,0,0-2-.4A8.37,8.37,0,0,0,287.33,155.13Z" style="fill:#455a64"></path><path d="M273.09,163.15c-3.89-.73-6.26-5.57-5.28-10.79a11.52,11.52,0,0,1,3.24-6.25,6,6,0,0,1,10.1,1.89,11.55,11.55,0,0,1,.77,7c-.93,4.94-4.52,8.48-8.2,8.23A4.52,4.52,0,0,1,273.09,163.15ZM271.94,147a10.22,10.22,0,0,0-2.86,5.55c-.85,4.53,1.06,8.7,4.25,9.29s6.47-2.59,7.32-7.12a10.23,10.23,0,0,0-.66-6.21,5.15,5.15,0,0,0-3.59-3.08,3.86,3.86,0,0,0-.49-.06A5.34,5.34,0,0,0,271.94,147Z" style="fill:#455a64"></path><path d="M286.12,155.87l.84-.69c-1-1.24-3.57-3.14-5.91-1.41l.65.87C283.79,153.09,286,155.76,286.12,155.87Z" style="fill:#455a64"></path><path d="M324.28,165.15l1-.31c-.14-.49-1.49-4.76-3.8-5.6-2.16-.77-16.73-2.11-17.35-2.16l-.1,1.08c4.18.38,15.41,1.5,17.08,2.11S323.93,164,324.28,165.15Z" style="fill:#455a64"></path><path d="M312,163.26s7.29-8.47,11.19-5.78S321,172.88,316,174.2a5,5,0,0,1-6.34-3.32Z" style="fill:#d3766a"></path><path d="M321.38,161.08a.07.07,0,0,1,0,.14c-3.54,1-5.65,4-7.24,7.14,1.14-1.15,2.59-1.7,4.15-.33.08.07,0,.2-.11.17a3,3,0,0,0-3.44.72,15,15,0,0,0-1.88,2.54c-.19.29-.72.07-.57-.26a.59.59,0,0,1,0-.08C312.7,166.78,316.68,161.05,321.38,161.08Z" style="fill:#263238"></path><path d="M338.57,325.93c-.22-.72-22.37-72.24-26.66-92.38-2.92-13.67-5.28-31,0-35.89a5.46,5.46,0,0,1,5.62-1l-.57,1.91a3.59,3.59,0,0,0-3.7.58c-3.54,3.27-3.33,15.67.57,34,4.27,20.05,26.4,91.47,26.62,92.19Z" style="fill:#263238"></path><rect x="276.95" y="255.86" width="77.07" height="10.64" transform="translate(531.68 -86.67) rotate(82.24)" style="fill:#018BDF"></rect><rect x="257.92" y="249.9" width="77.07" height="27.76" transform="translate(517.79 -65.58) rotate(82.24)" style="fill:#018BDF"></rect><rect x="257.92" y="249.9" width="77.07" height="27.76" transform="translate(517.79 -65.58) rotate(82.24)" style="opacity:0.1"></rect><rect x="315.5" y="282.39" width="7.18" height="10.64" transform="translate(561.09 -67.31) rotate(82.24)" style="fill:#455a64"></rect><rect x="316.39" y="272.78" width="2.78" height="10.64" transform="translate(550.44 -74.32) rotate(82.24)" style="fill:#455a64"></rect><rect x="256.6" y="255.86" width="82.81" height="13.3" transform="translate(517.88 -68.22) rotate(82.24)" style="fill:#c7c7c7"></rect><rect x="289.63" y="223.92" width="8.05" height="13.3" transform="translate(482.47 -91.52) rotate(82.24)" style="fill:#018BDF"></rect><rect x="293.15" y="232.54" width="3.36" height="13.3" transform="translate(492.02 -85.24) rotate(82.24)" style="fill:#018BDF"></rect><rect x="297.67" y="282.91" width="8.05" height="13.3" transform="translate(547.88 -48.46) rotate(82.24)" style="fill:#018BDF"></rect><rect x="266.4" y="223.7" width="25.14" height="82.89" transform="translate(591.18 490.19) rotate(172.24)" style="fill:#ebebeb"></rect><rect x="245.46" y="260.92" width="76.45" height="11.05" transform="matrix(0.14, 0.99, -0.99, 0.14, 509.39, -50.61)" style="fill:#018BDF"></rect><rect x="226.1" y="255.08" width="76.45" height="28.03" transform="translate(495.26 -29.14) rotate(82.24)" style="fill:#018BDF"></rect><rect x="226.1" y="255.08" width="76.45" height="28.03" transform="translate(495.26 -29.14) rotate(82.24)" style="opacity:0.1"></rect><rect x="245.46" y="262.07" width="76.45" height="8.76" transform="translate(509.39 -50.61) rotate(82.24)" style="fill:#fff"></rect><path d="M276.64,233.82c3.43,22.82,6.86,47.95,9.65,70.85-3.44-22.81-6.86-47.95-9.65-70.85Z" style="fill:#dbdbdb"></path><path d="M278.34,233.59c3.44,22.81,6.86,48,9.65,70.85-3.44-22.81-6.86-47.95-9.65-70.85Z" style="fill:#dbdbdb"></path><path d="M280,233.36c3.44,22.81,6.87,47.95,9.65,70.85-3.44-22.81-6.86-47.95-9.65-70.85Z" style="fill:#dbdbdb"></path><path d="M281.74,233.13c3.44,22.81,6.87,47.95,9.66,70.85-3.44-22.81-6.87-48-9.66-70.85Z" style="fill:#dbdbdb"></path><path d="M216.35,299.6c-8.92-10.78,6-22.56,15.77-22.32,22.93.56,57.75,12,75.78,22.23,5.8,3.3-6.45,44-13.47,42.71C287.08,340.89,234.44,321.49,216.35,299.6Z" style="fill:#d3766a"></path><path d="M349.19,303.43c.93,5-3.71,7.46-3.71,7.46a10.86,10.86,0,0,1,2.82,6.8c0,4.46-7,6.41-7,6.41a13.41,13.41,0,0,1,1.84,7.65c-.44,4.27-7.21,7.24-7.21,7.24a11.67,11.67,0,0,1-2.63,7.74c-5,5.64-16.46,4-23.5,2-8.44-2.29-28.49-11.56-32.38-13.08l8.66-45.28s33.78-4.16,42.08-1.64C335.14,290.91,348.15,297.83,349.19,303.43Z" style="fill:#d3766a"></path><path d="M345.36,310.65c-6.88-4-14.59-5.83-22.18-8a.13.13,0,0,0-.07.26c7.57,2.13,14.63,5.72,22.1,8.14A.19.19,0,0,0,345.36,310.65Z" style="fill:#263238"></path><path d="M341.24,323.47a20.74,20.74,0,0,0-5.19-1.62q-2.82-.68-5.65-1.25c-3.79-.78-7.59-1.47-11.41-2-.17,0-.25.22-.07.26,3.77.78,7.53,1.61,11.26,2.55,1.87.47,3.73.95,5.6,1.45A24.9,24.9,0,0,0,341.1,324,.28.28,0,0,0,341.24,323.47Z" style="fill:#263238"></path><path d="M335.77,339c-1.35-.81-3.23-.94-4.76-1.22-1.73-.32-3.46-.64-5.18-1-3.46-.67-6.91-1.34-10.34-2.14-.17,0-.25.23-.08.27,3.48.82,6.95,1.69,10.44,2.48,1.71.39,3.43.77,5.14,1.14,1.46.31,3.25.87,4.75.62A.09.09,0,0,0,335.77,339Z" style="fill:#263238"></path><path d="M259,281.25c-5.44-1-10.88-2-16.36-2.78s-11-1.33-16.44-.11c5.35-1.74,11.05-1.41,16.54-.62A106.32,106.32,0,0,1,259,281.25Z" style="fill:#263238"></path><path d="M379.5,283.55c11.48,7.57.83,21.34-8.43,24.06-21.71,6.39-61.62,8.32-81.51,4-6.4-1.39,1.22-46.54,8.19-47.45C305,263.22,356.2,268.18,379.5,283.55Z" style="fill:#d3766a"></path><path d="M247.1,254.82c-2.77,4.5.81,8.63.81,8.63a11.23,11.23,0,0,0-5.28,5.54c-1.67,4.33,4.39,8.84,4.39,8.84a13.87,13.87,0,0,0-4.65,6.73c-1.17,4.3,4.29,9.72,4.29,9.72a12.18,12.18,0,0,0-.36,8.5c2.72,7.33,14.49,10,22,10.78,9,.94,32-.55,36.3-.57l8.54-47.17S282,249.14,273,248.49C265.41,247.93,250.21,249.78,247.1,254.82Z" style="fill:#d3766a"></path><path d="M248.11,263.26c8.19-1.34,16.34-.19,24.53.49a.15.15,0,0,1,0,.29c-8.15-.78-16.34.07-24.49-.38A.2.2,0,0,1,248.11,263.26Z" style="fill:#263238"></path><path d="M247.31,277.24a21.48,21.48,0,0,1,5.65.37c2,.26,4,.57,5.94.9q6,1,11.83,2.29c.18,0,.16.31,0,.28-3.94-.65-7.9-1.25-11.87-1.74l-6-.69a25.62,25.62,0,0,1-5.6-.86A.29.29,0,0,1,247.31,277.24Z" style="fill:#263238"></path><path d="M246.82,294.31c1.61-.28,3.49.3,5.07.6l5.4,1c3.6.64,7.21,1.28,10.83,1.8a.14.14,0,0,1,0,.28c-3.68-.51-7.37-1-11-1.5-1.81-.26-3.61-.53-5.42-.82-1.53-.24-3.47-.37-4.83-1.17A.1.1,0,0,1,246.82,294.31Z" style="fill:#263238"></path><path d="M366.71,277.16c-12.13-4.25-24.4-8.53-37.23-10,12.93.43,25.48,4.79,37.23,10Z" style="fill:#263238"></path><path d="M248.08,253.67a7.16,7.16,0,0,0,0,9.65l.15.19-.21.12c-6.87,4.09-6.86,9-.72,13.83l.48.37a15.1,15.1,0,0,0-3.7,3.78c-3.17,4.21.24,9,3.22,12.25l.31.34-.22.44A10.08,10.08,0,0,0,251.85,308c12.35,7.44,34.43,5.38,48.66,4.56a301.87,301.87,0,0,0,34.56.55c3.83-.17,7.65-.48,11.47-.87q-5.69.87-11.44,1.32a263.08,263.08,0,0,1-34.47.26q-8.34.73-16.69.94c-8.35.11-16.92.16-25-2.19-8.81-2.43-17.17-8.51-12.64-18.62l.09.77c-2.23-2.53-4.32-5.33-4.71-8.82-.1-3.61,2.43-6.43,5.1-8.48v.75a16.93,16.93,0,0,1-3.23-3.43c-3.59-4.77-.19-9.14,4.3-11.51l-.07.32a7.29,7.29,0,0,1,.34-9.91Z" style="fill:#263238"></path></g><g id="freepik--character-1--inject-55"><path d="M171.12,300.62c-.86,1.27-80.41,10.71-84.29,9.9a2.58,2.58,0,0,1-.55-.19c-4.85-1.85-28.08-20.24-29.84-21.79-4.33-3.84,10.2-34.13,15.16-39.33,3.3-3.46,9.75-5.19,9.75-5.19s15.28-46.64,25.86-58.65c2.65-3,52.06-7.74,61.2-4.36,3.91,1.45,13.11,2.13,13.48,3.8v0C182.31,187.27,172,299.32,171.12,300.62Z" style="fill:#37474f"></path><path d="M171.12,300.62c-.86,1.27-80.41,10.71-84.29,9.9a2.58,2.58,0,0,1-.55-.19c6.13-21.23,35-120.9,35.93-121.6s48.3-3.89,59.68-3.9C182.31,187.27,172,299.32,171.12,300.62Z" style="fill:#263238"></path><path d="M132.62,184.5c-.86-.69-2.05-6.89-.75-9.15,1.47-2.54,20.54-2.74,21.81-.76s2.47,8.17,1.93,8.6-3.68,1-4.16.38-1-5-1.35-5.47-13.72-.33-14.13.38,1.25,5.09.74,5.52S133.45,185.18,132.62,184.5Z" style="fill:#37474f"></path><path d="M183.25,196.4c16.82,23,59.38,113.56,62.83,120.37,4.54,9-43.42,22.12-45.87,15.65-1.59-4.21-8.52-28.94-13.87-50-6.87-27-14.68-53.53-18.23-78.55C165.37,184.56,175.36,185.59,183.25,196.4Z" style="fill:#f7a9a0"></path><path d="M216.91,346.7c-2-2-3.1-1-2.53,4.06s7.09,24.62.08,26.32-15.83-26-16.12-34.52,2.21-22.35,2.21-22.35C203.34,325.26,211.3,336.86,216.91,346.7Z" style="fill:#f7a9a0"></path><path d="M239.23,303.29c7.87,14.65,17.94,32.67,16.79,51a9.14,9.14,0,0,1-2.16,5.55c-.37,8.22-4.37,10.51-4.37,10.51-2.69,7.56-7.09,9.34-7.09,9.34s-.54,9.65-6.43,10.29c-6.6.74-4.55-13-8-21.18-8-18.83-24.56-43.38-27.39-48.58Z" style="fill:#f7a9a0"></path><path d="M233.47,343.19c2.23,5.59,4.57,11,6,16.88,1.61,6.44,2.07,12.9,2.72,19.46a.16.16,0,1,0,.31,0c.73-12.06-2.86-25.95-8.82-36.44C233.58,342.83,233.36,342.91,233.47,343.19Z" style="fill:#263238"></path><path d="M244.14,336.72c1.87,5.57,5.1,15.36,5.16,33.63a.06.06,0,0,0,.11,0,62.31,62.31,0,0,0-5-33.72C244.26,336.3,244,336.36,244.14,336.72Z" style="fill:#263238"></path><path d="M249.94,333.36c2.82,9.57,3.39,16,3.88,26.43a.06.06,0,0,0,.11,0c.69-11.94-.41-16.35-3.68-26.57C250.14,332.87,249.83,333,249.94,333.36Z" style="fill:#263238"></path><path d="M195.73,327.24l50.46-17s-52.55-100.49-59.58-110.59c-9.09-13.06-21.72-19.58-19,2.27C171.6,233,195.73,327.24,195.73,327.24Z" style="fill:#018BDF"></path><path d="M237.1,302.63c-2.58,1-5.26,1.87-7.9,2.75s-5.29,1.75-7.95,2.57c-5.33,1.65-10.65,3.28-16,4.83-1.46.42-2.93.84-4.4,1.24s-3.2.66-4.77,1.1a.1.1,0,0,1,0-.19c1.29-.43,2.54-1,3.83-1.5s2.69-.91,4-1.35q4-1.27,8-2.52c5.31-1.66,10.65-3.29,16-4.77,3-.84,6.07-1.78,9.14-2.43A.14.14,0,0,1,237.1,302.63Z" style="fill:#263238"></path><path d="M235.6,313.82l-39.88,13.42S171.61,233,167.66,201.94c-1.6-12.65,2-15.79,7-13.66C186.2,211.8,222.53,285.92,235.6,313.82Z" style="opacity:0.1"></path><path d="M128.6,285.48l.28,1c0,.13.07.26.1.41l0,.12a3.29,3.29,0,0,1,.1.37c.1.38.21.82.35,1.3.06.25.13.51.19.79.61,2.33,1.47,5.6,2.53,9.66.12.48.24,1,.37,1.46a3,3,0,0,1,.09.32c.83,3.2,1.77,6.81,2.81,10.78.22.82.44,1.66.65,2.51.88,3.41,1.83,7.05,2.83,10.89.07.23.13.46.19.7,1.81,7,3.79,14.64,5.88,22.68,6.13,23.68,13.18,50.88,19.57,75.78.22.84.43,1.68.65,2.52.09.3.16.61.23.92.19.73.38,1.46.55,2.18.11.4.21.81.32,1.22.17.64.34,1.29.5,1.93h0c.66,2.56,1.31,5.1,2,7.6h0c.14.56.27,1.1.42,1.64h0c.49,1.94,1,3.84,1.47,5.72h79.57c-8.69-31-20.2-69.22-29.88-100.83-10.67-34.92-19.13-61.75-19.13-61.75Z" style="fill:#37474f"></path><path d="M199.48,285.49c-5,39-23.28,103.8-30.29,156.85-16.38-64.28-40.59-156.85-40.59-156.85Z" style="opacity:0.1"></path><path d="M137.63,285.49c15.52,53.6,29.91,108.15,42.83,162.43-15.53-53.59-29.9-108.15-42.83-162.43Z" style="fill:#263238"></path><path d="M87.18,448.06h80.9l8.16-89.91c4.36-2,11.47-5.35,11.47-5.35s5-26.2,8-44.47v0c1.88-11.33,3.42-20.75,3.72-22.52,0-.12,0-.2,0-.25v0h-94s-9.14,39.76-9.93,53.28c-.26,4.34,1.17,17.35,1.17,17.35Z" style="fill:#37474f"></path><path d="M112.1,330.62c.94-.31,17.11,1,24.87-5.67,7.09-6.1,10.59-24.58,10.73-24.6a.26.26,0,0,1,.27.13c.23.41-.23,15-8.74,25.18-6,7.15-25.12,6.08-27.17,5.58C111.7,331.16,111.83,330.71,112.1,330.62Z" style="fill:#263238"></path><path d="M210.38,322.11c-.77-.63-4.44-1.18-8-8.16a37.68,37.68,0,0,1-3-8.66c-.41-1.79-1.74-10.52-1.85-10.56s-.09,0-.1.12a106.17,106.17,0,0,0,1.06,10.63,32.49,32.49,0,0,0,3.07,10c3.44,6.07,8.07,7.63,8.87,7.22C210.55,322.62,210.49,322.2,210.38,322.11Z" style="fill:#263238"></path><path d="M189.86,351.44a163,163,0,0,0-25.66,11.95.29.29,0,0,0,.24.53c8.64-3.72,17.45-7.27,25.88-11.45A.56.56,0,0,0,189.86,351.44Z" style="fill:#263238"></path><path d="M192.61,292.12c0-.3-.55-.36-.55,0,.07,10.26-.59,19.29-1.45,28.88-.4,4.45-4,29.06-11.7,27.27-1.3-.3-2-1.57-2.16-3.52-.24-2.35.64-5.22,1-7.55.86-5.15,1.55-10.32,2-15.52a140.9,140.9,0,0,0-.31-29.11.25.25,0,0,0-.5,0c0,13.44-.34,26.86-2.35,40.18-1,6.4-4.19,16,2.5,17s11.23-15.14,12.06-19.55C193.49,317.89,193.58,304.59,192.61,292.12Z" style="fill:#263238"></path><path d="M179.11,348.89a41.4,41.4,0,0,0-1.74,5.1,11.63,11.63,0,0,0-.72,4.19c0,.27.39.3.54.12a15.07,15.07,0,0,0,1.79-4.08c.59-1.58,1.21-3.15,1.75-4.74A.86.86,0,0,0,179.11,348.89Z" style="fill:#263238"></path><path d="M111.48,286.55c-1,6.88-5.7,39-6.46,45.07-.39,3-.84,6.05-1,8.95.07,6,1.18,12.11,2.13,18-3.58,28.87-7.78,60.56-12.24,89.31,2.8-28.43,6.69-61.88,10.32-89.12-.91-6.1-1.94-12.05-2-18.27.08-1.49.29-3.14.48-4.62,2.38-16.45,5.5-33.07,8.75-49.36Z" style="fill:#263238"></path><path d="M212.54,318,97.29,319.21c-.26-.27.17-4.71.37-6.48,0-.33-5.83-5.26-4.89-10.38,5.47-30,29.76-92.28,46-113.87,8.16-10.83,30.1-10,38.33,3.93,11.36,19.29,30.68,79.26,37.24,109.62.77,3.54-3,9.91-3,11Z" style="fill:#018BDF"></path><path d="M168.22,304.65c11.69-.49,23.3-1,34.92-1.34l-.59.76-4.11-17.8.42.48a14.5,14.5,0,0,1-5.64-4.19,22.59,22.59,0,0,1-3.48-6,37.88,37.88,0,0,1-2-6.55,47.86,47.86,0,0,1-1-6.77l.67.61-27.54.78.55-.5-.7,4.31c-.26,1.43-.69,2.84-1,4.26s-1,2.77-1.43,4.15l-1,2c-.16.33-.31.66-.49,1l-.59.93A17.17,17.17,0,0,1,149,287a13.34,13.34,0,0,1-8.57,1.63l.3-.16-7.82,17.68Zm-28-16.41.08-.19.23,0a13.06,13.06,0,0,0,8.09-1.74,16.27,16.27,0,0,0,5.81-6l.56-.9c.16-.31.3-.64.46-1l.89-1.93c.46-1.35,1-2.69,1.34-4.06s.69-2.78.93-4.19l.62-4.25.07-.49h.48l27.54-.95.63,0,.05.64a45.74,45.74,0,0,0,1,6.55,35.68,35.68,0,0,0,2,6.32,22.23,22.23,0,0,0,3.27,5.63,13.1,13.1,0,0,0,5.05,3.81l.34.13.08.35,4,17.82.17.75-.76,0c-11.8.37-23.61.61-35.35.85l-34.93.72Z" style="opacity:0.1"></path><path d="M207.51,312.11c-33.22.94-70.16,1.23-103.41.85,33.25-.92,70.18-1.24,103.41-.85Z" style="opacity:0.1"></path><path d="M170.2,199.39c-6.14,3.55-18.56-4.65-23.58-12.66-.34-.55-.83-23.1-1.09-27.65-.06-.93,28.92,5.26,28.92,5.26s-2.24,9.7-1.73,17.62a10.51,10.51,0,0,0,.3,1.85,2.14,2.14,0,0,1,.06.31C173.87,187.63,173.34,197.57,170.2,199.39Z" style="fill:#f7a9a0"></path><path d="M173.08,184.12a17.16,17.16,0,0,1-2.92.32c-15,.55-21.42-17.44-23.54-25.4,5.28.48,27.84,5.29,27.84,5.29S172.2,174,172.73,182a8.85,8.85,0,0,0,.29,1.84A1.9,1.9,0,0,1,173.08,184.12Z" style="fill:#263238"></path><path d="M138.28,146.31s-18,19.27-15,22.71,29.39-1.69,35.15-6.29,16.29-23.3,16.29-23.3Z" style="fill:#018BDF"></path><g style="opacity:0.1"><path d="M138.28,146.31s-18,19.27-15,22.71,29.39-1.69,35.15-6.29,16.29-23.3,16.29-23.3Z"></path></g><path d="M140.88,123.86c-3.21,10.09,1.79,39.41,8.91,46,10.33,9.58,27.42,10.7,35.6-1.76,7.94-12.07.75-50.17-7.22-56.2C166.42,103.05,145.63,109,140.88,123.86Z" style="fill:#f7a9a0"></path><path d="M165.19,142.48c0-.07-.13.12-.12.2.39,2,.51,4.29-1.17,5.24-.06,0,0,.13,0,.11C166.06,147.36,165.88,144.28,165.19,142.48Z" style="fill:#263238"></path><path d="M163.09,140.71c-3.22.28-2.42,6.7.57,6.44S165.79,140.47,163.09,140.71Z" style="fill:#263238"></path><path d="M177.6,140.53c0-.08.17.07.17.15.19,2,.74,4.25,2.62,4.69.06,0,.07.11,0,.11C178.15,145.45,177.45,142.45,177.6,140.53Z" style="fill:#263238"></path><path d="M179.11,138.23c3.17-.65,4.22,5.73,1.29,6.33S176.46,138.77,179.11,138.23Z" style="fill:#263238"></path><path d="M160.78,137.09a24.74,24.74,0,0,0,2.57-.64,4.37,4.37,0,0,0,2.51-1.16,1.38,1.38,0,0,0-.07-1.67,3.39,3.39,0,0,0-3.37-.67,5,5,0,0,0-3.06,1.88A1.46,1.46,0,0,0,160.78,137.09Z" style="fill:#263238"></path><path d="M181.67,134.05a23.19,23.19,0,0,1-2.64-.31,4.29,4.29,0,0,1-2.63-.83,1.36,1.36,0,0,1-.15-1.66,3.37,3.37,0,0,1,3.25-1.09,5,5,0,0,1,3.28,1.46A1.46,1.46,0,0,1,181.67,134.05Z" style="fill:#263238"></path><path d="M167,161.14c.53.41,1.09,1,1.81,1a5.25,5.25,0,0,0,2.08-.77.07.07,0,0,1,.1.09,2.71,2.71,0,0,1-2.39,1.4,2.14,2.14,0,0,1-1.78-1.57C166.8,161.14,167,161.08,167,161.14Z" style="fill:#263238"></path><path d="M167.94,154.53a6.83,6.83,0,0,0,4.9,2.44,8.36,8.36,0,0,0,2.44-.19,2.21,2.21,0,0,0,.46-.11l.43-.12a.51.51,0,0,0,.34-.5h0a1.3,1.3,0,0,0,0-.21h0l0-.17c-.15-1.54-.59-3.85-.59-3.85.59.21,3.6,1.14,3.46.34-1.23-6.57-2.59-13.87-5.2-20.15a.18.18,0,0,0-.35.09c.93,6.36,3,12.52,4,18.89a12.25,12.25,0,0,0-3.32-.57c-.21.09.93,4.45.95,5.15a.32.32,0,0,1,0,.07c-2.53.65-4.56.12-7.28-1.29C167.94,154.23,167.8,154.38,167.94,154.53Z" style="fill:#263238"></path><path d="M174.78,155.93A8.17,8.17,0,0,1,172,159a3.72,3.72,0,0,1-2.19.55c-1.68-.12-2-1.58-1.93-2.89a9.12,9.12,0,0,1,.36-2.06A10.68,10.68,0,0,0,174.78,155.93Z" style="fill:#263238"></path><path d="M172,159a3.72,3.72,0,0,1-2.19.55c-1.68-.12-2-1.58-1.93-2.89C169.64,156.55,171.55,157.4,172,159Z" style="fill:#ff98b9"></path><path d="M141.69,155.08c5.58-2.22,6.55-21.79,6.55-21.79s.78,8.18,2.29,7.83S157.2,129,157.1,121a62.9,62.9,0,0,0,15.28,5.63c7.5,1.43,14.53,2.37,14.4,1.13-.37-3.68-4.91-13.69-10.27-16.6-6.15-3.34-13.84-6.24-25.27-.48s-13.52,12.13-14.68,18.24S139.64,155.9,141.69,155.08Z" style="fill:#263238"></path><path d="M173.87,108.43c-10.47-4.85-32.67-1.64-36.66,16.33-2.64,11.9.76,23.41.76,23.41s12.86-13.18,18-15.85c13-6.77,31-6,31-6S183.28,112.78,173.87,108.43Zm-16,19c-.2-3,.62-7.55,7.14-9.14,7.51-1.82,9.65,5.15,9.65,5.15A53.05,53.05,0,0,0,157.91,127.43Z" style="fill:#018BDF"></path><path d="M148.71,147s-6.51-9.53-10.83-7.23.5,16.09,5.52,18a5.12,5.12,0,0,0,6.9-2.68Z" style="fill:#f7a9a0"></path><path d="M139.36,143.71a.07.07,0,0,0,0,.13c3.52,1.47,5.34,4.77,6.61,8.19-1-1.32-2.46-2.06-4.23-.83-.09.07,0,.21.1.19a3.15,3.15,0,0,1,3.45,1.14,14.74,14.74,0,0,1,1.63,2.83c.16.32.74.16.62-.21l0-.08C147.62,150.56,144.19,144.22,139.36,143.71Z" style="fill:#263238"></path><path d="M130.32,192.22c-30.18,31.82-55.52,79.55-52,105.49,3.51,25.61,12.06,21.82,14.56,21.28,15.3-3.28,39.73-76.31,46.66-106.92C145.89,184.14,137.78,184.35,130.32,192.22Z" style="fill:#018BDF"></path><path d="M110.51,296c1.32-3.49,2.69-6.94,3.95-10.45l3.9-10.45c2.56-7,5.18-14,7.63-21s5-14,7.43-21c1.21-3.51,2.39-7,3.5-10.59s2.22-7.09,3.27-10.67a199.81,199.81,0,0,1-5.45,21.68c-2.14,7.15-4.59,14.19-7.05,21.22s-5.2,14-8,20.86S113.86,289.34,110.51,296Z" style="fill:#263238"></path><path d="M137.84,220.94a32.55,32.55,0,0,1,1.62-3.65c.31-.58.59-1.17.93-1.74s.63-1.16,1-1.73a10,10,0,0,1-1.15,3.88A11,11,0,0,1,137.84,220.94Z" style="fill:#263238"></path><path d="M124.49,198.63c2.17-2,5.83-6.41,11.57-11a17.2,17.2,0,0,0-6.84,4.84A53.78,53.78,0,0,0,124.49,198.63Z" style="fill:#263238"></path><path d="M133.74,189.22c-1.28-1.55,7-6.11,9.13-4.38s16.24,23.95,12.72,53-58.45,57.31-60.58,53c-.89-1.83.25-6.92,1.66-8.55,2-2.31,40.81-24.43,44.93-42.47C145.27,223.78,137,193.16,133.74,189.22Z" style="fill:#455a64"></path><path d="M89.34,319.13c11.6-1.22,23.44-13.37,53.21-48.76,4.12-4.9-22.62-43.26-27.29-38.26-5.88,6.3-27.32,32-28.65,34.11C75.38,283.76,81.47,320,89.34,319.13Z" style="fill:#f7a9a0"></path><path d="M105.46,248.11s6.77-17,13.09-24.88c8.47-10.51,20.11-16.09,25.13-18.14,10.48-4.27,38.76-7.35,41.07.64,2.09,7.23-27,8.92-27,8.92S187.13,208,188,217.21s-32.94,9.22-32.94,9.22,30.32-6.12,29.76,3.49c-.41,7.26-31.08,9-31.08,9s26.09-5.08,26,2.41c-.12,8.27-28.33,11.68-28.33,11.68-3.47,19-13.3,26.5-20.64,31.12C129,285.27,105.46,248.11,105.46,248.11Z" style="fill:#f7a9a0"></path><path d="M147.47,216.29c3.42-.9,6.88-1.84,10.37-2.43s7-1.07,10.53-1.34a60.68,60.68,0,0,1,13.83.27c-8.22-.5-20.74,1.43-24.23,2s-7,1-10.48,1.6C147.4,216.44,147.39,216.31,147.47,216.29Z" style="fill:#263238"></path><path d="M149.39,228.93c4.42-1,8.77-2.08,13.23-2.85s8.72-1.1,13.2-1.56c.34,0,.25.16-.1.21-4.46.64-8.53,1.57-13,2.26s-8.93,1.2-13.33,2A.05.05,0,1,1,149.39,228.93Z" style="fill:#263238"></path><path d="M149.09,240.07c6.67-1.82,13.68-2.4,20.56-2.81.34,0,.19.22-.16.26-6.85.81-12.23,1.39-20.34,2.78C149,240.32,149,240.11,149.09,240.07Z" style="fill:#263238"></path><path d="M104,242.35l27.09,48.57s-32.31,33.63-43.32,28.22c-9.58-4.71-11.2-35.44-4.43-49.26C86.2,264.11,104,242.35,104,242.35Z" style="fill:#018BDF"></path><path d="M104.94,244l-1-1.58.15,0c-2.89,3.85-5.81,7.67-8.65,11.54s-5.72,7.72-8.36,11.71a56.07,56.07,0,0,0-3.66,6.11A42.07,42.07,0,0,0,81,278.42a45.17,45.17,0,0,0-1.41,14.21A37.82,37.82,0,0,1,80,278.18a33.9,33.9,0,0,1,2.35-6.93A53.38,53.38,0,0,1,86,264.92c2.7-4,5.61-7.86,8.59-11.64s6.13-7.44,9.39-11l.09-.11.06.12Z" style="fill:#263238"></path><path d="M98.81,257.34c1.51,2.34,2.82,4.82,4.18,7.25s2.71,4.87,4,7.33c2.61,4.92,5.2,9.85,7.73,14.82.69,1.36,1.38,2.72,2,4.09s1.25,3,2,4.48a.1.1,0,1,1-.17.09c-.67-1.19-1.5-2.3-2.19-3.48s-1.4-2.47-2.08-3.72c-1.33-2.45-2.66-4.9-4-7.36-2.62-4.91-5.23-9.84-7.69-14.84-1.38-2.82-2.87-5.63-4.09-8.53A.14.14,0,0,1,98.81,257.34Z" style="fill:#263238"></path><path d="M128.76,286.55c.89,1.45,1.75,2.93,2.62,4.39l-.1.12a143.54,143.54,0,0,1-24.49,21.63A56.56,56.56,0,0,1,97.25,318c12.63-7.16,23.24-17.29,33.73-27.19l0,.23c-.73-1.48-1.48-3-2.19-4.46Z" style="fill:#263238"></path></g><g id="freepik--Table--inject-55"><path d="M48,448.07c209.48-.61,444.46-.62,653.94,0-209.48.62-444.46.61-653.94,0Z" style="fill:#263238"></path></g></svg>